ISO-10303-21;
HEADER;
FILE_DESCRIPTION (( 'STEP AP214' ),
    '1' );
FILE_NAME ('Caliper Mount Front Right STEP.STEP',
    '2024-03-08T03:51:59',
    ( '' ),
    ( '' ),
    'SwSTEP 2.0',
    'SolidWorks 2023',
    '' );
FILE_SCHEMA (( 'AUTOMOTIVE_DESIGN' ));
ENDSEC;

DATA;
#1 = EDGE_LOOP ( 'NONE', ( #987, #1119 ) ) ;
#2 = CARTESIAN_POINT ( 'NONE',  ( 1.938434399603570224, 2.203695587888485186, -0.1250000000000000000 ) ) ;
#3 = CARTESIAN_POINT ( 'NONE',  ( 1.022363496692916263, 0.1500000000000002998, -0.9145000026771732404 ) ) ;
#4 = ORIENTED_EDGE ( 'NONE', *, *, #224, .F. ) ;
#5 = FACE_OUTER_BOUND ( 'NONE', #502, .T. ) ;
#6 = ORIENTED_EDGE ( 'NONE', *, *, #631, .T. ) ;
#7 = EDGE_CURVE ( 'NONE', #601, #50, #847, .T. ) ;
#8 = DIRECTION ( 'NONE',  ( -0.000000000000000000, 1.000000000000000000, -1.242251007628252106E-16 ) ) ;
#9 = ORIENTED_EDGE ( 'NONE', *, *, #401, .T. ) ;
#10 = PLANE ( 'NONE',  #917 ) ;
#11 = CIRCLE ( 'NONE', #261, 0.1564999999999984459 ) ;
#12 = LINE ( 'NONE', #255, #1111 ) ;
#13 = CARTESIAN_POINT ( 'NONE',  ( 1.776110493848743976, 1.426134781135692364, -0.1250000000000000000 ) ) ;
#14 = AXIS2_PLACEMENT_3D ( 'NONE', #344, #611, #590 ) ;
#15 = DIRECTION ( 'NONE',  ( 0.000000000000000000, -1.000000000000000000, 1.242251007628252106E-16 ) ) ;
#16 = ORIENTED_EDGE ( 'NONE', *, *, #494, .F. ) ;
#17 = DIRECTION ( 'NONE',  ( -0.000000000000000000, -0.000000000000000000, -1.000000000000000000 ) ) ;
#18 = ORIENTED_EDGE ( 'NONE', *, *, #897, .T. ) ;
#19 = DIRECTION ( 'NONE',  ( 0.000000000000000000, 0.000000000000000000, -1.000000000000000000 ) ) ;
#20 = PLANE ( 'NONE',  #441 ) ;
#21 = VERTEX_POINT ( 'NONE', #305 ) ;
#22 = EDGE_CURVE ( 'NONE', #410, #676, #938, .T. ) ;
#23 = LINE ( 'NONE', #1014, #719 ) ;
#24 = AXIS2_PLACEMENT_3D ( 'NONE', #237, #804, #703 ) ;
#25 = CIRCLE ( 'NONE', #673, 0.7146723828161395398 ) ;
#26 = CARTESIAN_POINT ( 'NONE',  ( 3.604600000000000026, 0.1500000000000001055, -1.362000000000000322 ) ) ;
#27 = CIRCLE ( 'NONE', #769, 0.1565000000000000835 ) ;
#28 = CARTESIAN_POINT ( 'NONE',  ( 5.120298621315516385, -0.1180000000000000909, -1.362000000000000322 ) ) ;
#29 = ADVANCED_FACE ( 'NONE', ( #1063 ), #348, .F. ) ;
#30 = CARTESIAN_POINT ( 'NONE',  ( 5.120298621315516385, 0.1500000000000000222, -1.362000000000000099 ) ) ;
#31 = DIRECTION ( 'NONE',  ( 0.000000000000000000, 1.347065085633266536E-16, 1.000000000000000000 ) ) ;
#32 = LINE ( 'NONE', #199, #481 ) ;
#33 =( NAMED_UNIT ( * ) SI_UNIT ( $, .STERADIAN. ) SOLID_ANGLE_UNIT ( ) );
#34 = PRODUCT_DEFINITION_SHAPE ( 'NONE', 'NONE',  #133 ) ;
#35 = CARTESIAN_POINT ( 'NONE',  ( 5.120298621315516385, 0.0001102362204724180114, -1.362000000000000322 ) ) ;
#36 = EDGE_LOOP ( 'NONE', ( #177, #582, #412, #542 ) ) ;
#37 = LINE ( 'NONE', #1015, #850 ) ;
#38 = FACE_OUTER_BOUND ( 'NONE', #560, .T. ) ;
#39 = EDGE_CURVE ( 'NONE', #264, #226, #238, .T. ) ;
#40 = DIRECTION ( 'NONE',  ( -0.000000000000000000, 1.000000000000000000, -1.242251007628252106E-16 ) ) ;
#41 = SURFACE_STYLE_USAGE ( .BOTH. , #403 ) ;
#42 = AXIS2_PLACEMENT_3D ( 'NONE', #1153, #279, #438 ) ;
#43 = FACE_BOUND ( 'NONE', #125, .T. ) ;
#44 = MECHANICAL_DESIGN_GEOMETRIC_PRESENTATION_REPRESENTATION (  '', ( #538 ), #1023 ) ;
#45 = ORIENTED_EDGE ( 'NONE', *, *, #503, .T. ) ;
#46 = EDGE_CURVE ( 'NONE', #1131, #1122, #1034, .T. ) ;
#47 = LINE ( 'NONE', #1020, #1057 ) ;
#48 = CIRCLE ( 'NONE', #1117, 0.7146723828161395398 ) ;
#49 = DIRECTION ( 'NONE',  ( -1.000000000000000000, 0.000000000000000000, 0.000000000000000000 ) ) ;
#50 = VERTEX_POINT ( 'NONE', #251 ) ;
#51 = ORIENTED_EDGE ( 'NONE', *, *, #1052, .T. ) ;
#52 = CARTESIAN_POINT ( 'NONE',  ( 1.022363496692916263, -1.365923996832131609E-16, -0.9145000026771732404 ) ) ;
#53 = EDGE_CURVE ( 'NONE', #140, #1114, #78, .T. ) ;
#54 = ORIENTED_EDGE ( 'NONE', *, *, #449, .T. ) ;
#55 = VERTEX_POINT ( 'NONE', #895 ) ;
#56 = ORIENTED_EDGE ( 'NONE', *, *, #828, .F. ) ;
#57 = ORIENTED_EDGE ( 'NONE', *, *, #1115, .F. ) ;
#58 = DIRECTION ( 'NONE',  ( -1.000000000000000000, 0.000000000000000000, 0.000000000000000000 ) ) ;
#59 = ADVANCED_FACE ( 'NONE', ( #875 ), #257, .F. ) ;
#60 = CARTESIAN_POINT ( 'NONE',  ( 3.854600000000000026, 0.4574957598838364503, -1.204500000000000348 ) ) ;
#61 = AXIS2_PLACEMENT_3D ( 'NONE', #602, #695, #326 ) ;
#62 = EDGE_CURVE ( 'NONE', #227, #774, #1093, .T. ) ;
#63 = AXIS2_PLACEMENT_3D ( 'NONE', #487, #296, #476 ) ;
#64 = DIRECTION ( 'NONE',  ( -1.000000000000000000, 0.000000000000000000, 0.000000000000000000 ) ) ;
#65 = EDGE_LOOP ( 'NONE', ( #4, #1124, #57, #51, #980 ) ) ;
#66 = DIRECTION ( 'NONE',  ( 0.000000000000000000, 1.347065085633266536E-16, 1.000000000000000000 ) ) ;
#67 = ORIENTED_EDGE ( 'NONE', *, *, #1045, .F. ) ;
#68 = CARTESIAN_POINT ( 'NONE',  ( 1.022363496692916263, -1.191263505159599394E-16, -0.7739000026771732932 ) ) ;
#69 = AXIS2_PLACEMENT_3D ( 'NONE', #509, #773, #1133 ) ;
#70 = CYLINDRICAL_SURFACE ( 'NONE', #516, 0.5760821356028134055 ) ;
#71 = ORIENTED_EDGE ( 'NONE', *, *, #828, .T. ) ;
#72 = CARTESIAN_POINT ( 'NONE',  ( 0.5628018054854194707, 0.2500000000000002220, -0.1250000000000000000 ) ) ;
#73 = ORIENTED_EDGE ( 'NONE', *, *, #336, .F. ) ;
#74 = DIRECTION ( 'NONE',  ( -0.000000000000000000, -0.000000000000000000, 1.000000000000000000 ) ) ;
#75 = DIRECTION ( 'NONE',  ( -0.000000000000000000, -0.000000000000000000, -1.000000000000000000 ) ) ;
#76 = EDGE_CURVE ( 'NONE', #958, #239, #789, .T. ) ;
#77 = DIRECTION ( 'NONE',  ( -0.000000000000000000, 1.000000000000000000, -1.242251007628252106E-16 ) ) ;
#78 = CIRCLE ( 'NONE', #696, 0.2655000000000005134 ) ;
#79 = ORIENTED_EDGE ( 'NONE', *, *, #577, .T. ) ;
#80 = VECTOR ( 'NONE', #970, 39.37007874015748143 ) ;
#81 = DIRECTION ( 'NONE',  ( -0.000000000000000000, 1.000000000000000000, -1.242251007628252106E-16 ) ) ;
#82 = DIRECTION ( 'NONE',  ( -0.000000000000000000, 1.000000000000000000, -1.242251007628252106E-16 ) ) ;
#83 = CARTESIAN_POINT ( 'NONE',  ( 0.000000000000000000, 2.565061936357496464, 0.000000000000000000 ) ) ;
#84 = ORIENTED_EDGE ( 'NONE', *, *, #536, .F. ) ;
#85 = CARTESIAN_POINT ( 'NONE',  ( 0.1981999999999989048, 0.8646723828161393399, 0.1250000000000000000 ) ) ;
#86 = LINE ( 'NONE', #777, #1123 ) ;
#87 = DIRECTION ( 'NONE',  ( -1.000000000000000000, 0.000000000000000000, 0.000000000000000000 ) ) ;
#88 = CARTESIAN_POINT ( 'NONE',  ( 0.000000000000000000, 0.2500000000000002220, -0.2249999999999999778 ) ) ;
#89 = ADVANCED_FACE ( 'NONE', ( #614 ), #70, .F. ) ;
#90 = ORIENTED_EDGE ( 'NONE', *, *, #1038, .T. ) ;
#91 = AXIS2_PLACEMENT_3D ( 'NONE', #1006, #546, #31 ) ;
#92 = LINE ( 'NONE', #273, #976 ) ;
#93 = VERTEX_POINT ( 'NONE', #433 ) ;
#94 = CARTESIAN_POINT ( 'NONE',  ( 0.000000000000000000, 0.000000000000000000, 0.1250000000000000000 ) ) ;
#95 = AXIS2_PLACEMENT_3D ( 'NONE', #1154, #417, #151 ) ;
#96 = DIRECTION ( 'NONE',  ( 0.000000000000000000, 1.347065085633266536E-16, 1.000000000000000000 ) ) ;
#97 = EDGE_CURVE ( 'NONE', #681, #686, #833, .T. ) ;
#98 = ADVANCED_FACE ( 'NONE', ( #609 ), #584, .F. ) ;
#99 = DIRECTION ( 'NONE',  ( -1.000000000000000000, 0.000000000000000000, 0.000000000000000000 ) ) ;
#100 = AXIS2_PLACEMENT_3D ( 'NONE', #796, #19, #373 ) ;
#101 = CARTESIAN_POINT ( 'NONE',  ( 3.854600000000000026, 0.000000000000000000, 0.000000000000000000 ) ) ;
#102 = EDGE_LOOP ( 'NONE', ( #18, #666 ) ) ;
#103 = CIRCLE ( 'NONE', #396, 0.1565000000000000835 ) ;
#104 = CARTESIAN_POINT ( 'NONE',  ( 0.3556999999999999607, 0.1500000000000000500, -1.204500000000000348 ) ) ;
#105 = VERTEX_POINT ( 'NONE', #977 ) ;
#106 = FACE_BOUND ( 'NONE', #621, .T. ) ;
#107 = CARTESIAN_POINT ( 'NONE',  ( 2.299852264000778579, 2.203695587888485186, 0.000000000000000000 ) ) ;
#108 = VECTOR ( 'NONE', #228, 39.37007874015748143 ) ;
#109 = CARTESIAN_POINT ( 'NONE',  ( 3.854600000000000026, 2.453544337385996026E-17, -0.1250000000000000000 ) ) ;
#110 = LINE ( 'NONE', #462, #126 ) ;
#111 = ORIENTED_EDGE ( 'NONE', *, *, #679, .T. ) ;
#112 = FACE_OUTER_BOUND ( 'NONE', #893, .T. ) ;
#113 = CYLINDRICAL_SURFACE ( 'NONE', #469, 0.1564999999999984459 ) ;
#114 = EDGE_CURVE ( 'NONE', #676, #134, #86, .T. ) ;
#115 = CARTESIAN_POINT ( 'NONE',  ( 0.000000000000000000, 0.000000000000000000, 0.000000000000000000 ) ) ;
#116 = CYLINDRICAL_SURFACE ( 'NONE', #450, 0.1000000000000000056 ) ;
#117 = EDGE_LOOP ( 'NONE', ( #865, #254, #324, #370 ) ) ;
#118 = CYLINDRICAL_SURFACE ( 'NONE', #244, 0.1000000000000000056 ) ;
#119 = PLANE ( 'NONE',  #183 ) ;
#120 = CIRCLE ( 'NONE', #930, 0.5760821356028134055 ) ;
#121 = CIRCLE ( 'NONE', #659, 0.2534999999999998921 ) ;
#122 = DIRECTION ( 'NONE',  ( -0.000000000000000000, -0.000000000000000000, -1.000000000000000000 ) ) ;
#123 = DIRECTION ( 'NONE',  ( -0.000000000000000000, 1.000000000000000000, -1.242251007628252106E-16 ) ) ;
#124 = DIRECTION ( 'NONE',  ( -1.000000000000000000, -0.000000000000000000, 0.000000000000000000 ) ) ;
#125 = EDGE_LOOP ( 'NONE', ( #285, #274 ) ) ;
#126 = VECTOR ( 'NONE', #175, 39.37007874015748143 ) ;
#127 = SURFACE_STYLE_FILL_AREA ( #141 ) ;
#128 = ADVANCED_FACE ( 'NONE', ( #427 ), #1069, .T. ) ;
#129 = DIRECTION ( 'NONE',  ( -0.000000000000000000, -0.000000000000000000, 1.000000000000000000 ) ) ;
#130 = ORIENTED_EDGE ( 'NONE', *, *, #873, .F. ) ;
#131 = CARTESIAN_POINT ( 'NONE',  ( 1.022363496692916263, 0.1500000000000000500, -1.055100002677173299 ) ) ;
#132 = CARTESIAN_POINT ( 'NONE',  ( 3.504599999999999937, 0.2500000000000001665, -0.2249999999999999778 ) ) ;
#133 = PRODUCT_DEFINITION ( 'UNKNOWN', '', #319, #497 ) ;
#134 = VERTEX_POINT ( 'NONE', #327 ) ;
#135 = DIRECTION ( 'NONE',  ( -0.000000000000000000, -0.000000000000000000, -1.000000000000000000 ) ) ;
#136 = CIRCLE ( 'NONE', #1021, 0.1406000000000000028 ) ;
#137 = DIRECTION ( 'NONE',  ( 0.000000000000000000, 1.242251007628252106E-16, 1.000000000000000000 ) ) ;
#138 = EDGE_LOOP ( 'NONE', ( #194, #1132 ) ) ;
#139 = EDGE_CURVE ( 'NONE', #811, #946, #1051, .T. ) ;
#140 = VERTEX_POINT ( 'NONE', #1142 ) ;
#141 = FILL_AREA_STYLE ('',( #663 ) ) ;
#142 = DIRECTION ( 'NONE',  ( -0.000000000000000000, 1.000000000000000000, -1.242251007628252106E-16 ) ) ;
#143 = ORIENTED_EDGE ( 'NONE', *, *, #351, .F. ) ;
#144 = ORIENTED_EDGE ( 'NONE', *, *, #662, .F. ) ;
#145 = EDGE_CURVE ( 'NONE', #354, #1075, #1056, .T. ) ;
#146 = EDGE_CURVE ( 'NONE', #891, #681, #511, .T. ) ;
#147 = VERTEX_POINT ( 'NONE', #184 ) ;
#148 = ORIENTED_EDGE ( 'NONE', *, *, #888, .F. ) ;
#149 = CARTESIAN_POINT ( 'NONE',  ( 0.2370846879088268633, 0.1510164788714587203, -0.2104832855579610584 ) ) ;
#150 = CYLINDRICAL_SURFACE ( 'NONE', #1055, 0.3614178643972082439 ) ;
#151 = DIRECTION ( 'NONE',  ( -1.000000000000000000, 0.000000000000000000, 0.000000000000000000 ) ) ;
#152 = CARTESIAN_POINT ( 'NONE',  ( 0.4442271316394411640, 0.1934875715695712484, -0.1422326806699774626 ) ) ;
#153 = ORIENTED_EDGE ( 'NONE', *, *, #792, .T. ) ;
#154 = FACE_OUTER_BOUND ( 'NONE', #733, .T. ) ;
#155 = VECTOR ( 'NONE', #840, 39.37007874015748143 ) ;
#156 = DIRECTION ( 'NONE',  ( 1.000000000000000000, 0.000000000000000000, 0.000000000000000000 ) ) ;
#157 = CYLINDRICAL_SURFACE ( 'NONE', #14, 0.3614178643971866500 ) ;
#158 = DIRECTION ( 'NONE',  ( -1.000000000000000000, 0.000000000000000000, 0.000000000000000000 ) ) ;
#159 = CIRCLE ( 'NONE', #69, 0.1000000000000000056 ) ;
#160 = EDGE_CURVE ( 'NONE', #50, #484, #1087, .T. ) ;
#161 = DIRECTION ( 'NONE',  ( -0.000000000000000000, -1.000000000000000000, -0.000000000000000000 ) ) ;
#162 = DIRECTION ( 'NONE',  ( 0.000000000000000000, -1.286180787977525198E-16, -1.000000000000000000 ) ) ;
#163 = VERTEX_POINT ( 'NONE', #634 ) ;
#164 = FACE_BOUND ( 'NONE', #799, .T. ) ;
#165 = EDGE_CURVE ( 'NONE', #105, #680, #529, .T. ) ;
#166 = DIRECTION ( 'NONE',  ( -1.000000000000000000, 0.000000000000000000, 0.000000000000000000 ) ) ;
#167 = ORIENTED_EDGE ( 'NONE', *, *, #436, .T. ) ;
#168 = CARTESIAN_POINT ( 'NONE',  ( 1.022363496692916263, 0.1500000000000000500, -0.9145000026771732404 ) ) ;
#169 = EDGE_LOOP ( 'NONE', ( #325, #1089, #332, #606 ) ) ;
#170 = VECTOR ( 'NONE', #294, 39.37007874015748143 ) ;
#171 = DIRECTION ( 'NONE',  ( -0.000000000000000000, 1.000000000000000000, -1.242251007628252106E-16 ) ) ;
#172 = VECTOR ( 'NONE', #527, 39.37007874015748143 ) ;
#173 = DIRECTION ( 'NONE',  ( 0.000000000000000000, -1.286180787977525198E-16, -1.000000000000000000 ) ) ;
#174 = EDGE_CURVE ( 'NONE', #704, #946, #380, .T. ) ;
#175 = DIRECTION ( 'NONE',  ( -0.000000000000000000, -0.000000000000000000, -1.000000000000000000 ) ) ;
#176 = VECTOR ( 'NONE', #636, 39.37007874015748143 ) ;
#177 = ORIENTED_EDGE ( 'NONE', *, *, #421, .F. ) ;
#178 = CARTESIAN_POINT ( 'NONE',  ( 3.223150898267721942, 0.1500000000000000500, -0.9145000026771710200 ) ) ;
#179 = DIRECTION ( 'NONE',  ( -0.000000000000000000, -0.000000000000000000, 1.000000000000000000 ) ) ;
#180 = ORIENTED_EDGE ( 'NONE', *, *, #97, .T. ) ;
#181 = EDGE_CURVE ( 'NONE', #564, #105, #314, .T. ) ;
#182 = FACE_OUTER_BOUND ( 'NONE', #276, .T. ) ;
#183 = AXIS2_PLACEMENT_3D ( 'NONE', #26, #453, #368 ) ;
#184 = CARTESIAN_POINT ( 'NONE',  ( 2.305954304611272487, 2.565061936357496464, -0.1250000000000000000 ) ) ;
#185 = ORIENTED_EDGE ( 'NONE', *, *, #114, .T. ) ;
#186 = DIRECTION ( 'NONE',  ( 0.000000000000000000, -1.000000000000000000, 0.000000000000000000 ) ) ;
#187 = EDGE_LOOP ( 'NONE', ( #943, #431 ) ) ;
#188 = ORIENTED_EDGE ( 'NONE', *, *, #1099, .T. ) ;
#189 = DIRECTION ( 'NONE',  ( 9.106159978880879367E-16, -1.000000000000000000, 0.000000000000000000 ) ) ;
#190 = DIRECTION ( 'NONE',  ( -1.000000000000000000, 0.000000000000000000, 0.000000000000000000 ) ) ;
#191 = CIRCLE ( 'NONE', #342, 0.3614178643972082439 ) ;
#192 = CARTESIAN_POINT ( 'NONE',  ( 2.299852264000778579, 2.203695587888485186, 0.1250000000000000000 ) ) ;
#193 = PRODUCT_CONTEXT ( 'NONE', #364, 'mechanical' ) ;
#194 = ORIENTED_EDGE ( 'NONE', *, *, #922, .F. ) ;
#195 = DIRECTION ( 'NONE',  ( -0.000000000000000000, -0.000000000000000000, -1.000000000000000000 ) ) ;
#196 = EDGE_CURVE ( 'NONE', #444, #437, #92, .T. ) ;
#197 = DIRECTION ( 'NONE',  ( 0.000000000000000000, -0.000000000000000000, 1.000000000000000000 ) ) ;
#198 =( LENGTH_UNIT ( ) NAMED_UNIT ( * ) SI_UNIT ( $, .METRE. ) );
#199 = CARTESIAN_POINT ( 'NONE',  ( 2.097943323132557492, 1.903936263925223304, 0.1250000000000000000 ) ) ;
#200 = CARTESIAN_POINT ( 'NONE',  ( 1.022363496692916263, 0.1500000000000000777, -0.6610000026771732928 ) ) ;
#201 = EDGE_CURVE ( 'NONE', #1138, #721, #932, .T. ) ;
#202 = CARTESIAN_POINT ( 'NONE',  ( 3.223150898267721942, 0.1500000000000002998, -0.9145000026771710200 ) ) ;
#203 = DIRECTION ( 'NONE',  ( 0.000000000000000000, 1.242251007628252106E-16, 1.000000000000000000 ) ) ;
#204 = CARTESIAN_POINT ( 'NONE',  ( 3.604600000000000026, 0.1500000000000001055, -1.362000000000000322 ) ) ;
#205 = DIRECTION ( 'NONE',  ( -9.106159978880879367E-16, 1.000000000000000000, -0.000000000000000000 ) ) ;
#206 = CARTESIAN_POINT ( 'NONE',  ( 3.504599999999999937, 0.1500000000000001610, -0.2249999999999999778 ) ) ;
#207 = EDGE_CURVE ( 'NONE', #774, #1044, #900, .T. ) ;
#208 = CARTESIAN_POINT ( 'NONE',  ( 3.563178643762690445, 0.1499999999999999944, -1.362000000000000766 ) ) ;
#209 = ORIENTED_EDGE ( 'NONE', *, *, #46, .F. ) ;
#210 = AXIS2_PLACEMENT_3D ( 'NONE', #104, #647, #376 ) ;
#211 = ADVANCED_FACE ( 'NONE', ( #539 ), #443, .F. ) ;
#212 = FACE_OUTER_BOUND ( 'NONE', #1095, .T. ) ;
#213 = DIRECTION ( 'NONE',  ( 0.000000000000000000, 1.242251007628252106E-16, 1.000000000000000000 ) ) ;
#214 = EDGE_LOOP ( 'NONE', ( #71, #490, #153, #801, #220, #67, #406, #526, #920 ) ) ;
#215 = VECTOR ( 'NONE', #186, 39.37007874015748143 ) ;
#216 = CARTESIAN_POINT ( 'NONE',  ( 0.3557000000000002382, -0.1179999999999999660, -1.362000000000000322 ) ) ;
#217 = CARTESIAN_POINT ( 'NONE',  ( 2.299852264000778579, 2.203695587888485186, 0.000000000000000000 ) ) ;
#218 = ADVANCED_FACE ( 'NONE', ( #1073 ), #620, .F. ) ;
#219 = AXIS2_PLACEMENT_3D ( 'NONE', #714, #522, #783 ) ;
#220 = ORIENTED_EDGE ( 'NONE', *, *, #256, .F. ) ;
#221 = VECTOR ( 'NONE', #422, 39.37007874015748143 ) ;
#222 = LINE ( 'NONE', #131, #867 ) ;
#223 = CARTESIAN_POINT ( 'NONE',  ( 2.456352264000777108, 2.203695587888485186, 0.000000000000000000 ) ) ;
#224 = EDGE_CURVE ( 'NONE', #21, #754, #25, .T. ) ;
#225 = ORIENTED_EDGE ( 'NONE', *, *, #207, .F. ) ;
#226 = VERTEX_POINT ( 'NONE', #918 ) ;
#227 = VERTEX_POINT ( 'NONE', #206 ) ;
#228 = DIRECTION ( 'NONE',  ( -0.000000000000000000, -0.000000000000000000, -1.000000000000000000 ) ) ;
#229 = CARTESIAN_POINT ( 'NONE',  ( 0.8983134668821127766, 0.7211532264278484039, 0.1250000000000000000 ) ) ;
#230 = CARTESIAN_POINT ( 'NONE',  ( 3.504599999999999937, 0.2500000000000002220, -0.2249999999999999778 ) ) ;
#231 =( BOUNDED_CURVE ( )  B_SPLINE_CURVE ( 3, ( #307, #561, #848, #667 ),
 .UNSPECIFIED., .F., .F. ) 
 B_SPLINE_CURVE_WITH_KNOTS ( ( 4, 4 ),
 ( 4.712388980384692339, 6.283185307179586232 ),
 .UNSPECIFIED. ) 
 CURVE ( )  GEOMETRIC_REPRESENTATION_ITEM ( )  RATIONAL_B_SPLINE_CURVE ( ( 1.000000000000000000, 0.8047378541243654926, 0.8047378541243654926, 1.000000000000000000 ) ) 
 REPRESENTATION_ITEM ( '' )  );
#232 = ORIENTED_EDGE ( 'NONE', *, *, #1019, .T. ) ;
#233 = ORIENTED_EDGE ( 'NONE', *, *, #22, .F. ) ;
#234 = DIRECTION ( 'NONE',  ( 0.000000000000000000, 1.347065085633266536E-16, 1.000000000000000000 ) ) ;
#235 = ORIENTED_EDGE ( 'NONE', *, *, #436, .F. ) ;
#236 = FACE_OUTER_BOUND ( 'NONE', #1110, .T. ) ;
#237 = CARTESIAN_POINT ( 'NONE',  ( 2.299852264000778579, 2.203695587888485186, -0.1250000000000000000 ) ) ;
#238 = CIRCLE ( 'NONE', #1144, 0.2654999999999999583 ) ;
#239 = VERTEX_POINT ( 'NONE', #461 ) ;
#240 = CARTESIAN_POINT ( 'NONE',  ( 3.854600000000000026, 0.000000000000000000, 0.000000000000000000 ) ) ;
#241 = EDGE_CURVE ( 'NONE', #862, #693, #459, .T. ) ;
#242 = ORIENTED_EDGE ( 'NONE', *, *, #880, .T. ) ;
#243 = DIRECTION ( 'NONE',  ( 0.000000000000000000, 0.000000000000000000, 1.000000000000000000 ) ) ;
#244 = AXIS2_PLACEMENT_3D ( 'NONE', #836, #1022, #556 ) ;
#245 = CIRCLE ( 'NONE', #600, 0.3614178643971866500 ) ;
#246 = CARTESIAN_POINT ( 'NONE',  ( 5.120298621315516385, 0.1500000000000000222, -1.362000000000000099 ) ) ;
#247 = LINE ( 'NONE', #794, #108 ) ;
#248 = ADVANCED_FACE ( 'NONE', ( #1013 ), #585, .F. ) ;
#249 = LINE ( 'NONE', #229, #597 ) ;
#250 = VECTOR ( 'NONE', #518, 39.37007874015748143 ) ;
#251 = CARTESIAN_POINT ( 'NONE',  ( 1.022363496692916263, 0.02012340682474842574, -0.7739000026771732932 ) ) ;
#252 = ORIENTED_EDGE ( 'NONE', *, *, #768, .T. ) ;
#253 = LINE ( 'NONE', #83, #725 ) ;
#254 = ORIENTED_EDGE ( 'NONE', *, *, #165, .T. ) ;
#255 = CARTESIAN_POINT ( 'NONE',  ( 0.1982000000000000983, 0.1500000000000001887, -0.1250000000000000000 ) ) ;
#256 = EDGE_CURVE ( 'NONE', #410, #974, #656, .T. ) ;
#257 = CYLINDRICAL_SURFACE ( 'NONE', #906, 0.1565000000000000835 ) ;
#258 = FACE_OUTER_BOUND ( 'NONE', #824, .T. ) ;
#259 = CYLINDRICAL_SURFACE ( 'NONE', #1148, 0.1000000000000000194 ) ;
#260 = VECTOR ( 'NONE', #142, 39.37007874015748143 ) ;
#261 = AXIS2_PLACEMENT_3D ( 'NONE', #732, #195, #543 ) ;
#262 = CARTESIAN_POINT ( 'NONE',  ( 3.604600000000000026, 0.000000000000000000, -0.2249999999999999778 ) ) ;
#263 = ADVANCED_FACE ( 'NONE', ( #827, #1094 ), #20, .F. ) ;
#264 = VERTEX_POINT ( 'NONE', #745 ) ;
#265 = LENGTH_MEASURE_WITH_UNIT ( LENGTH_MEASURE( 0.02539999999999999897 ), #198 );
#266 = CARTESIAN_POINT ( 'NONE',  ( 2.299852264000778579, 2.203695587888485186, -0.1250000000000000000 ) ) ;
#267 = CIRCLE ( 'NONE', #365, 0.1565000000000000835 ) ;
#268 = CARTESIAN_POINT ( 'NONE',  ( 3.223150898267721942, 0.1500000000000000777, -0.9145000026771710200 ) ) ;
#269 = ORIENTED_EDGE ( 'NONE', *, *, #478, .T. ) ;
#270 = LINE ( 'NONE', #109, #1016 ) ;
#271 = ORIENTED_EDGE ( 'NONE', *, *, #880, .F. ) ;
#272 = CARTESIAN_POINT ( 'NONE',  ( 0.1982000000000000983, 5.488484495316622790E-23, 0.000000000000000000 ) ) ;
#273 = CARTESIAN_POINT ( 'NONE',  ( 0.1982000000000000983, 0.2500000000000002220, -0.1250000000000000000 ) ) ;
#274 = ORIENTED_EDGE ( 'NONE', *, *, #1005, .F. ) ;
#275 = CARTESIAN_POINT ( 'NONE',  ( 5.120298621315516385, 0.1500000000000001887, -0.1250000000000000000 ) ) ;
#276 = EDGE_LOOP ( 'NONE', ( #148, #377, #851, #682, #188 ) ) ;
#277 = CARTESIAN_POINT ( 'NONE',  ( 1.022363496692916263, 0.02012340682474839104, -1.055100002677173299 ) ) ;
#278 = EDGE_LOOP ( 'NONE', ( #532, #1058, #615, #513 ) ) ;
#279 = DIRECTION ( 'NONE',  ( 0.000000000000000000, 1.000000000000000000, 0.000000000000000000 ) ) ;
#280 = ADVANCED_FACE ( 'NONE', ( #1106 ), #119, .T. ) ;
#281 = AXIS2_PLACEMENT_3D ( 'NONE', #881, #161, #353 ) ;
#282 = AXIS2_PLACEMENT_3D ( 'NONE', #107, #179, #366 ) ;
#283 = AXIS2_PLACEMENT_3D ( 'NONE', #85, #718, #899 ) ;
#284 = DIRECTION ( 'NONE',  ( -1.000000000000000000, 0.000000000000000000, 0.000000000000000000 ) ) ;
#285 = ORIENTED_EDGE ( 'NONE', *, *, #39, .F. ) ;
#286 = ORIENTED_EDGE ( 'NONE', *, *, #701, .F. ) ;
#287 = DIRECTION ( 'NONE',  ( 0.000000000000000000, -1.000000000000000000, 1.242251007628252106E-16 ) ) ;
#288 = ADVANCED_FACE ( 'NONE', ( #741 ), #993, .F. ) ;
#289 = DIRECTION ( 'NONE',  ( 0.000000000000000000, 1.347065085633266536E-16, 1.000000000000000000 ) ) ;
#290 = DIRECTION ( 'NONE',  ( 1.000000000000000000, -0.000000000000000000, -0.000000000000000000 ) ) ;
#291 = DIRECTION ( 'NONE',  ( 0.000000000000000000, 1.242251007628252352E-16, 1.000000000000000000 ) ) ;
#292 = CARTESIAN_POINT ( 'NONE',  ( 3.854600000000000026, 2.565061936357496464, 0.000000000000000000 ) ) ;
#293 = EDGE_CURVE ( 'NONE', #1114, #140, #819, .T. ) ;
#294 = DIRECTION ( 'NONE',  ( 0.000000000000000000, 1.000000000000000000, 0.000000000000000000 ) ) ;
#295 = LINE ( 'NONE', #204, #155 ) ;
#296 = DIRECTION ( 'NONE',  ( -0.000000000000000000, -1.000000000000000000, -0.000000000000000000 ) ) ;
#297 = DIRECTION ( 'NONE',  ( -0.000000000000000000, 1.000000000000000000, -1.242251007628252106E-16 ) ) ;
#298 = ORIENTED_EDGE ( 'NONE', *, *, #174, .F. ) ;
#299 = EDGE_CURVE ( 'NONE', #786, #592, #1018, .T. ) ;
#300 = AXIS2_PLACEMENT_3D ( 'NONE', #990, #1086, #189 ) ;
#301 = ADVANCED_FACE ( 'NONE', ( #468, #645, #813 ), #10, .F. ) ;
#302 = AXIS2_PLACEMENT_3D ( 'NONE', #28, #743, #554 ) ;
#303 = CARTESIAN_POINT ( 'NONE',  ( 1.454277664564902706, 0.9483332983461802979, -0.1250000000000000000 ) ) ;
#304 = DIRECTION ( 'NONE',  ( -0.000000000000000000, -1.242251007628252106E-16, -1.000000000000000000 ) ) ;
#305 = CARTESIAN_POINT ( 'NONE',  ( 0.8983134668821122215, 0.7211532264278485149, 0.000000000000000000 ) ) ;
#306 = VECTOR ( 'NONE', #684, 39.37007874015748143 ) ;
#307 = CARTESIAN_POINT ( 'NONE',  ( 3.604600000000000026, 2.369826533256648382, -0.2249999999999996447 ) ) ;
#308 = DIRECTION ( 'NONE',  ( -1.000000000000000000, 0.000000000000000000, 0.000000000000000000 ) ) ;
#309 = ORIENTED_EDGE ( 'NONE', *, *, #834, .T. ) ;
#310 = CARTESIAN_POINT ( 'NONE',  ( 3.697099999999999831, 1.092739197465705287E-15, -1.362000000000000322 ) ) ;
#311 = ADVANCED_FACE ( 'NONE', ( #923 ), #113, .F. ) ;
#312 = DIRECTION ( 'NONE',  ( -0.000000000000000000, -0.000000000000000000, 1.000000000000000000 ) ) ;
#313 = EDGE_LOOP ( 'NONE', ( #405, #859 ) ) ;
#314 = CIRCLE ( 'NONE', #282, 0.3614178643972082439 ) ;
#315 = CARTESIAN_POINT ( 'NONE',  ( 0.3524459121987428278, 0.1661261416341491826, -0.1691244844487812538 ) ) ;
#316 = CIRCLE ( 'NONE', #815, 0.2534999999999998921 ) ;
#317 = FACE_BOUND ( 'NONE', #138, .T. ) ;
#318 = ORIENTED_EDGE ( 'NONE', *, *, #53, .T. ) ;
#319 = PRODUCT_DEFINITION_FORMATION_WITH_SPECIFIED_SOURCE ( 'ANY', '', #812, .NOT_KNOWN. ) ;
#320 = ORIENTED_EDGE ( 'NONE', *, *, #196, .F. ) ;
#321 = ORIENTED_EDGE ( 'NONE', *, *, #1012, .T. ) ;
#322 = EDGE_LOOP ( 'NONE', ( #79, #683, #252, #591 ) ) ;
#323 = FACE_OUTER_BOUND ( 'NONE', #36, .T. ) ;
#324 = ORIENTED_EDGE ( 'NONE', *, *, #706, .F. ) ;
#325 = ORIENTED_EDGE ( 'NONE', *, *, #402, .F. ) ;
#326 = DIRECTION ( 'NONE',  ( 0.000000000000000000, 1.347065085633266536E-16, 1.000000000000000000 ) ) ;
#327 = CARTESIAN_POINT ( 'NONE',  ( 3.854600000000000026, 0.4574957598838364503, -1.204500000000000348 ) ) ;
#328 = EDGE_CURVE ( 'NONE', #623, #661, #985, .T. ) ;
#329 = ORIENTED_EDGE ( 'NONE', *, *, #622, .F. ) ;
#330 = VERTEX_POINT ( 'NONE', #382 ) ;
#331 = CARTESIAN_POINT ( 'NONE',  ( 0.1982000000000000983, 0.1500000000000001610, -0.2249999999999999778 ) ) ;
#332 = ORIENTED_EDGE ( 'NONE', *, *, #62, .T. ) ;
#333 = ORIENTED_EDGE ( 'NONE', *, *, #146, .T. ) ;
#334 = CARTESIAN_POINT ( 'NONE',  ( 2.299852264000778579, 2.203695587888485186, 0.1250000000000000000 ) ) ;
#335 = DIRECTION ( 'NONE',  ( -0.000000000000000000, -0.000000000000000000, -1.000000000000000000 ) ) ;
#336 = EDGE_CURVE ( 'NONE', #728, #227, #838, .T. ) ;
#337 = ORIENTED_EDGE ( 'NONE', *, *, #458, .F. ) ;
#338 = DIRECTION ( 'NONE',  ( -0.000000000000000000, 1.000000000000000000, -1.242251007628252106E-16 ) ) ;
#339 = ORIENTED_EDGE ( 'NONE', *, *, #336, .T. ) ;
#340 = ORIENTED_EDGE ( 'NONE', *, *, #701, .T. ) ;
#341 = CARTESIAN_POINT ( 'NONE',  ( 1.408868723696675707, 0.6485739743829481707, -0.1250000000000000000 ) ) ;
#342 = AXIS2_PLACEMENT_3D ( 'NONE', #217, #571, #49 ) ;
#343 = CARTESIAN_POINT ( 'NONE',  ( 1.776110493848743976, 1.426134781135692364, 0.1250000000000000000 ) ) ;
#344 = CARTESIAN_POINT ( 'NONE',  ( 1.252368723696675623, 0.6485739743829481707, 0.1250000000000000000 ) ) ;
#345 = EDGE_LOOP ( 'NONE', ( #488, #225, #856, #16 ) ) ;
#346 = CYLINDRICAL_SURFACE ( 'NONE', #283, 0.7146723828161395398 ) ;
#347 = ADVANCED_FACE ( 'NONE', ( #909, #1101 ), #1082, .F. ) ;
#348 = SPHERICAL_SURFACE ( 'NONE', #570, 0.1000000000000000056 ) ;
#349 = DIRECTION ( 'NONE',  ( -0.000000000000000000, 1.000000000000000000, -1.242251007628252106E-16 ) ) ;
#350 = DIRECTION ( 'NONE',  ( -1.000000000000000000, 0.000000000000000000, 0.000000000000000000 ) ) ;
#351 = EDGE_CURVE ( 'NONE', #974, #711, #270, .T. ) ;
#352 = EDGE_CURVE ( 'NONE', #693, #576, #751, .T. ) ;
#353 = DIRECTION ( 'NONE',  ( 0.000000000000000000, 0.000000000000000000, 1.000000000000000000 ) ) ;
#354 = VERTEX_POINT ( 'NONE', #1028 ) ;
#355 = FACE_OUTER_BOUND ( 'NONE', #214, .T. ) ;
#356 = CIRCLE ( 'NONE', #1130, 0.3614178643972082439 ) ;
#357 = PRESENTATION_LAYER_ASSIGNMENT (  '', '', ( #538 ) ) ;
#358 = CARTESIAN_POINT ( 'NONE',  ( 1.938434399603570224, 2.203695587888485186, 0.1250000000000000000 ) ) ;
#359 = ORIENTED_EDGE ( 'NONE', *, *, #207, .T. ) ;
#360 = VECTOR ( 'NONE', #471, 39.37007874015748143 ) ;
#361 = DIRECTION ( 'NONE',  ( -0.000000000000000000, 1.000000000000000000, -1.242251007628252106E-16 ) ) ;
#362 = ORIENTED_EDGE ( 'NONE', *, *, #888, .T. ) ;
#363 = FACE_OUTER_BOUND ( 'NONE', #117, .T. ) ;
#364 = APPLICATION_CONTEXT ( 'automotive_design' ) ;
#365 = AXIS2_PLACEMENT_3D ( 'NONE', #616, #823, #1001 ) ;
#366 = DIRECTION ( 'NONE',  ( -1.000000000000000000, 1.511739326012887256E-15, 0.000000000000000000 ) ) ;
#367 = ORIENTED_EDGE ( 'NONE', *, *, #97, .F. ) ;
#368 = DIRECTION ( 'NONE',  ( 0.000000000000000000, -0.8900408142482573171, -0.4558808495345019196 ) ) ;
#369 = ADVANCED_FACE ( 'NONE', ( #43, #38, #934 ), #1100, .F. ) ;
#370 = ORIENTED_EDGE ( 'NONE', *, *, #834, .F. ) ;
#371 = CARTESIAN_POINT ( 'NONE',  ( 3.223150898267721942, 0.1500000000000003553, -0.6490000026771706176 ) ) ;
#372 = ORIENTED_EDGE ( 'NONE', *, *, #632, .T. ) ;
#373 = DIRECTION ( 'NONE',  ( -1.000000000000000000, 0.000000000000000000, -0.000000000000000000 ) ) ;
#374 = DIRECTION ( 'NONE',  ( -0.000000000000000000, -0.000000000000000000, -1.000000000000000000 ) ) ;
#375 = EDGE_LOOP ( 'NONE', ( #994, #486, #359 ) ) ;
#376 = DIRECTION ( 'NONE',  ( 0.000000000000000000, 1.084066664152485158E-16, 1.000000000000000000 ) ) ;
#377 = ORIENTED_EDGE ( 'NONE', *, *, #241, .T. ) ;
#378 = CARTESIAN_POINT ( 'NONE',  ( 1.022363496692916263, -1.365923996832131609E-16, -0.9145000026771732404 ) ) ;
#379 = VECTOR ( 'NONE', #75, 39.37007874015748143 ) ;
#380 = CIRCLE ( 'NONE', #737, 0.5760821356028134055 ) ;
#381 = CIRCLE ( 'NONE', #1039, 0.1406000000000001415 ) ;
#382 = CARTESIAN_POINT ( 'NONE',  ( 0.8983134668821127766, 0.7211532264278484039, -0.1250000000000000000 ) ) ;
#383 = DIRECTION ( 'NONE',  ( 9.106159978880879367E-16, -1.000000000000000000, 0.000000000000000000 ) ) ;
#384 = EDGE_CURVE ( 'NONE', #576, #354, #925, .T. ) ;
#385 = CARTESIAN_POINT ( 'NONE',  ( 1.022363496692916263, 0.02012340682474840839, -0.9145000026771732404 ) ) ;
#386 = DIRECTION ( 'NONE',  ( 0.000000000000000000, 1.242251007628252106E-16, 1.000000000000000000 ) ) ;
#387 = LINE ( 'NONE', #831, #660 ) ;
#388 =( NAMED_UNIT ( * ) PLANE_ANGLE_UNIT ( ) SI_UNIT ( $, .RADIAN. ) );
#389 = DIRECTION ( 'NONE',  ( -0.000000000000000000, 1.000000000000000000, -1.242251007628252106E-16 ) ) ;
#390 = EDGE_CURVE ( 'NONE', #891, #1066, #837, .T. ) ;
#391 = ORIENTED_EDGE ( 'NONE', *, *, #545, .F. ) ;
#392 = DIRECTION ( 'NONE',  ( 9.106159978880879367E-16, -1.000000000000000000, 0.000000000000000000 ) ) ;
#393 = DIRECTION ( 'NONE',  ( 1.000000000000000000, 0.000000000000000000, 0.000000000000000000 ) ) ;
#394 = ORIENTED_EDGE ( 'NONE', *, *, #407, .T. ) ;
#395 = AXIS2_PLACEMENT_3D ( 'NONE', #872, #243, #954 ) ;
#396 = AXIS2_PLACEMENT_3D ( 'NONE', #565, #408, #844 ) ;
#397 = DIRECTION ( 'NONE',  ( 0.000000000000000000, -1.000000000000000000, 0.000000000000000000 ) ) ;
#398 = CARTESIAN_POINT ( 'NONE',  ( 1.022363496692916263, 0.02012340682474840839, -0.9145000026771732404 ) ) ;
#399 = DIMENSIONAL_EXPONENTS ( 1.000000000000000000, 0.000000000000000000, 0.000000000000000000, 0.000000000000000000, 0.000000000000000000, 0.000000000000000000, 0.000000000000000000 ) ;
#400 = ORIENTED_EDGE ( 'NONE', *, *, #706, .T. ) ;
#401 = EDGE_CURVE ( 'NONE', #499, #693, #1118, .T. ) ;
#402 = EDGE_CURVE ( 'NONE', #354, #93, #594, .T. ) ;
#403 = SURFACE_SIDE_STYLE ('',( #127 ) ) ;
#404 = CARTESIAN_POINT ( 'NONE',  ( 1.022363496692916263, 0.1500000000000000500, -0.9145000026771732404 ) ) ;
#405 = ORIENTED_EDGE ( 'NONE', *, *, #53, .F. ) ;
#406 = ORIENTED_EDGE ( 'NONE', *, *, #181, .T. ) ;
#407 = EDGE_CURVE ( 'NONE', #227, #354, #1112, .T. ) ;
#408 = DIRECTION ( 'NONE',  ( -0.000000000000000000, -0.000000000000000000, -1.000000000000000000 ) ) ;
#409 = CARTESIAN_POINT ( 'NONE',  ( 1.252368723696675623, 0.6485739743829481707, -0.1250000000000000000 ) ) ;
#410 = VERTEX_POINT ( 'NONE', #292 ) ;
#411 = VECTOR ( 'NONE', #205, 39.37007874015748143 ) ;
#412 = ORIENTED_EDGE ( 'NONE', *, *, #587, .T. ) ;
#413 = DIRECTION ( 'NONE',  ( 0.000000000000000000, 0.000000000000000000, -1.000000000000000000 ) ) ;
#414 = CIRCLE ( 'NONE', #63, 0.1575000000000000289 ) ;
#415 = CARTESIAN_POINT ( 'NONE',  ( 3.223150898267721942, 0.1500000000000000777, -0.6610000026771711834 ) ) ;
#416 = EDGE_CURVE ( 'NONE', #958, #735, #567, .T. ) ;
#417 = DIRECTION ( 'NONE',  ( -0.000000000000000000, -0.000000000000000000, -1.000000000000000000 ) ) ;
#418 = AXIS2_PLACEMENT_3D ( 'NONE', #692, #605, #512 ) ;
#419 = CARTESIAN_POINT ( 'NONE',  ( 0.2059519683426887515, 0.1499999999999999944, -0.2221002681061875483 ) ) ;
#420 = CARTESIAN_POINT ( 'NONE',  ( 3.854600000000000026, 0.2773689141161057581, -1.296761363926237864 ) ) ;
#421 = EDGE_CURVE ( 'NONE', #1138, #50, #698, .T. ) ;
#422 = DIRECTION ( 'NONE',  ( -0.000000000000000000, -0.000000000000000000, -1.000000000000000000 ) ) ;
#423 = CARTESIAN_POINT ( 'NONE',  ( 3.604600000000000026, 2.369826533256648382, -0.2249999999999996447 ) ) ;
#424 = EDGE_LOOP ( 'NONE', ( #550, #1030 ) ) ;
#425 = VERTEX_POINT ( 'NONE', #1103 ) ;
#426 = CARTESIAN_POINT ( 'NONE',  ( 2.456352264000777108, 2.203695587888485186, 0.1250000000000000000 ) ) ;
#427 = FACE_OUTER_BOUND ( 'NONE', #882, .T. ) ;
#428 = CLOSED_SHELL ( 'NONE', ( #961, #1152, #528, #288, #98, #311, #739, #369, #263, #211, #301, #651, #952, #89, #566, #898, #748, #613, #59, #846, #553, #1068, #347, #280, #979, #128, #674, #766, #485, #642, #29, #841, #218, #248, #784, #969 ) ) ;
#429 = EDGE_CURVE ( 'NONE', #811, #627, #120, .T. ) ;
#430 = CARTESIAN_POINT ( 'NONE',  ( 0.000000000000000000, 2.565061936357496464, -0.1250000000000000000 ) ) ;
#431 = ORIENTED_EDGE ( 'NONE', *, *, #713, .F. ) ;
#432 = CARTESIAN_POINT ( 'NONE',  ( 0.1982000000000000983, 0.1500000000000001610, -0.2249999999999999778 ) ) ;
#433 = CARTESIAN_POINT ( 'NONE',  ( 3.604600000000000026, 0.2500000000000000000, -1.310779781529508581 ) ) ;
#434 = ORIENTED_EDGE ( 'NONE', *, *, #873, .T. ) ;
#435 = CARTESIAN_POINT ( 'NONE',  ( 0.4136001197919673134, 0.1830411124474536910, -0.1504306289827539445 ) ) ;
#436 = EDGE_CURVE ( 'NONE', #958, #425, #655, .T. ) ;
#437 = VERTEX_POINT ( 'NONE', #474 ) ;
#438 = DIRECTION ( 'NONE',  ( 0.000000000000000000, 0.000000000000000000, -1.000000000000000000 ) ) ;
#439 = VECTOR ( 'NONE', #290, 39.37007874015748143 ) ;
#440 = DIRECTION ( 'NONE',  ( -0.000000000000000000, 1.000000000000000000, -1.242251007628252106E-16 ) ) ;
#441 = AXIS2_PLACEMENT_3D ( 'NONE', #275, #15, #832 ) ;
#442 = CARTESIAN_POINT ( 'NONE',  ( 3.223150898267721942, 0.1499999999999999944, -1.168000002677170857 ) ) ;
#443 = PLANE ( 'NONE',  #1146 ) ;
#444 = VERTEX_POINT ( 'NONE', #466 ) ;
#445 = CARTESIAN_POINT ( 'NONE',  ( 3.223150898267721942, 0.1500000000000000777, -0.9145000026771710200 ) ) ;
#446 = DIRECTION ( 'NONE',  ( 1.000000000000000000, 0.000000000000000000, 0.000000000000000000 ) ) ;
#447 = DIRECTION ( 'NONE',  ( -1.000000000000000000, 0.000000000000000000, 0.000000000000000000 ) ) ;
#448 = AXIS2_PLACEMENT_3D ( 'NONE', #334, #1043, #489 ) ;
#449 = EDGE_CURVE ( 'NONE', #227, #444, #498, .T. ) ;
#450 = AXIS2_PLACEMENT_3D ( 'NONE', #1098, #203, #287 ) ;
#451 = CARTESIAN_POINT ( 'NONE',  ( 3.854600000000000026, 0.000000000000000000, 0.1250000000000000000 ) ) ;
#452 = ORIENTED_EDGE ( 'NONE', *, *, #978, .T. ) ;
#453 = DIRECTION ( 'NONE',  ( 0.000000000000000000, 0.4558808495345019196, -0.8900408142482573171 ) ) ;
#454 = CARTESIAN_POINT ( 'NONE',  ( 0.1981999999999989048, 0.8646723828161393399, -0.1250000000000000000 ) ) ;
#455 = ORIENTED_EDGE ( 'NONE', *, *, #1061, .F. ) ;
#456 = LINE ( 'NONE', #984, #172 ) ;
#457 = CIRCLE ( 'NONE', #418, 0.3614178643971866500 ) ;
#458 = EDGE_CURVE ( 'NONE', #50, #1138, #136, .T. ) ;
#459 = LINE ( 'NONE', #734, #170 ) ;
#460 = DIRECTION ( 'NONE',  ( 0.000000000000000000, 1.214370551948907933E-16, 1.000000000000000000 ) ) ;
#461 = CARTESIAN_POINT ( 'NONE',  ( 0.3557000000000002382, 0.000000000000000000, -1.362000000000000322 ) ) ;
#462 = CARTESIAN_POINT ( 'NONE',  ( 0.1981999999999999595, 0.1500000000000003553, 0.1250000000000000000 ) ) ;
#463 = EDGE_CURVE ( 'NONE', #105, #627, #191, .T. ) ;
#464 = DIRECTION ( 'NONE',  ( -0.000000000000000000, 1.000000000000000000, -1.242251007628252106E-16 ) ) ;
#465 = AXIS2_PLACEMENT_3D ( 'NONE', #268, #8, #810 ) ;
#466 = CARTESIAN_POINT ( 'NONE',  ( 3.504599999999999937, 0.2500000000000002220, -0.1250000000000000000 ) ) ;
#467 = VECTOR ( 'NONE', #304, 39.37007874015748143 ) ;
#468 = FACE_BOUND ( 'NONE', #102, .T. ) ;
#469 = AXIS2_PLACEMENT_3D ( 'NONE', #192, #374, #284 ) ;
#470 = FACE_OUTER_BOUND ( 'NONE', #169, .T. ) ;
#471 = DIRECTION ( 'NONE',  ( 0.000000000000000000, 1.000000000000000000, 0.000000000000000000 ) ) ;
#472 = ORIENTED_EDGE ( 'NONE', *, *, #768, .F. ) ;
#473 = CARTESIAN_POINT ( 'NONE',  ( 1.095868723696675540, 0.6485739743829481707, -0.1250000000000000000 ) ) ;
#474 = CARTESIAN_POINT ( 'NONE',  ( 0.5628018054854194707, 0.2500000000000002220, -0.1250000000000000000 ) ) ;
#475 = ORIENTED_EDGE ( 'NONE', *, *, #165, .F. ) ;
#476 = DIRECTION ( 'NONE',  ( 0.000000000000000000, 0.000000000000000000, 1.000000000000000000 ) ) ;
#477 = DIRECTION ( 'NONE',  ( -0.000000000000000000, 1.000000000000000000, -1.242251007628252106E-16 ) ) ;
#478 = EDGE_CURVE ( 'NONE', #484, #721, #316, .T. ) ;
#479 = CARTESIAN_POINT ( 'NONE',  ( 1.022363496692916263, 0.1500000000000000777, -0.7739000026771732932 ) ) ;
#480 = AXIS2_PLACEMENT_3D ( 'NONE', #687, #514, #583 ) ;
#481 = VECTOR ( 'NONE', #122, 39.37007874015748143 ) ;
#482 = LINE ( 'NONE', #216, #1113 ) ;
#483 = DIRECTION ( 'NONE',  ( 6.276959979136479370E-47, -6.893092141686598532E-32, 1.000000000000000000 ) ) ;
#484 = VERTEX_POINT ( 'NONE', #200 ) ;
#485 = ADVANCED_FACE ( 'NONE', ( #658 ), #118, .F. ) ;
#486 = ORIENTED_EDGE ( 'NONE', *, *, #1031, .T. ) ;
#487 = CARTESIAN_POINT ( 'NONE',  ( 3.697099999999999831, 0.000000000000000000, -1.204500000000000348 ) ) ;
#488 = ORIENTED_EDGE ( 'NONE', *, *, #915, .F. ) ;
#489 = DIRECTION ( 'NONE',  ( -1.000000000000000000, 0.000000000000000000, 0.000000000000000000 ) ) ;
#490 = ORIENTED_EDGE ( 'NONE', *, *, #224, .T. ) ;
#491 = ORIENTED_EDGE ( 'NONE', *, *, #858, .T. ) ;
#492 = ORIENTED_EDGE ( 'NONE', *, *, #7, .F. ) ;
#493 = CARTESIAN_POINT ( 'NONE',  ( 0.2137884868094460100, 0.1501277250903934324, -0.2191689101248859572 ) ) ;
#494 = EDGE_CURVE ( 'NONE', #1096, #444, #931, .T. ) ;
#495 = DIRECTION ( 'NONE',  ( -0.000000000000000000, -0.000000000000000000, -1.000000000000000000 ) ) ;
#496 = CARTESIAN_POINT ( 'NONE',  ( 3.854600000000000026, 2.565061936357496464, 0.1250000000000000000 ) ) ;
#497 = PRODUCT_DEFINITION_CONTEXT ( 'detailed design', #559, 'design' ) ;
#498 = CIRCLE ( 'NONE', #1074, 0.1000000000000000056 ) ;
#499 = VERTEX_POINT ( 'NONE', #1128 ) ;
#500 = EDGE_LOOP ( 'NONE', ( #1135, #953, #1049, #992, #808, #185, #572 ) ) ;
#501 = CARTESIAN_POINT ( 'NONE',  ( 0.2757224812715400319, 0.1540476991430582421, -0.1962298499015924236 ) ) ;
#502 = EDGE_LOOP ( 'NONE', ( #1150, #1025, #758, #235, #877 ) ) ;
#503 = EDGE_CURVE ( 'NONE', #592, #901, #981, .T. ) ;
#504 = CARTESIAN_POINT ( 'NONE',  ( 2.299852264000778579, 2.203695587888485186, 0.1250000000000000000 ) ) ;
#505 = CARTESIAN_POINT ( 'NONE',  ( 1.454277664564902706, 0.9483332983461802979, 0.1250000000000000000 ) ) ;
#506 = VECTOR ( 'NONE', #58, 39.37007874015748143 ) ;
#507 = ORIENTED_EDGE ( 'NONE', *, *, #713, .T. ) ;
#508 = ORIENTED_EDGE ( 'NONE', *, *, #942, .T. ) ;
#509 = CARTESIAN_POINT ( 'NONE',  ( 3.504599999999999937, 0.2500000000000002220, -0.2249999999999999778 ) ) ;
#510 = FACE_OUTER_BOUND ( 'NONE', #971, .T. ) ;
#511 = LINE ( 'NONE', #1149, #80 ) ;
#512 = DIRECTION ( 'NONE',  ( -1.000000000000000000, 0.000000000000000000, 0.000000000000000000 ) ) ;
#513 = ORIENTED_EDGE ( 'NONE', *, *, #146, .F. ) ;
#514 = DIRECTION ( 'NONE',  ( -0.000000000000000000, 1.000000000000000000, -1.242251007628252106E-16 ) ) ;
#515 = CARTESIAN_POINT ( 'NONE',  ( 1.252368723696675623, 0.6485739743829481707, 0.1250000000000000000 ) ) ;
#516 = AXIS2_PLACEMENT_3D ( 'NONE', #343, #697, #64 ) ;
#517 = VECTOR ( 'NONE', #818, 39.37007874015748143 ) ;
#518 = DIRECTION ( 'NONE',  ( -1.000000000000000000, 0.000000000000000000, 0.000000000000000000 ) ) ;
#519 = ORIENTED_EDGE ( 'NONE', *, *, #586, .F. ) ;
#520 = DIRECTION ( 'NONE',  ( -0.000000000000000000, -0.000000000000000000, -1.000000000000000000 ) ) ;
#521 = AXIS2_PLACEMENT_3D ( 'NONE', #842, #389, #137 ) ;
#522 = DIRECTION ( 'NONE',  ( -0.000000000000000000, 1.000000000000000000, -1.242251007628252106E-16 ) ) ;
#523 = CARTESIAN_POINT ( 'NONE',  ( 1.022363496692916263, 0.1499999999999999944, -1.168000002677173077 ) ) ;
#524 = DIRECTION ( 'NONE',  ( -1.000000000000000000, 0.000000000000000000, 0.000000000000000000 ) ) ;
#525 = ORIENTED_EDGE ( 'NONE', *, *, #1052, .F. ) ;
#526 = ORIENTED_EDGE ( 'NONE', *, *, #463, .T. ) ;
#527 = DIRECTION ( 'NONE',  ( 8.034405899049456264E-17, 0.7547095802227716810, -0.6560590289905076089 ) ) ;
#528 = ADVANCED_FACE ( 'NONE', ( #775 ), #849, .F. ) ;
#529 = LINE ( 'NONE', #358, #886 ) ;
#530 = ORIENTED_EDGE ( 'NONE', *, *, #46, .T. ) ;
#531 = CARTESIAN_POINT ( 'NONE',  ( 3.223150898267721942, 0.1500000000000000500, -0.9145000026771710200 ) ) ;
#532 = ORIENTED_EDGE ( 'NONE', *, *, #631, .F. ) ;
#533 = CARTESIAN_POINT ( 'NONE',  ( 1.022363496692916263, 0.1500000000000000777, -0.9145000026771732404 ) ) ;
#534 = ORIENTED_EDGE ( 'NONE', *, *, #1083, .T. ) ;
#535 = DIRECTION ( 'NONE',  ( -0.000000000000000000, -0.000000000000000000, 1.000000000000000000 ) ) ;
#536 = EDGE_CURVE ( 'NONE', #635, #1122, #1136, .T. ) ;
#537 = AXIS2_PLACEMENT_3D ( 'NONE', #885, #81, #761 ) ;
#538 = STYLED_ITEM ( 'NONE', ( #1108 ), #936 ) ;
#539 = FACE_OUTER_BOUND ( 'NONE', #779, .T. ) ;
#540 = CARTESIAN_POINT ( 'NONE',  ( 5.120298621315516385, 0.1500000000000001887, -0.1250000000000000000 ) ) ;
#541 = CARTESIAN_POINT ( 'NONE',  ( 5.120298621315516385, -0.1180000000000000909, -1.362000000000000322 ) ) ;
#542 = ORIENTED_EDGE ( 'NONE', *, *, #160, .F. ) ;
#543 = DIRECTION ( 'NONE',  ( -1.000000000000000000, 0.000000000000000000, 0.000000000000000000 ) ) ;
#544 = AXIS2_PLACEMENT_3D ( 'NONE', #533, #349, #982 ) ;
#545 = EDGE_CURVE ( 'NONE', #681, #623, #860, .T. ) ;
#546 = DIRECTION ( 'NONE',  ( -0.000000000000000000, 1.000000000000000000, -1.242251007628252106E-16 ) ) ;
#547 =( NAMED_UNIT ( * ) PLANE_ANGLE_UNIT ( ) SI_UNIT ( $, .RADIAN. ) );
#548 = ORIENTED_EDGE ( 'NONE', *, *, #632, .F. ) ;
#549 = CARTESIAN_POINT ( 'NONE',  ( 1.022363496692916263, 0.1500000000000000777, -0.9145000026771732404 ) ) ;
#550 = ORIENTED_EDGE ( 'NONE', *, *, #478, .F. ) ;
#551 = CARTESIAN_POINT ( 'NONE',  ( 3.604600000000000026, 0.2500000000000000000, -1.310779781529508581 ) ) ;
#552 = DIRECTION ( 'NONE',  ( -0.000000000000000000, 1.000000000000000000, -1.242251007628252106E-16 ) ) ;
#553 = ADVANCED_FACE ( 'NONE', ( #164, #317, #236 ), #782, .F. ) ;
#554 = DIRECTION ( 'NONE',  ( -1.000000000000000000, 0.000000000000000000, 0.000000000000000000 ) ) ;
#555 =( LENGTH_UNIT ( ) NAMED_UNIT ( * ) SI_UNIT ( $, .METRE. ) );
#556 = DIRECTION ( 'NONE',  ( 0.000000000000000000, 0.000000000000000000, 1.000000000000000000 ) ) ;
#557 = CIRCLE ( 'NONE', #61, 0.2534999999999998921 ) ;
#558 = AXIS2_PLACEMENT_3D ( 'NONE', #52, #939, #750 ) ;
#559 = APPLICATION_CONTEXT ( 'automotive_design' ) ;
#560 = EDGE_LOOP ( 'NONE', ( #339, #394, #911, #795, #787 ) ) ;
#561 = CARTESIAN_POINT ( 'NONE',  ( 3.604600000000000470, 2.484192784537746945, -0.1664213562373093591 ) ) ;
#562 = CARTESIAN_POINT ( 'NONE',  ( 0.1982000000000000983, 1.804840907814190422E-16, -0.1250000000000000000 ) ) ;
#563 = AXIS2_PLACEMENT_3D ( 'NONE', #966, #1139, #413 ) ;
#564 = VERTEX_POINT ( 'NONE', #968 ) ;
#565 = CARTESIAN_POINT ( 'NONE',  ( 1.252368723696675623, 0.6485739743829481707, -0.1250000000000000000 ) ) ;
#566 = ADVANCED_FACE ( 'NONE', ( #154 ), #150, .T. ) ;
#567 = LINE ( 'NONE', #562, #717 ) ;
#568 = ORIENTED_EDGE ( 'NONE', *, *, #927, .T. ) ;
#569 = CARTESIAN_POINT ( 'NONE',  ( 3.223150898267721942, -1.191263505159599148E-16, -0.7739000026771709617 ) ) ;
#570 = AXIS2_PLACEMENT_3D ( 'NONE', #956, #798, #156 ) ;
#571 = DIRECTION ( 'NONE',  ( -0.000000000000000000, -0.000000000000000000, 1.000000000000000000 ) ) ;
#572 = ORIENTED_EDGE ( 'NONE', *, *, #608, .F. ) ;
#573 = VECTOR ( 'NONE', #949, 39.37007874015748143 ) ;
#574 =( CONVERSION_BASED_UNIT ( 'INCH', #1035 ) LENGTH_UNIT ( ) NAMED_UNIT ( #855 ) );
#575 = FACE_OUTER_BOUND ( 'NONE', #639, .T. ) ;
#576 = VERTEX_POINT ( 'NONE', #962 ) ;
#577 = EDGE_CURVE ( 'NONE', #889, #635, #771, .T. ) ;
#578 = ORIENTED_EDGE ( 'NONE', *, *, #76, .F. ) ;
#579 = ORIENTED_EDGE ( 'NONE', *, *, #390, .F. ) ;
#580 = CARTESIAN_POINT ( 'NONE',  ( 0.1982000000000000983, 0.000000000000000000, -1.204500000000000792 ) ) ;
#581 = B_SPLINE_CURVE_WITH_KNOTS ( 'NONE', 3,
 ( #72, #599, #1048, #892, #152, #435, #800, #315, #1059, #501, #870, #149, #781, #493, #419, #331 ),
 .UNSPECIFIED., .F., .F.,
 ( 4, 2, 2, 2, 2, 2, 2, 4 ),
 ( 0.000000000000000000, 0.002522695189107736127, 0.003784042783661606141, 0.005045390378215476590, 0.007568085567323217487, 0.008829433161877085767, 0.009460106959154019474, 0.01009078075643095318 ),
 .UNSPECIFIED. ) ;
#582 = ORIENTED_EDGE ( 'NONE', *, *, #201, .T. ) ;
#583 = DIRECTION ( 'NONE',  ( 0.000000000000000000, 1.347065085633266536E-16, 1.000000000000000000 ) ) ;
#584 = CYLINDRICAL_SURFACE ( 'NONE', #95, 0.1565000000000000835 ) ;
#585 = CONICAL_SURFACE ( 'NONE', #91, 0.2534999999999998921, 0.7155849933176754440 ) ;
#586 = EDGE_CURVE ( 'NONE', #1066, #686, #672, .T. ) ;
#587 = EDGE_CURVE ( 'NONE', #721, #484, #557, .T. ) ;
#588 = ORIENTED_EDGE ( 'NONE', *, *, #76, .T. ) ;
#589 = ORIENTED_EDGE ( 'NONE', *, *, #384, .F. ) ;
#590 = DIRECTION ( 'NONE',  ( -1.000000000000000000, 0.000000000000000000, 0.000000000000000000 ) ) ;
#591 = ORIENTED_EDGE ( 'NONE', *, *, #927, .F. ) ;
#592 = VERTEX_POINT ( 'NONE', #341 ) ;
#593 = DIRECTION ( 'NONE',  ( -0.000000000000000000, -0.000000000000000000, -1.000000000000000000 ) ) ;
#594 =( BOUNDED_CURVE ( )  B_SPLINE_CURVE ( 3, ( #744, #208, #747, #551 ),
 .UNSPECIFIED., .F., .F. ) 
 B_SPLINE_CURVE_WITH_KNOTS ( ( 4, 4 ),
 ( 3.141592653589793116, 4.712388980384689674 ),
 .UNSPECIFIED. ) 
 CURVE ( )  GEOMETRIC_REPRESENTATION_ITEM ( )  RATIONAL_B_SPLINE_CURVE ( ( 1.000000000000000000, 0.8047378541243649375, 0.8047378541243649375, 1.000000000000000000 ) ) 
 REPRESENTATION_ITEM ( '' )  );
#595 = DIRECTION ( 'NONE',  ( -0.000000000000000000, -0.000000000000000000, 1.000000000000000000 ) ) ;
#596 = UNCERTAINTY_MEASURE_WITH_UNIT (LENGTH_MEASURE( 1.000000000000000082E-05 ), #806, 'distance_accuracy_value', 'NONE');
#597 = VECTOR ( 'NONE', #702, 39.37007874015748143 ) ;
#598 = ORIENTED_EDGE ( 'NONE', *, *, #145, .F. ) ;
#599 = CARTESIAN_POINT ( 'NONE',  ( 0.5339068263157783489, 0.2328605255917834682, -0.1250000000000000278 ) ) ;
#600 = AXIS2_PLACEMENT_3D ( 'NONE', #924, #738, #928 ) ;
#601 = VERTEX_POINT ( 'NONE', #68 ) ;
#602 = CARTESIAN_POINT ( 'NONE',  ( 1.022363496692916263, 0.1500000000000000500, -0.9145000026771732404 ) ) ;
#603 = DIRECTION ( 'NONE',  ( -1.000000000000000000, -0.000000000000000000, 0.000000000000000000 ) ) ;
#604 = CIRCLE ( 'NONE', #665, 0.2654999999999999583 ) ;
#605 = DIRECTION ( 'NONE',  ( -0.000000000000000000, -0.000000000000000000, -1.000000000000000000 ) ) ;
#606 = ORIENTED_EDGE ( 'NONE', *, *, #1031, .F. ) ;
#607 = CARTESIAN_POINT ( 'NONE',  ( 2.097943323132557492, 1.903936263925223304, 0.000000000000000000 ) ) ;
#608 = EDGE_CURVE ( 'NONE', #576, #134, #762, .T. ) ;
#609 = FACE_OUTER_BOUND ( 'NONE', #947, .T. ) ;
#610 = ORIENTED_EDGE ( 'NONE', *, *, #421, .T. ) ;
#611 = DIRECTION ( 'NONE',  ( -0.000000000000000000, -0.000000000000000000, -1.000000000000000000 ) ) ;
#612 = DIRECTION ( 'NONE',  ( 0.000000000000000000, 0.000000000000000000, -1.000000000000000000 ) ) ;
#613 = ADVANCED_FACE ( 'NONE', ( #510 ), #1141, .F. ) ;
#614 = FACE_OUTER_BOUND ( 'NONE', #1009, .T. ) ;
#615 = ORIENTED_EDGE ( 'NONE', *, *, #662, .T. ) ;
#616 = CARTESIAN_POINT ( 'NONE',  ( 1.252368723696675623, 0.6485739743829481707, 0.000000000000000000 ) ) ;
#617 = ORIENTED_EDGE ( 'NONE', *, *, #942, .F. ) ;
#618 = CARTESIAN_POINT ( 'NONE',  ( 3.697099999999999831, 0.0001102362204724180114, -1.362000000000000322 ) ) ;
#619 = VECTOR ( 'NONE', #124, 39.37007874015748143 ) ;
#620 = CYLINDRICAL_SURFACE ( 'NONE', #465, 0.1406000000000001415 ) ;
#621 = EDGE_LOOP ( 'NONE', ( #675, #548 ) ) ;
#622 = EDGE_CURVE ( 'NONE', #21, #330, #249, .T. ) ;
#623 = VERTEX_POINT ( 'NONE', #415 ) ;
#624 =( GEOMETRIC_REPRESENTATION_CONTEXT ( 3 ) GLOBAL_UNCERTAINTY_ASSIGNED_CONTEXT ( ( #596 ) ) GLOBAL_UNIT_ASSIGNED_CONTEXT ( ( #806, #547, #716 ) ) REPRESENTATION_CONTEXT ( 'NONE', 'WORKASPACE' ) );
#625 = DIRECTION ( 'NONE',  ( -1.000000000000000000, 0.000000000000000000, 0.000000000000000000 ) ) ;
#626 = DIRECTION ( 'NONE',  ( -0.000000000000000000, -0.000000000000000000, -1.000000000000000000 ) ) ;
#627 = VERTEX_POINT ( 'NONE', #607 ) ;
#628 = DIRECTION ( 'NONE',  ( -1.000000000000000000, 0.000000000000000000, 0.000000000000000000 ) ) ;
#629 = DIRECTION ( 'NONE',  ( -1.000000000000000000, 0.000000000000000000, 0.000000000000000000 ) ) ;
#630 = EDGE_LOOP ( 'NONE', ( #617, #724, #1047, #452, #694 ) ) ;
#631 = EDGE_CURVE ( 'NONE', #1066, #891, #740, .T. ) ;
#632 = EDGE_CURVE ( 'NONE', #635, #889, #1097, .T. ) ;
#633 = FACE_BOUND ( 'NONE', #1140, .T. ) ;
#634 = CARTESIAN_POINT ( 'NONE',  ( 1.022363496692916263, -1.540584488504663824E-16, -1.055100002677173299 ) ) ;
#635 = VERTEX_POINT ( 'NONE', #223 ) ;
#636 = DIRECTION ( 'NONE',  ( -0.000000000000000000, -0.000000000000000000, -1.000000000000000000 ) ) ;
#637 = AXIS2_PLACEMENT_3D ( 'NONE', #230, #595, #166 ) ;
#638 = DIRECTION ( 'NONE',  ( 0.000000000000000000, 0.000000000000000000, 1.000000000000000000 ) ) ;
#639 = EDGE_LOOP ( 'NONE', ( #525, #320, #1064, #73 ) ) ;
#640 = AXIS2_PLACEMENT_3D ( 'NONE', #708, #965, #791 ) ;
#641 = DIRECTION ( 'NONE',  ( -0.000000000000000000, 1.000000000000000000, -1.242251007628252106E-16 ) ) ;
#642 = ADVANCED_FACE ( 'NONE', ( #575 ), #259, .F. ) ;
#643 = AXIS2_PLACEMENT_3D ( 'NONE', #1147, #74, #678 ) ;
#644 = COLOUR_RGB ( '',0.7921568627450980005, 0.8196078431372548767, 0.9333333333333333481 ) ;
#645 = FACE_BOUND ( 'NONE', #685, .T. ) ;
#646 = EDGE_LOOP ( 'NONE', ( #983, #598, #589, #1033, #648 ) ) ;
#647 = DIRECTION ( 'NONE',  ( 0.000000000000000000, -1.000000000000000000, 1.242251007628252106E-16 ) ) ;
#648 = ORIENTED_EDGE ( 'NONE', *, *, #401, .F. ) ;
#649 = DIRECTION ( 'NONE',  ( -0.000000000000000000, 1.000000000000000000, -1.242251007628252106E-16 ) ) ;
#650 = CARTESIAN_POINT ( 'NONE',  ( 3.697099999999999831, -0.1180000000000000909, -1.362000000000000322 ) ) ;
#651 = ADVANCED_FACE ( 'NONE', ( #975 ), #346, .F. ) ;
#652 = AXIS2_PLACEMENT_3D ( 'NONE', #531, #361, #722 ) ;
#653 = DIRECTION ( 'NONE',  ( 0.000000000000000000, -1.000000000000000000, 1.242251007628252106E-16 ) ) ;
#654 = DIRECTION ( 'NONE',  ( -1.000000000000000000, 0.000000000000000000, 0.000000000000000000 ) ) ;
#655 = LINE ( 'NONE', #854, #411 ) ;
#656 = LINE ( 'NONE', #101, #215 ) ;
#657 = DIRECTION ( 'NONE',  ( 0.000000000000000000, -0.000000000000000000, -1.000000000000000000 ) ) ;
#658 = FACE_OUTER_BOUND ( 'NONE', #345, .T. ) ;
#659 = AXIS2_PLACEMENT_3D ( 'NONE', #178, #641, #96 ) ;
#660 = VECTOR ( 'NONE', #654, 39.37007874015748143 ) ;
#661 = VERTEX_POINT ( 'NONE', #442 ) ;
#662 = EDGE_CURVE ( 'NONE', #686, #681, #381, .T. ) ;
#663 = FILL_AREA_STYLE_COLOUR ( '', #644 ) ;
#664 = DIRECTION ( 'NONE',  ( 0.000000000000000000, 1.214370551948907933E-16, 1.000000000000000000 ) ) ;
#665 = AXIS2_PLACEMENT_3D ( 'NONE', #1053, #1151, #162 ) ;
#666 = ORIENTED_EDGE ( 'NONE', *, *, #809, .T. ) ;
#667 = CARTESIAN_POINT ( 'NONE',  ( 3.504599999999999937, 2.565061936357496464, -0.1250000000000000000 ) ) ;
#668 = DIRECTION ( 'NONE',  ( 0.000000000000000000, 0.000000000000000000, 1.000000000000000000 ) ) ;
#669 = ADVANCED_BREP_SHAPE_REPRESENTATION ( 'Caliper Mount Front Right STEP', ( #936, #963 ), #624 ) ;
#670 = ORIENTED_EDGE ( 'NONE', *, *, #1083, .F. ) ;
#671 = CARTESIAN_POINT ( 'NONE',  ( 2.143352264000780050, 2.203695587888485186, 0.000000000000000000 ) ) ;
#672 = LINE ( 'NONE', #1054, #260 ) ;
#673 = AXIS2_PLACEMENT_3D ( 'NONE', #1079, #991, #628 ) ;
#674 = ADVANCED_FACE ( 'NONE', ( #182 ), #726, .T. ) ;
#675 = ORIENTED_EDGE ( 'NONE', *, *, #577, .F. ) ;
#676 = VERTEX_POINT ( 'NONE', #997 ) ;
#677 = CARTESIAN_POINT ( 'NONE',  ( 3.604600000000000026, 0.2500000000000002220, -3.105627519070632729E-17 ) ) ;
#678 = DIRECTION ( 'NONE',  ( -1.000000000000000000, 0.000000000000000000, 0.000000000000000000 ) ) ;
#679 = EDGE_CURVE ( 'NONE', #786, #55, #27, .T. ) ;
#680 = VERTEX_POINT ( 'NONE', #2 ) ;
#681 = VERTEX_POINT ( 'NONE', #1092 ) ;
#682 = ORIENTED_EDGE ( 'NONE', *, *, #608, .T. ) ;
#683 = ORIENTED_EDGE ( 'NONE', *, *, #536, .T. ) ;
#684 = DIRECTION ( 'NONE',  ( 0.000000000000000000, 1.242251007628252106E-16, 1.000000000000000000 ) ) ;
#685 = EDGE_LOOP ( 'NONE', ( #1041, #6 ) ) ;
#686 = VERTEX_POINT ( 'NONE', #1078 ) ;
#687 = CARTESIAN_POINT ( 'NONE',  ( 3.223150898267721942, 0.1500000000000000500, -0.9145000026771710200 ) ) ;
#688 = EDGE_LOOP ( 'NONE', ( #764, #111, #321, #1091 ) ) ;
#689 = DIRECTION ( 'NONE',  ( 0.000000000000000000, -1.286180787977522486E-16, -1.000000000000000000 ) ) ;
#690 = ORIENTED_EDGE ( 'NONE', *, *, #458, .T. ) ;
#691 = ORIENTED_EDGE ( 'NONE', *, *, #1012, .F. ) ;
#692 = CARTESIAN_POINT ( 'NONE',  ( 1.252368723696675623, 0.6485739743829481707, -0.1250000000000000000 ) ) ;
#693 = VERTEX_POINT ( 'NONE', #618 ) ;
#694 = ORIENTED_EDGE ( 'NONE', *, *, #803, .T. ) ;
#695 = DIRECTION ( 'NONE',  ( -0.000000000000000000, 1.000000000000000000, -1.242251007628252106E-16 ) ) ;
#696 = AXIS2_PLACEMENT_3D ( 'NONE', #950, #82, #689 ) ;
#697 = DIRECTION ( 'NONE',  ( -0.000000000000000000, -0.000000000000000000, -1.000000000000000000 ) ) ;
#698 = CIRCLE ( 'NONE', #941, 0.1406000000000000028 ) ;
#699 = ORIENTED_EDGE ( 'NONE', *, *, #241, .F. ) ;
#700 = LINE ( 'NONE', #948, #250 ) ;
#701 = EDGE_CURVE ( 'NONE', #686, #661, #456, .T. ) ;
#702 = DIRECTION ( 'NONE',  ( -0.000000000000000000, -0.000000000000000000, -1.000000000000000000 ) ) ;
#703 = DIRECTION ( 'NONE',  ( -1.000000000000000000, 0.000000000000000000, 0.000000000000000000 ) ) ;
#704 = VERTEX_POINT ( 'NONE', #707 ) ;
#705 = FACE_OUTER_BOUND ( 'NONE', #375, .T. ) ;
#706 = EDGE_CURVE ( 'NONE', #704, #680, #356, .T. ) ;
#707 = CARTESIAN_POINT ( 'NONE',  ( 2.097943323132557492, 1.903936263925223304, -0.1250000000000000000 ) ) ;
#708 = CARTESIAN_POINT ( 'NONE',  ( 0.3557000000000002382, -0.1180000000000044347, -1.204500000000000348 ) ) ;
#709 = EDGE_LOOP ( 'NONE', ( #699, #857, #130, #9 ) ) ;
#710 = CARTESIAN_POINT ( 'NONE',  ( 0.3556999999999996831, 0.1500000000000000222, -1.362000000000000099 ) ) ;
#711 = VERTEX_POINT ( 'NONE', #816 ) ;
#712 = PLANE ( 'NONE',  #300 ) ;
#713 = EDGE_CURVE ( 'NONE', #661, #623, #121, .T. ) ;
#714 = CARTESIAN_POINT ( 'NONE',  ( 3.223150898267721942, 0.02012340682474840839, -0.9145000026771710200 ) ) ;
#715 = ORIENTED_EDGE ( 'NONE', *, *, #62, .F. ) ;
#716 =( NAMED_UNIT ( * ) SI_UNIT ( $, .STERADIAN. ) SOLID_ANGLE_UNIT ( ) );
#717 = VECTOR ( 'NONE', #483, 39.37007874015748143 ) ;
#718 = DIRECTION ( 'NONE',  ( -0.000000000000000000, -0.000000000000000000, -1.000000000000000000 ) ) ;
#719 = VECTOR ( 'NONE', #383, 39.37007874015748143 ) ;
#720 = CARTESIAN_POINT ( 'NONE',  ( 1.022363496692916263, 0.1499999999999999944, -1.168000002677173077 ) ) ;
#721 = VERTEX_POINT ( 'NONE', #523 ) ;
#722 = DIRECTION ( 'NONE',  ( 0.000000000000000000, 1.347065085633266536E-16, 1.000000000000000000 ) ) ;
#723 = DIRECTION ( 'NONE',  ( 0.000000000000000000, 0.000000000000000000, 1.000000000000000000 ) ) ;
#724 = ORIENTED_EDGE ( 'NONE', *, *, #1045, .T. ) ;
#725 = VECTOR ( 'NONE', #878, 39.37007874015748143 ) ;
#726 = CYLINDRICAL_SURFACE ( 'NONE', #42, 0.1575000000000000289 ) ;
#727 = DIRECTION ( 'NONE',  ( 0.000000000000000000, 0.7547095802227715700, 0.6560590289905078309 ) ) ;
#728 = VERTEX_POINT ( 'NONE', #432 ) ;
#729 = DIRECTION ( 'NONE',  ( 0.000000000000000000, 1.000000000000000000, 0.000000000000000000 ) ) ;
#730 = CARTESIAN_POINT ( 'NONE',  ( 2.143352264000780050, 2.203695587888485186, -0.1250000000000000000 ) ) ;
#731 = ORIENTED_EDGE ( 'NONE', *, *, #1115, .T. ) ;
#732 = CARTESIAN_POINT ( 'NONE',  ( 2.299852264000778579, 2.203695587888485186, -0.1250000000000000000 ) ) ;
#733 = EDGE_LOOP ( 'NONE', ( #475, #871, #508, #670 ) ) ;
#734 = CARTESIAN_POINT ( 'NONE',  ( 3.697099999999999831, -0.1180000000000000909, -1.362000000000000322 ) ) ;
#735 = VERTEX_POINT ( 'NONE', #272 ) ;
#736 = APPLICATION_PROTOCOL_DEFINITION ( 'draft international standard', 'automotive_design', 1998, #559 ) ;
#737 = AXIS2_PLACEMENT_3D ( 'NONE', #13, #986, #99 ) ;
#738 = DIRECTION ( 'NONE',  ( -0.000000000000000000, -0.000000000000000000, 1.000000000000000000 ) ) ;
#739 = ADVANCED_FACE ( 'NONE', ( #363 ), #802, .T. ) ;
#740 = CIRCLE ( 'NONE', #537, 0.1406000000000001415 ) ;
#741 = FACE_OUTER_BOUND ( 'NONE', #278, .T. ) ;
#742 = AXIS2_PLACEMENT_3D ( 'NONE', #445, #926, #1000 ) ;
#743 = DIRECTION ( 'NONE',  ( 0.000000000000000000, 0.000000000000000000, 1.000000000000000000 ) ) ;
#744 = CARTESIAN_POINT ( 'NONE',  ( 3.504599999999999937, 0.1500000000000000222, -1.362000000000000099 ) ) ;
#745 = CARTESIAN_POINT ( 'NONE',  ( 1.022363496692916263, 0.1500000000000002720, -1.180000002677173088 ) ) ;
#746 = CARTESIAN_POINT ( 'NONE',  ( 1.454277664564902706, 0.9483332983461802979, 0.000000000000000000 ) ) ;
#747 = CARTESIAN_POINT ( 'NONE',  ( 3.604600000000000026, 0.1914213562373094646, -1.340783890841809933 ) ) ;
#748 = ADVANCED_FACE ( 'NONE', ( #5 ), #712, .T. ) ;
#749 = EDGE_LOOP ( 'NONE', ( #861, #337, #896, #269 ) ) ;
#750 = DIRECTION ( 'NONE',  ( 0.000000000000000000, 1.242251007628252352E-16, 1.000000000000000000 ) ) ;
#751 = LINE ( 'NONE', #650, #360 ) ;
#752 = VECTOR ( 'NONE', #393, 39.37007874015748143 ) ;
#753 = AXIS2_PLACEMENT_3D ( 'NONE', #378, #649, #291 ) ;
#754 = VERTEX_POINT ( 'NONE', #1072 ) ;
#755 = PLANE ( 'NONE',  #957 ) ;
#756 = DIRECTION ( 'NONE',  ( -1.000000000000000000, 0.000000000000000000, 0.000000000000000000 ) ) ;
#757 = CIRCLE ( 'NONE', #874, 0.3614178643972082439 ) ;
#758 = ORIENTED_EDGE ( 'NONE', *, *, #760, .T. ) ;
#759 = CARTESIAN_POINT ( 'NONE',  ( 0.000000000000000000, 2.565061936357496464, 0.1250000000000000000 ) ) ;
#760 = EDGE_CURVE ( 'NONE', #728, #425, #12, .T. ) ;
#761 = DIRECTION ( 'NONE',  ( 0.000000000000000000, 1.242251007628252106E-16, 1.000000000000000000 ) ) ;
#762 =( BOUNDED_CURVE ( )  B_SPLINE_CURVE ( 3, ( #945, #866, #420, #60 ),
 .UNSPECIFIED., .F., .F. ) 
 B_SPLINE_CURVE_WITH_KNOTS ( ( 4, 4 ),
 ( 3.141592653589793116, 4.712388980384689674 ),
 .UNSPECIFIED. ) 
 CURVE ( )  GEOMETRIC_REPRESENTATION_ITEM ( )  RATIONAL_B_SPLINE_CURVE ( ( 1.000000000000000000, 0.8047378541243649375, 0.8047378541243649375, 1.000000000000000000 ) ) 
 REPRESENTATION_ITEM ( '' )  );
#763 = ORIENTED_EDGE ( 'NONE', *, *, #114, .F. ) ;
#764 = ORIENTED_EDGE ( 'NONE', *, *, #299, .F. ) ;
#765 = ORIENTED_EDGE ( 'NONE', *, *, #256, .T. ) ;
#766 = ADVANCED_FACE ( 'NONE', ( #355, #633, #106 ), #826, .F. ) ;
#767 = DIRECTION ( 'NONE',  ( -0.000000000000000000, -1.000000000000000000, 0.000000000000000000 ) ) ;
#768 = EDGE_CURVE ( 'NONE', #1122, #1131, #11, .T. ) ;
#769 = AXIS2_PLACEMENT_3D ( 'NONE', #913, #535, #350 ) ;
#770 = EDGE_LOOP ( 'NONE', ( #144, #340, #507, #391 ) ) ;
#771 = CIRCLE ( 'NONE', #643, 0.1564999999999984459 ) ;
#772 = ORIENTED_EDGE ( 'NONE', *, *, #679, .F. ) ;
#773 = DIRECTION ( 'NONE',  ( 0.000000000000000000, 1.000000000000000000, 0.000000000000000000 ) ) ;
#774 = VERTEX_POINT ( 'NONE', #1010 ) ;
#775 = FACE_OUTER_BOUND ( 'NONE', #770, .T. ) ;
#776 = AXIS2_PLACEMENT_3D ( 'NONE', #541, #723, #829 ) ;
#777 = CARTESIAN_POINT ( 'NONE',  ( 3.854600000000000026, 0.1500000000000001055, -1.362000000000000322 ) ) ;
#778 = UNCERTAINTY_MEASURE_WITH_UNIT (LENGTH_MEASURE( 1.000000000000000082E-05 ), #574, 'distance_accuracy_value', 'NONE');
#779 = EDGE_LOOP ( 'NONE', ( #233, #765, #903, #1080, #763 ) ) ;
#780 = ORIENTED_EDGE ( 'NONE', *, *, #139, .F. ) ;
#781 = CARTESIAN_POINT ( 'NONE',  ( 0.2293306178105773696, 0.1506360017821311292, -0.2133694899978101633 ) ) ;
#782 = PLANE ( 'NONE',  #395 ) ;
#783 = DIRECTION ( 'NONE',  ( 0.000000000000000000, 1.214370551948906701E-16, 1.000000000000000000 ) ) ;
#784 = ADVANCED_FACE ( 'NONE', ( #112 ), #1102, .F. ) ;
#785 = PLANE ( 'NONE',  #563 ) ;
#786 = VERTEX_POINT ( 'NONE', #839 ) ;
#787 = ORIENTED_EDGE ( 'NONE', *, *, #760, .F. ) ;
#788 = DIRECTION ( 'NONE',  ( 0.000000000000000000, 0.7547095802227719030, 0.6560590289905073869 ) ) ;
#789 = CIRCLE ( 'NONE', #281, 0.1575000000000000289 ) ;
#790 = VECTOR ( 'NONE', #603, 39.37007874015748143 ) ;
#791 = DIRECTION ( 'NONE',  ( -1.000000000000000000, -8.672533313219883233E-16, 0.000000000000000000 ) ) ;
#792 = EDGE_CURVE ( 'NONE', #754, #735, #23, .T. ) ;
#793 = AXIS2_PLACEMENT_3D ( 'NONE', #409, #593, #158 ) ;
#794 = CARTESIAN_POINT ( 'NONE',  ( 1.095868723696675540, 0.6485739743829481707, 0.1250000000000000000 ) ) ;
#795 = ORIENTED_EDGE ( 'NONE', *, *, #1104, .F. ) ;
#796 = CARTESIAN_POINT ( 'NONE',  ( 0.000000000000000000, 0.000000000000000000, 0.000000000000000000 ) ) ;
#797 = AXIS2_PLACEMENT_3D ( 'NONE', #202, #552, #821 ) ;
#798 = DIRECTION ( 'NONE',  ( 0.000000000000000000, 1.000000000000000000, 0.000000000000000000 ) ) ;
#799 = EDGE_LOOP ( 'NONE', ( #209, #472 ) ) ;
#800 = CARTESIAN_POINT ( 'NONE',  ( 0.3983130682386847310, 0.1784057552470504071, -0.1549037200910271805 ) ) ;
#801 = ORIENTED_EDGE ( 'NONE', *, *, #998, .F. ) ;
#802 = CYLINDRICAL_SURFACE ( 'NONE', #955, 0.3614178643972082439 ) ;
#803 = EDGE_CURVE ( 'NONE', #1096, #147, #387, .T. ) ;
#804 = DIRECTION ( 'NONE',  ( -0.000000000000000000, -0.000000000000000000, -1.000000000000000000 ) ) ;
#805 = EDGE_LOOP ( 'NONE', ( #318, #960 ) ) ;
#806 =( CONVERSION_BASED_UNIT ( 'INCH', #265 ) LENGTH_UNIT ( ) NAMED_UNIT ( #399 ) );
#807 = CARTESIAN_POINT ( 'NONE',  ( 2.299852264000778579, 2.203695587888485186, 0.1250000000000000000 ) ) ;
#808 = ORIENTED_EDGE ( 'NONE', *, *, #978, .F. ) ;
#809 = EDGE_CURVE ( 'NONE', #163, #601, #817, .T. ) ;
#810 = DIRECTION ( 'NONE',  ( 0.000000000000000000, 1.214370551948906701E-16, 1.000000000000000000 ) ) ;
#811 = VERTEX_POINT ( 'NONE', #746 ) ;
#812 = PRODUCT ( 'Caliper Mount Front Right STEP', 'Caliper Mount Front Right STEP', '', ( #193 ) ) ;
#813 = FACE_OUTER_BOUND ( 'NONE', #830, .T. ) ;
#814 = SHAPE_DEFINITION_REPRESENTATION ( #34, #669 ) ;
#815 = AXIS2_PLACEMENT_3D ( 'NONE', #404, #297, #289 ) ;
#816 = CARTESIAN_POINT ( 'NONE',  ( 3.854600000000000026, 0.000000000000000000, -1.204500000000000570 ) ) ;
#817 = CIRCLE ( 'NONE', #753, 0.1406000000000000028 ) ;
#818 = DIRECTION ( 'NONE',  ( 0.000000000000000000, 1.000000000000000000, -0.000000000000000000 ) ) ;
#819 = CIRCLE ( 'NONE', #797, 0.2655000000000005134 ) ;
#820 = ORIENTED_EDGE ( 'NONE', *, *, #299, .T. ) ;
#821 = DIRECTION ( 'NONE',  ( 0.000000000000000000, -1.286180787977522486E-16, -1.000000000000000000 ) ) ;
#822 = ORIENTED_EDGE ( 'NONE', *, *, #803, .F. ) ;
#823 = DIRECTION ( 'NONE',  ( -0.000000000000000000, -0.000000000000000000, 1.000000000000000000 ) ) ;
#824 = EDGE_LOOP ( 'NONE', ( #935, #242, #610, #492 ) ) ;
#825 = VECTOR ( 'NONE', #1065, 39.37007874015748143 ) ;
#826 = PLANE ( 'NONE',  #100 ) ;
#827 = FACE_BOUND ( 'NONE', #187, .T. ) ;
#828 = EDGE_CURVE ( 'NONE', #811, #21, #245, .T. ) ;
#829 = DIRECTION ( 'NONE',  ( -1.000000000000000000, 0.000000000000000000, 0.000000000000000000 ) ) ;
#830 = EDGE_LOOP ( 'NONE', ( #843, #967, #588, #90, #362, #143 ) ) ;
#831 = CARTESIAN_POINT ( 'NONE',  ( 0.000000000000000000, 2.565061936357496464, -0.1250000000000000000 ) ) ;
#832 = DIRECTION ( 'NONE',  ( 0.000000000000000000, 1.242251007628252106E-16, 1.000000000000000000 ) ) ;
#833 = CIRCLE ( 'NONE', #219, 0.1406000000000001415 ) ;
#834 = EDGE_CURVE ( 'NONE', #627, #704, #32, .T. ) ;
#835 = FACE_OUTER_BOUND ( 'NONE', #709, .T. ) ;
#836 = CARTESIAN_POINT ( 'NONE',  ( 3.504599999999999937, 0.000000000000000000, -0.2249999999999999778 ) ) ;
#837 = CIRCLE ( 'NONE', #521, 0.1406000000000001415 ) ;
#838 = LINE ( 'NONE', #1088, #439 ) ;
#839 = CARTESIAN_POINT ( 'NONE',  ( 1.408868723696675707, 0.6485739743829481707, 0.000000000000000000 ) ) ;
#840 = DIRECTION ( 'NONE',  ( 0.000000000000000000, -0.8900408142482573171, -0.4558808495345019196 ) ) ;
#841 = ADVANCED_FACE ( 'NONE', ( #470 ), #116, .F. ) ;
#842 = CARTESIAN_POINT ( 'NONE',  ( 3.223150898267721942, -1.365923996832131609E-16, -0.9145000026771710200 ) ) ;
#843 = ORIENTED_EDGE ( 'NONE', *, *, #998, .T. ) ;
#844 = DIRECTION ( 'NONE',  ( -1.000000000000000000, 0.000000000000000000, 0.000000000000000000 ) ) ;
#845 = DIRECTION ( 'NONE',  ( 0.000000000000000000, -1.229846785657139814E-16, -1.000000000000000000 ) ) ;
#846 = ADVANCED_FACE ( 'NONE', ( #835 ), #1107, .F. ) ;
#847 = LINE ( 'NONE', #479, #1125 ) ;
#848 = CARTESIAN_POINT ( 'NONE',  ( 3.563178643762690445, 2.565061936357496464, -0.1249999999999999861 ) ) ;
#849 = CONICAL_SURFACE ( 'NONE', #480, 0.2534999999999998921, 0.7155849933176754440 ) ;
#850 = VECTOR ( 'NONE', #1026, 39.37007874015748143 ) ;
#851 = ORIENTED_EDGE ( 'NONE', *, *, #352, .T. ) ;
#852 = EDGE_CURVE ( 'NONE', #1044, #93, #295, .T. ) ;
#853 = CARTESIAN_POINT ( 'NONE',  ( 0.3557000000000002382, -0.1179999999999999660, -1.362000000000000322 ) ) ;
#854 = CARTESIAN_POINT ( 'NONE',  ( 0.1981999999999999595, 0.1500000000000000222, -1.204500000000000348 ) ) ;
#855 = DIMENSIONAL_EXPONENTS ( 1.000000000000000000, 0.000000000000000000, 0.000000000000000000, 0.000000000000000000, 0.000000000000000000, 0.000000000000000000, 0.000000000000000000 ) ;
#856 = ORIENTED_EDGE ( 'NONE', *, *, #1019, .F. ) ;
#857 = ORIENTED_EDGE ( 'NONE', *, *, #1038, .F. ) ;
#858 = EDGE_CURVE ( 'NONE', #1075, #499, #482, .T. ) ;
#859 = ORIENTED_EDGE ( 'NONE', *, *, #293, .F. ) ;
#860 = LINE ( 'NONE', #1050, #912 ) ;
#861 = ORIENTED_EDGE ( 'NONE', *, *, #201, .F. ) ;
#862 = VERTEX_POINT ( 'NONE', #310 ) ;
#863 = EDGE_LOOP ( 'NONE', ( #54, #232, #715 ) ) ;
#864 = CARTESIAN_POINT ( 'NONE',  ( 1.022363496692916263, 0.1500000000000000500, -0.9145000026771732404 ) ) ;
#865 = ORIENTED_EDGE ( 'NONE', *, *, #463, .F. ) ;
#866 = CARTESIAN_POINT ( 'NONE',  ( 3.789361363926237569, 0.1500000000000001332, -1.362000000000000322 ) ) ;
#867 = VECTOR ( 'NONE', #123, 39.37007874015748143 ) ;
#868 = ORIENTED_EDGE ( 'NONE', *, *, #494, .T. ) ;
#869 = ORIENTED_EDGE ( 'NONE', *, *, #1105, .F. ) ;
#870 = CARTESIAN_POINT ( 'NONE',  ( 0.2603027136811688624, 0.1525344176516617856, -0.2018839867130226284 ) ) ;
#871 = ORIENTED_EDGE ( 'NONE', *, *, #181, .F. ) ;
#872 = CARTESIAN_POINT ( 'NONE',  ( 0.000000000000000000, 0.000000000000000000, -0.1250000000000000000 ) ) ;
#873 = EDGE_CURVE ( 'NONE', #499, #239, #1126, .T. ) ;
#874 = AXIS2_PLACEMENT_3D ( 'NONE', #919, #17, #87 ) ;
#875 = FACE_OUTER_BOUND ( 'NONE', #688, .T. ) ;
#876 = ORIENTED_EDGE ( 'NONE', *, *, #429, .T. ) ;
#877 = ORIENTED_EDGE ( 'NONE', *, *, #416, .T. ) ;
#878 = DIRECTION ( 'NONE',  ( 1.000000000000000000, 0.000000000000000000, 0.000000000000000000 ) ) ;
#879 = CARTESIAN_POINT ( 'NONE',  ( 3.504599999999999937, 0.000000000000000000, -0.1250000000000000000 ) ) ;
#880 = EDGE_CURVE ( 'NONE', #163, #1138, #222, .T. ) ;
#881 = CARTESIAN_POINT ( 'NONE',  ( 0.3557000000000002382, 0.000000000000000000, -1.204500000000000348 ) ) ;
#882 = EDGE_LOOP ( 'NONE', ( #578, #167, #1007, #491, #434 ) ) ;
#883 = CARTESIAN_POINT ( 'NONE',  ( 3.223150898267721942, -1.540584488504664317E-16, -1.055100002677171078 ) ) ;
#884 = ORIENTED_EDGE ( 'NONE', *, *, #897, .F. ) ;
#885 = CARTESIAN_POINT ( 'NONE',  ( 3.223150898267721942, -1.365923996832131609E-16, -0.9145000026771710200 ) ) ;
#886 = VECTOR ( 'NONE', #626, 39.37007874015748143 ) ;
#887 = DIRECTION ( 'NONE',  ( -1.000000000000000000, 0.000000000000000000, 0.000000000000000000 ) ) ;
#888 = EDGE_CURVE ( 'NONE', #862, #711, #414, .T. ) ;
#889 = VERTEX_POINT ( 'NONE', #671 ) ;
#890 = AXIS2_PLACEMENT_3D ( 'NONE', #1121, #312, #1037 ) ;
#891 = VERTEX_POINT ( 'NONE', #569 ) ;
#892 = CARTESIAN_POINT ( 'NONE',  ( 0.4594534668380915732, 0.1992637954195312089, -0.1385404731423255653 ) ) ;
#893 = EDGE_LOOP ( 'NONE', ( #271, #884, #908, #690 ) ) ;
#894 = CARTESIAN_POINT ( 'NONE',  ( 3.223150898267721942, 0.02012340682474840839, -0.9145000026771710200 ) ) ;
#895 = CARTESIAN_POINT ( 'NONE',  ( 1.095868723696675540, 0.6485739743829481707, 0.000000000000000000 ) ) ;
#896 = ORIENTED_EDGE ( 'NONE', *, *, #160, .T. ) ;
#897 = EDGE_CURVE ( 'NONE', #601, #163, #914, .T. ) ;
#898 = ADVANCED_FACE ( 'NONE', ( #1116 ), #755, .F. ) ;
#899 = DIRECTION ( 'NONE',  ( -1.000000000000000000, 0.000000000000000000, 0.000000000000000000 ) ) ;
#900 = LINE ( 'NONE', #262, #517 ) ;
#901 = VERTEX_POINT ( 'NONE', #473 ) ;
#902 = CARTESIAN_POINT ( 'NONE',  ( 1.408868723696675707, 0.6485739743829481707, 0.1250000000000000000 ) ) ;
#903 = ORIENTED_EDGE ( 'NONE', *, *, #351, .T. ) ;
#904 = APPLICATION_PROTOCOL_DEFINITION ( 'draft international standard', 'automotive_design', 1998, #364 ) ;
#905 = DIRECTION ( 'NONE',  ( 0.000000000000000000, 1.214370551948906701E-16, 1.000000000000000000 ) ) ;
#906 = AXIS2_PLACEMENT_3D ( 'NONE', #515, #335, #887 ) ;
#907 = CARTESIAN_POINT ( 'NONE',  ( 1.022363496692916263, 0.1500000000000000777, -0.6610000026771732928 ) ) ;
#908 = ORIENTED_EDGE ( 'NONE', *, *, #7, .T. ) ;
#909 = FACE_BOUND ( 'NONE', #424, .T. ) ;
#910 = LINE ( 'NONE', #1085, #1062 ) ;
#911 = ORIENTED_EDGE ( 'NONE', *, *, #145, .T. ) ;
#912 = VECTOR ( 'NONE', #788, 39.37007874015748143 ) ;
#913 = CARTESIAN_POINT ( 'NONE',  ( 1.252368723696675623, 0.6485739743829481707, 0.000000000000000000 ) ) ;
#914 = CIRCLE ( 'NONE', #558, 0.1406000000000000028 ) ;
#915 = EDGE_CURVE ( 'NONE', #1044, #1096, #231, .T. ) ;
#916 = DIRECTION ( 'NONE',  ( 0.000000000000000000, 0.000000000000000000, 1.000000000000000000 ) ) ;
#917 = AXIS2_PLACEMENT_3D ( 'NONE', #94, #729, #197 ) ;
#918 = CARTESIAN_POINT ( 'NONE',  ( 1.022363496692916263, 0.1500000000000003553, -0.6490000026771732822 ) ) ;
#919 = CARTESIAN_POINT ( 'NONE',  ( 2.299852264000778579, 2.203695587888485186, -0.1250000000000000000 ) ) ;
#920 = ORIENTED_EDGE ( 'NONE', *, *, #429, .F. ) ;
#921 = DIRECTION ( 'NONE',  ( 1.000000000000000000, 0.000000000000000000, -0.000000000000000000 ) ) ;
#922 = EDGE_CURVE ( 'NONE', #901, #592, #103, .T. ) ;
#923 = FACE_OUTER_BOUND ( 'NONE', #322, .T. ) ;
#924 = CARTESIAN_POINT ( 'NONE',  ( 1.252368723696675623, 0.6485739743829481707, 0.000000000000000000 ) ) ;
#925 = LINE ( 'NONE', #30, #619 ) ;
#926 = DIRECTION ( 'NONE',  ( -0.000000000000000000, 1.000000000000000000, -1.242251007628252106E-16 ) ) ;
#927 = EDGE_CURVE ( 'NONE', #889, #1131, #47, .T. ) ;
#928 = DIRECTION ( 'NONE',  ( -1.000000000000000000, 0.000000000000000000, 0.000000000000000000 ) ) ;
#929 = DIRECTION ( 'NONE',  ( 9.106159978880879367E-16, -1.000000000000000000, 0.000000000000000000 ) ) ;
#930 = AXIS2_PLACEMENT_3D ( 'NONE', #1017, #129, #308 ) ;
#931 = LINE ( 'NONE', #879, #1002 ) ;
#932 = LINE ( 'NONE', #720, #1036 ) ;
#933 = CONICAL_SURFACE ( 'NONE', #964, 0.2534999999999998921, 0.7155849933176759992 ) ;
#934 = FACE_BOUND ( 'NONE', #313, .T. ) ;
#935 = ORIENTED_EDGE ( 'NONE', *, *, #809, .F. ) ;
#936 = MANIFOLD_SOLID_BREP ( 'CSK for 1/4 Flat Head Machine Screw (100)1', #428 ) ;
#937 = DIRECTION ( 'NONE',  ( 0.000000000000000000, -1.000000000000000000, 1.242251007628252106E-16 ) ) ;
#938 = LINE ( 'NONE', #496, #379 ) ;
#939 = DIRECTION ( 'NONE',  ( -0.000000000000000000, 1.000000000000000000, -1.242251007628252106E-16 ) ) ;
#940 = CARTESIAN_POINT ( 'NONE',  ( 5.120298621315516385, 0.1500000000000001887, -0.1250000000000000000 ) ) ;
#941 = AXIS2_PLACEMENT_3D ( 'NONE', #398, #477, #664 ) ;
#942 = EDGE_CURVE ( 'NONE', #564, #147, #37, .T. ) ;
#943 = ORIENTED_EDGE ( 'NONE', *, *, #328, .F. ) ;
#944 = ORIENTED_EDGE ( 'NONE', *, *, #328, .T. ) ;
#945 = CARTESIAN_POINT ( 'NONE',  ( 3.697099999999999831, 0.1500000000000000222, -1.362000000000000099 ) ) ;
#946 = VERTEX_POINT ( 'NONE', #303 ) ;
#947 = EDGE_LOOP ( 'NONE', ( #972, #820, #45, #691 ) ) ;
#948 = CARTESIAN_POINT ( 'NONE',  ( 0.000000000000000000, 0.000000000000000000, 0.000000000000000000 ) ) ;
#949 = DIRECTION ( 'NONE',  ( -0.000000000000000000, -0.000000000000000000, -1.000000000000000000 ) ) ;
#950 = CARTESIAN_POINT ( 'NONE',  ( 3.223150898267721942, 0.1500000000000002998, -0.9145000026771710200 ) ) ;
#951 = LINE ( 'NONE', #1143, #825 ) ;
#952 = ADVANCED_FACE ( 'NONE', ( #212 ), #157, .T. ) ;
#953 = ORIENTED_EDGE ( 'NONE', *, *, #402, .T. ) ;
#954 = DIRECTION ( 'NONE',  ( -1.000000000000000000, 0.000000000000000000, 0.000000000000000000 ) ) ;
#955 = AXIS2_PLACEMENT_3D ( 'NONE', #807, #1067, #625 ) ;
#956 = CARTESIAN_POINT ( 'NONE',  ( 3.504599999999999937, 0.2500000000000002220, -0.2249999999999999778 ) ) ;
#957 = AXIS2_PLACEMENT_3D ( 'NONE', #759, #397, #657 ) ;
#958 = VERTEX_POINT ( 'NONE', #580 ) ;
#959 = LINE ( 'NONE', #430, #506 ) ;
#960 = ORIENTED_EDGE ( 'NONE', *, *, #293, .T. ) ;
#961 = ADVANCED_FACE ( 'NONE', ( #323 ), #1027, .F. ) ;
#962 = CARTESIAN_POINT ( 'NONE',  ( 3.697099999999999831, 0.1500000000000000222, -1.362000000000000099 ) ) ;
#963 = AXIS2_PLACEMENT_3D ( 'NONE', #115, #638, #446 ) ;
#964 = AXIS2_PLACEMENT_3D ( 'NONE', #168, #77, #234 ) ;
#965 = DIRECTION ( 'NONE',  ( -9.106159978880879367E-16, 1.000000000000000000, 0.000000000000000000 ) ) ;
#966 = CARTESIAN_POINT ( 'NONE',  ( 3.604600000000000026, 0.000000000000000000, 0.000000000000000000 ) ) ;
#967 = ORIENTED_EDGE ( 'NONE', *, *, #416, .F. ) ;
#968 = CARTESIAN_POINT ( 'NONE',  ( 2.305954304611272487, 2.565061936357496464, 0.000000000000000000 ) ) ;
#969 = ADVANCED_FACE ( 'NONE', ( #973 ), #933, .F. ) ;
#970 = DIRECTION ( 'NONE',  ( -0.000000000000000000, 1.000000000000000000, -1.242251007628252106E-16 ) ) ;
#971 = EDGE_LOOP ( 'NONE', ( #84, #372, #568, #530 ) ) ;
#972 = ORIENTED_EDGE ( 'NONE', *, *, #1105, .T. ) ;
#973 = FACE_OUTER_BOUND ( 'NONE', #749, .T. ) ;
#974 = VERTEX_POINT ( 'NONE', #240 ) ;
#975 = FACE_OUTER_BOUND ( 'NONE', #65, .T. ) ;
#976 = VECTOR ( 'NONE', #524, 39.37007874015748143 ) ;
#977 = CARTESIAN_POINT ( 'NONE',  ( 1.938434399603570224, 2.203695587888485186, 0.000000000000000000 ) ) ;
#978 = EDGE_CURVE ( 'NONE', #676, #1096, #959, .T. ) ;
#979 = ADVANCED_FACE ( 'NONE', ( #705 ), #785, .T. ) ;
#980 = ORIENTED_EDGE ( 'NONE', *, *, #1129, .F. ) ;
#981 = CIRCLE ( 'NONE', #793, 0.1565000000000000835 ) ;
#982 = DIRECTION ( 'NONE',  ( 0.000000000000000000, 1.214370551948907933E-16, 1.000000000000000000 ) ) ;
#983 = ORIENTED_EDGE ( 'NONE', *, *, #858, .F. ) ;
#984 = CARTESIAN_POINT ( 'NONE',  ( 3.223150898267721942, 0.1499999999999999944, -1.168000002677170857 ) ) ;
#985 = CIRCLE ( 'NONE', #652, 0.2534999999999998921 ) ;
#986 = DIRECTION ( 'NONE',  ( -0.000000000000000000, -0.000000000000000000, -1.000000000000000000 ) ) ;
#987 = ORIENTED_EDGE ( 'NONE', *, *, #39, .T. ) ;
#988 = AXIS2_PLACEMENT_3D ( 'NONE', #864, #338, #66 ) ;
#989 = CARTESIAN_POINT ( 'NONE',  ( 3.504599999999999937, 2.565061936357496464, -0.1250000000000000000 ) ) ;
#990 = CARTESIAN_POINT ( 'NONE',  ( 0.1982000000000000983, 1.804840907814190915E-16, 0.1250000000000000000 ) ) ;
#991 = DIRECTION ( 'NONE',  ( 0.000000000000000000, 0.000000000000000000, -1.000000000000000000 ) ) ;
#992 = ORIENTED_EDGE ( 'NONE', *, *, #915, .T. ) ;
#993 = CYLINDRICAL_SURFACE ( 'NONE', #742, 0.1406000000000001415 ) ;
#994 = ORIENTED_EDGE ( 'NONE', *, *, #852, .T. ) ;
#995 = PLANE ( 'NONE',  #776 ) ;
#996 = ORIENTED_EDGE ( 'NONE', *, *, #174, .T. ) ;
#997 = CARTESIAN_POINT ( 'NONE',  ( 3.854600000000000026, 2.565061936357496464, -0.1250000000000000000 ) ) ;
#998 = EDGE_CURVE ( 'NONE', #974, #735, #700, .T. ) ;
#999 = DIRECTION ( 'NONE',  ( 8.034405899049459962E-17, 0.7547095802227712369, -0.6560590289905079420 ) ) ;
#1000 = DIRECTION ( 'NONE',  ( 0.000000000000000000, 1.214370551948906701E-16, 1.000000000000000000 ) ) ;
#1001 = DIRECTION ( 'NONE',  ( -1.000000000000000000, 0.000000000000000000, 0.000000000000000000 ) ) ;
#1002 = VECTOR ( 'NONE', #767, 39.37007874015748143 ) ;
#1003 = DIRECTION ( 'NONE',  ( 0.000000000000000000, -1.242251007628252106E-16, -1.000000000000000000 ) ) ;
#1004 = AXIS2_PLACEMENT_3D ( 'NONE', #549, #464, #460 ) ;
#1005 = EDGE_CURVE ( 'NONE', #226, #264, #604, .T. ) ;
#1006 = CARTESIAN_POINT ( 'NONE',  ( 3.223150898267721942, 0.1500000000000000500, -0.9145000026771710200 ) ) ;
#1007 = ORIENTED_EDGE ( 'NONE', *, *, #1104, .T. ) ;
#1008 = CYLINDRICAL_SURFACE ( 'NONE', #544, 0.1406000000000000028 ) ;
#1009 = EDGE_LOOP ( 'NONE', ( #780, #876, #309, #996 ) ) ;
#1010 = CARTESIAN_POINT ( 'NONE',  ( 3.604600000000000026, 0.2500000000000002220, -0.2249999999999999778 ) ) ;
#1011 = DIRECTION ( 'NONE',  ( -0.000000000000000000, 1.000000000000000000, -1.242251007628252106E-16 ) ) ;
#1012 = EDGE_CURVE ( 'NONE', #55, #901, #247, .T. ) ;
#1013 = FACE_OUTER_BOUND ( 'NONE', #1145, .T. ) ;
#1014 = CARTESIAN_POINT ( 'NONE',  ( 0.1982000000000000983, 1.804840907814190915E-16, 0.000000000000000000 ) ) ;
#1015 = CARTESIAN_POINT ( 'NONE',  ( 2.305954304611272487, 2.565061936357496464, 0.1250000000000000000 ) ) ;
#1016 = VECTOR ( 'NONE', #845, 39.37007874015748143 ) ;
#1017 = CARTESIAN_POINT ( 'NONE',  ( 1.776110493848743976, 1.426134781135692364, 0.000000000000000000 ) ) ;
#1018 = LINE ( 'NONE', #902, #176 ) ;
#1019 = EDGE_CURVE ( 'NONE', #444, #774, #159, .T. ) ;
#1020 = CARTESIAN_POINT ( 'NONE',  ( 2.143352264000780050, 2.203695587888485186, 0.1250000000000000000 ) ) ;
#1021 = AXIS2_PLACEMENT_3D ( 'NONE', #385, #1011, #1032 ) ;
#1022 = DIRECTION ( 'NONE',  ( 0.000000000000000000, 1.000000000000000000, -0.000000000000000000 ) ) ;
#1023 =( GEOMETRIC_REPRESENTATION_CONTEXT ( 3 ) GLOBAL_UNCERTAINTY_ASSIGNED_CONTEXT ( ( #778 ) ) GLOBAL_UNIT_ASSIGNED_CONTEXT ( ( #574, #388, #33 ) ) REPRESENTATION_CONTEXT ( 'NONE', 'WORKASPACE' ) );
#1024 = AXIS2_PLACEMENT_3D ( 'NONE', #940, #937, #213 ) ;
#1025 = ORIENTED_EDGE ( 'NONE', *, *, #1129, .T. ) ;
#1026 = DIRECTION ( 'NONE',  ( -0.000000000000000000, -0.000000000000000000, -1.000000000000000000 ) ) ;
#1027 = CONICAL_SURFACE ( 'NONE', #988, 0.2534999999999998921, 0.7155849933176759992 ) ;
#1028 = CARTESIAN_POINT ( 'NONE',  ( 3.504599999999999937, 0.1500000000000000222, -1.362000000000000099 ) ) ;
#1029 = ORIENTED_EDGE ( 'NONE', *, *, #196, .T. ) ;
#1030 = ORIENTED_EDGE ( 'NONE', *, *, #587, .F. ) ;
#1031 = EDGE_CURVE ( 'NONE', #93, #774, #1042, .T. ) ;
#1032 = DIRECTION ( 'NONE',  ( 0.000000000000000000, 1.214370551948907933E-16, 1.000000000000000000 ) ) ;
#1033 = ORIENTED_EDGE ( 'NONE', *, *, #352, .F. ) ;
#1034 = CIRCLE ( 'NONE', #24, 0.1564999999999984459 ) ;
#1035 = LENGTH_MEASURE_WITH_UNIT ( LENGTH_MEASURE( 0.02539999999999999897 ), #555 );
#1036 = VECTOR ( 'NONE', #999, 39.37007874015748854 ) ;
#1037 = DIRECTION ( 'NONE',  ( -1.000000000000000000, 0.000000000000000000, 0.000000000000000000 ) ) ;
#1038 = EDGE_CURVE ( 'NONE', #239, #862, #951, .T. ) ;
#1039 = AXIS2_PLACEMENT_3D ( 'NONE', #894, #171, #905 ) ;
#1040 = ORIENTED_EDGE ( 'NONE', *, *, #139, .T. ) ;
#1041 = ORIENTED_EDGE ( 'NONE', *, *, #390, .T. ) ;
#1042 = LINE ( 'NONE', #677, #306 ) ;
#1043 = DIRECTION ( 'NONE',  ( -0.000000000000000000, -0.000000000000000000, -1.000000000000000000 ) ) ;
#1044 = VERTEX_POINT ( 'NONE', #423 ) ;
#1045 = EDGE_CURVE ( 'NONE', #564, #410, #253, .T. ) ;
#1046 = ORIENTED_EDGE ( 'NONE', *, *, #1061, .T. ) ;
#1047 = ORIENTED_EDGE ( 'NONE', *, *, #22, .T. ) ;
#1048 = CARTESIAN_POINT ( 'NONE',  ( 0.5045227324407326464, 0.2181552617945576034, -0.1291690988909978410 ) ) ;
#1049 = ORIENTED_EDGE ( 'NONE', *, *, #852, .F. ) ;
#1050 = CARTESIAN_POINT ( 'NONE',  ( 3.223150898267721942, 0.1500000000000000777, -0.6610000026771711834 ) ) ;
#1051 = LINE ( 'NONE', #505, #221 ) ;
#1052 = EDGE_CURVE ( 'NONE', #437, #728, #581, .T. ) ;
#1053 = CARTESIAN_POINT ( 'NONE',  ( 1.022363496692916263, 0.1500000000000002998, -0.9145000026771732404 ) ) ;
#1054 = CARTESIAN_POINT ( 'NONE',  ( 3.223150898267721942, 0.1500000000000000500, -1.055100002677171078 ) ) ;
#1055 = AXIS2_PLACEMENT_3D ( 'NONE', #504, #495, #1060 ) ;
#1056 = LINE ( 'NONE', #246, #790 ) ;
#1057 = VECTOR ( 'NONE', #135, 39.37007874015748143 ) ;
#1058 = ORIENTED_EDGE ( 'NONE', *, *, #586, .T. ) ;
#1059 = CARTESIAN_POINT ( 'NONE',  ( 0.3218578062717264987, 0.1600961929973096776, -0.1796616300234887276 ) ) ;
#1060 = DIRECTION ( 'NONE',  ( -1.000000000000000000, 0.000000000000000000, 0.000000000000000000 ) ) ;
#1061 = EDGE_CURVE ( 'NONE', #330, #946, #457, .T. ) ;
#1062 = VECTOR ( 'NONE', #1155, 39.37007874015748143 ) ;
#1063 = FACE_OUTER_BOUND ( 'NONE', #863, .T. ) ;
#1064 = ORIENTED_EDGE ( 'NONE', *, *, #449, .F. ) ;
#1065 = DIRECTION ( 'NONE',  ( 1.000000000000000000, 0.000000000000000000, 0.000000000000000000 ) ) ;
#1066 = VERTEX_POINT ( 'NONE', #883 ) ;
#1067 = DIRECTION ( 'NONE',  ( -0.000000000000000000, -0.000000000000000000, -1.000000000000000000 ) ) ;
#1068 = ADVANCED_FACE ( 'NONE', ( #1090 ), #995, .F. ) ;
#1069 = CYLINDRICAL_SURFACE ( 'NONE', #640, 0.1575000000000000011 ) ;
#1070 = AXIS2_PLACEMENT_3D ( 'NONE', #540, #653, #386 ) ;
#1071 = CARTESIAN_POINT ( 'NONE',  ( 2.456352264000777108, 2.203695587888485186, -0.1250000000000000000 ) ) ;
#1072 = CARTESIAN_POINT ( 'NONE',  ( 0.1981999999999999595, 0.1500000000000003553, 0.000000000000000000 ) ) ;
#1073 = FACE_OUTER_BOUND ( 'NONE', #1134, .T. ) ;
#1074 = AXIS2_PLACEMENT_3D ( 'NONE', #132, #756, #668 ) ;
#1075 = VERTEX_POINT ( 'NONE', #710 ) ;
#1076 = VECTOR ( 'NONE', #392, 39.37007874015748143 ) ;
#1077 = DIRECTION ( 'NONE',  ( 0.000000000000000000, 0.000000000000000000, 1.000000000000000000 ) ) ;
#1078 = CARTESIAN_POINT ( 'NONE',  ( 3.223150898267721942, 0.02012340682474839104, -1.055100002677171078 ) ) ;
#1079 = CARTESIAN_POINT ( 'NONE',  ( 0.1981999999999989048, 0.8646723828161393399, 0.000000000000000000 ) ) ;
#1080 = ORIENTED_EDGE ( 'NONE', *, *, #1099, .F. ) ;
#1081 = CIRCLE ( 'NONE', #210, 0.1575000000000000289 ) ;
#1082 = PLANE ( 'NONE',  #1070 ) ;
#1083 = EDGE_CURVE ( 'NONE', #680, #147, #757, .T. ) ;
#1084 = ORIENTED_EDGE ( 'NONE', *, *, #545, .T. ) ;
#1085 = CARTESIAN_POINT ( 'NONE',  ( 3.854600000000000026, 0.000000000000000000, -1.204500000000000348 ) ) ;
#1086 = DIRECTION ( 'NONE',  ( -1.000000000000000000, -9.106159978880879367E-16, 0.000000000000000000 ) ) ;
#1087 = LINE ( 'NONE', #907, #1127 ) ;
#1088 = CARTESIAN_POINT ( 'NONE',  ( 3.604600000000000026, 0.1500000000000001610, -0.2249999999999999778 ) ) ;
#1089 = ORIENTED_EDGE ( 'NONE', *, *, #407, .F. ) ;
#1090 = FACE_OUTER_BOUND ( 'NONE', #646, .T. ) ;
#1091 = ORIENTED_EDGE ( 'NONE', *, *, #922, .T. ) ;
#1092 = CARTESIAN_POINT ( 'NONE',  ( 3.223150898267721942, 0.02012340682474842574, -0.7739000026771709617 ) ) ;
#1093 = CIRCLE ( 'NONE', #637, 0.1000000000000000194 ) ;
#1094 = FACE_OUTER_BOUND ( 'NONE', #805, .T. ) ;
#1095 = EDGE_LOOP ( 'NONE', ( #56, #1040, #455, #329 ) ) ;
#1096 = VERTEX_POINT ( 'NONE', #989 ) ;
#1097 = CIRCLE ( 'NONE', #890, 0.1564999999999984459 ) ;
#1098 = CARTESIAN_POINT ( 'NONE',  ( 3.504599999999999937, 0.2500000000000002220, -3.105627519070632729E-17 ) ) ;
#1099 = EDGE_CURVE ( 'NONE', #134, #711, #910, .T. ) ;
#1100 = PLANE ( 'NONE',  #1024 ) ;
#1101 = FACE_OUTER_BOUND ( 'NONE', #1, .T. ) ;
#1102 = CYLINDRICAL_SURFACE ( 'NONE', #1004, 0.1406000000000000028 ) ;
#1103 = CARTESIAN_POINT ( 'NONE',  ( 0.1982000000000000983, 0.1500000000000000500, -1.204500000000000348 ) ) ;
#1104 = EDGE_CURVE ( 'NONE', #425, #1075, #1081, .T. ) ;
#1105 = EDGE_CURVE ( 'NONE', #55, #786, #267, .T. ) ;
#1106 = FACE_OUTER_BOUND ( 'NONE', #500, .T. ) ;
#1107 = PLANE ( 'NONE',  #302 ) ;
#1108 = PRESENTATION_STYLE_ASSIGNMENT (( #41 ) ) ;
#1109 = CARTESIAN_POINT ( 'NONE',  ( 3.504599999999999937, 0.1500000000000001887, -0.1250000000000000000 ) ) ;
#1110 = EDGE_LOOP ( 'NONE', ( #868, #1029, #731, #1046, #298, #400, #534, #822 ) ) ;
#1111 = VECTOR ( 'NONE', #1003, 39.37007874015748143 ) ;
#1112 = LINE ( 'NONE', #1109, #467 ) ;
#1113 = VECTOR ( 'NONE', #929, 39.37007874015748143 ) ;
#1114 = VERTEX_POINT ( 'NONE', #371 ) ;
#1115 = EDGE_CURVE ( 'NONE', #437, #330, #48, .T. ) ;
#1116 = FACE_OUTER_BOUND ( 'NONE', #630, .T. ) ;
#1117 = AXIS2_PLACEMENT_3D ( 'NONE', #454, #1077, #629 ) ;
#1118 = LINE ( 'NONE', #35, #752 ) ;
#1119 = ORIENTED_EDGE ( 'NONE', *, *, #1005, .T. ) ;
#1120 = PRODUCT_RELATED_PRODUCT_CATEGORY ( 'part', '', ( #812 ) ) ;
#1121 = CARTESIAN_POINT ( 'NONE',  ( 2.299852264000778579, 2.203695587888485186, 0.000000000000000000 ) ) ;
#1122 = VERTEX_POINT ( 'NONE', #1071 ) ;
#1123 = VECTOR ( 'NONE', #1137, 39.37007874015748143 ) ;
#1124 = ORIENTED_EDGE ( 'NONE', *, *, #622, .T. ) ;
#1125 = VECTOR ( 'NONE', #40, 39.37007874015748143 ) ;
#1126 = LINE ( 'NONE', #853, #1076 ) ;
#1127 = VECTOR ( 'NONE', #727, 39.37007874015748143 ) ;
#1128 = CARTESIAN_POINT ( 'NONE',  ( 0.3557000000000001272, 0.0001102362204724180114, -1.362000000000000322 ) ) ;
#1129 = EDGE_CURVE ( 'NONE', #754, #728, #110, .T. ) ;
#1130 = AXIS2_PLACEMENT_3D ( 'NONE', #266, #520, #447 ) ;
#1131 = VERTEX_POINT ( 'NONE', #730 ) ;
#1132 = ORIENTED_EDGE ( 'NONE', *, *, #503, .F. ) ;
#1133 = DIRECTION ( 'NONE',  ( 0.000000000000000000, 0.000000000000000000, 1.000000000000000000 ) ) ;
#1134 = EDGE_LOOP ( 'NONE', ( #519, #579, #333, #180 ) ) ;
#1135 = ORIENTED_EDGE ( 'NONE', *, *, #384, .T. ) ;
#1136 = LINE ( 'NONE', #426, #573 ) ;
#1137 = DIRECTION ( 'NONE',  ( 0.000000000000000000, -0.8900408142482573171, -0.4558808495345019196 ) ) ;
#1138 = VERTEX_POINT ( 'NONE', #277 ) ;
#1139 = DIRECTION ( 'NONE',  ( -1.000000000000000000, 0.000000000000000000, 0.000000000000000000 ) ) ;
#1140 = EDGE_LOOP ( 'NONE', ( #869, #772 ) ) ;
#1141 = CYLINDRICAL_SURFACE ( 'NONE', #448, 0.1564999999999984459 ) ;
#1142 = CARTESIAN_POINT ( 'NONE',  ( 3.223150898267721942, 0.1500000000000002720, -1.180000002677171533 ) ) ;
#1143 = CARTESIAN_POINT ( 'NONE',  ( 0.3557000000000002382, 0.000000000000000000, -1.362000000000000322 ) ) ;
#1144 = AXIS2_PLACEMENT_3D ( 'NONE', #3, #440, #173 ) ;
#1145 = EDGE_LOOP ( 'NONE', ( #286, #367, #1084, #944 ) ) ;
#1146 = AXIS2_PLACEMENT_3D ( 'NONE', #451, #190, #916 ) ;
#1147 = CARTESIAN_POINT ( 'NONE',  ( 2.299852264000778579, 2.203695587888485186, 0.000000000000000000 ) ) ;
#1148 = AXIS2_PLACEMENT_3D ( 'NONE', #88, #921, #612 ) ;
#1149 = CARTESIAN_POINT ( 'NONE',  ( 3.223150898267721942, 0.1500000000000000777, -0.7739000026771709617 ) ) ;
#1150 = ORIENTED_EDGE ( 'NONE', *, *, #792, .F. ) ;
#1151 = DIRECTION ( 'NONE',  ( -0.000000000000000000, 1.000000000000000000, -1.242251007628252106E-16 ) ) ;
#1152 = ADVANCED_FACE ( 'NONE', ( #258 ), #1008, .F. ) ;
#1153 = CARTESIAN_POINT ( 'NONE',  ( 3.697099999999999831, -0.1180000000000000909, -1.204500000000000348 ) ) ;
#1154 = CARTESIAN_POINT ( 'NONE',  ( 1.252368723696675623, 0.6485739743829481707, 0.1250000000000000000 ) ) ;
#1155 = DIRECTION ( 'NONE',  ( -0.000000000000000000, -1.000000000000000000, -0.000000000000000000 ) ) ;
ENDSEC;
END-ISO-10303-21;
