ISO-10303-21;
HEADER;
FILE_DESCRIPTION (( 'STEP AP203' ),
    '1' );
FILE_NAME ('Caliper Mount Front Right Updated STEP.STEP',
    '2024-04-11T04:31:11',
    ( '' ),
    ( '' ),
    'SwSTEP 2.0',
    'SolidWorks 2023',
    '' );
FILE_SCHEMA (( 'CONFIG_CONTROL_DESIGN' ));
ENDSEC;

DATA;
#1 = DIRECTION ( 'NONE',  ( -0.000000000000000000, -0.000000000000000000, 1.000000000000000000 ) ) ;
#2 = EDGE_CURVE ( 'NONE', #72, #135, #142, .T. ) ;
#3 = DIRECTION ( 'NONE',  ( -1.000000000000000000, 0.000000000000000000, 0.000000000000000000 ) ) ;
#4 = DIRECTION ( 'NONE',  ( -1.000000000000000000, 0.000000000000000000, 0.000000000000000000 ) ) ;
#5 = EDGE_CURVE ( 'NONE', #1095, #876, #417, .T. ) ;
#6 = EDGE_LOOP ( 'NONE', ( #408, #1017, #1136, #41 ) ) ;
#7 = AXIS2_PLACEMENT_3D ( 'NONE', #800, #1165, #537 ) ;
#8 = CARTESIAN_POINT ( 'NONE',  ( 3.697099999999999831, 0.1500000000000000222, -1.362000000000000099 ) ) ;
#9 = DIRECTION ( 'NONE',  ( -1.000000000000000000, 0.000000000000000000, 0.000000000000000000 ) ) ;
#10 = CARTESIAN_POINT ( 'NONE',  ( 3.604600000000000026, 0.4000000000000000777, -1.233949453823770748 ) ) ;
#11 = VECTOR ( 'NONE', #228, 39.37007874015748143 ) ;
#12 = ORIENTED_EDGE ( 'NONE', *, *, #57, .F. ) ;
#13 = EDGE_CURVE ( 'NONE', #566, #190, #130, .T. ) ;
#14 = AXIS2_PLACEMENT_3D ( 'NONE', #1115, #231, #504 ) ;
#15 = DIRECTION ( 'NONE',  ( 0.000000000000000000, 0.000000000000000000, -1.000000000000000000 ) ) ;
#16 = CARTESIAN_POINT ( 'NONE',  ( 3.354600000000000470, 0.1500000000000002720, -1.145175930449831014 ) ) ;
#17 = PERSON_AND_ORGANIZATION ( #538, #989 ) ;
#18 = CIRCLE ( 'NONE', #448, 0.1564999999999984459 ) ;
#19 = DIRECTION ( 'NONE',  ( -0.000000000000000000, 1.000000000000000000, -1.242251007628252106E-16 ) ) ;
#20 = ORIENTED_EDGE ( 'NONE', *, *, #957, .F. ) ;
#21 = LOCAL_TIME ( 21, 31, 11.00000000000000000, #1048 ) ;
#22 = DIRECTION ( 'NONE',  ( -1.000000000000000000, 0.000000000000000000, 0.000000000000000000 ) ) ;
#23 = EDGE_CURVE ( 'NONE', #1179, #587, #939, .T. ) ;
#24 = CIRCLE ( 'NONE', #397, 0.3614178643972082439 ) ;
#25 = CARTESIAN_POINT ( 'NONE',  ( 3.604600000000000026, 2.565061936357496464, -0.1250000000000000000 ) ) ;
#26 = DATE_AND_TIME ( #229, #640 ) ;
#27 = AXIS2_PLACEMENT_3D ( 'NONE', #918, #836, #651 ) ;
#28 = DIRECTION ( 'NONE',  ( 0.000000000000000000, 1.242251007628252352E-16, 1.000000000000000000 ) ) ;
#29 = ORIENTED_EDGE ( 'NONE', *, *, #143, .F. ) ;
#30 = AXIS2_PLACEMENT_3D ( 'NONE', #824, #746, #9 ) ;
#31 = EDGE_LOOP ( 'NONE', ( #555, #494, #432, #264 ) ) ;
#32 = CC_DESIGN_PERSON_AND_ORGANIZATION_ASSIGNMENT ( #576, #486, ( #947 ) ) ;
#33 = DIRECTION ( 'NONE',  ( -0.000000000000000000, 1.000000000000000000, -1.242251007628252106E-16 ) ) ;
#34 = VERTEX_POINT ( 'NONE', #240 ) ;
#35 = LINE ( 'NONE', #763, #433 ) ;
#36 = AXIS2_PLACEMENT_3D ( 'NONE', #859, #1022, #571 ) ;
#37 = CARTESIAN_POINT ( 'NONE',  ( 3.470990271657382387, 0.1787245440924298268, -0.8601521411105212955 ) ) ;
#38 = APPROVAL_DATE_TIME ( #949, #588 ) ;
#39 = PRODUCT_DEFINITION_SHAPE ( 'NONE', 'NONE',  #947 ) ;
#40 = EDGE_LOOP ( 'NONE', ( #609, #514 ) ) ;
#41 = ORIENTED_EDGE ( 'NONE', *, *, #605, .T. ) ;
#42 = APPROVAL_STATUS ( 'not_yet_approved' ) ;
#43 = CIRCLE ( 'NONE', #660, 0.2654999999999999583 ) ;
#44 = DIRECTION ( 'NONE',  ( 0.000000000000000000, 1.347065085633266536E-16, 1.000000000000000000 ) ) ;
#45 = ORIENTED_EDGE ( 'NONE', *, *, #438, .F. ) ;
#46 = ADVANCED_FACE ( 'NONE', ( #1031 ), #50, .F. ) ;
#47 = DIRECTION ( 'NONE',  ( -0.000000000000000000, -0.000000000000000000, -1.000000000000000000 ) ) ;
#48 = ADVANCED_BREP_SHAPE_REPRESENTATION ( 'Caliper Mount Front Right Updated STEP', ( #469, #450 ), #750 ) ;
#49 = ORIENTED_EDGE ( 'NONE', *, *, #476, .F. ) ;
#50 = CYLINDRICAL_SURFACE ( 'NONE', #320, 0.1564999999999984459 ) ;
#51 = COORDINATED_UNIVERSAL_TIME_OFFSET ( 8, 0, .BEHIND. ) ;
#52 = ORIENTED_EDGE ( 'NONE', *, *, #147, .T. ) ;
#53 = DIRECTION ( 'NONE',  ( -0.000000000000000000, -0.000000000000000000, -1.000000000000000000 ) ) ;
#54 = EDGE_LOOP ( 'NONE', ( #316, #424, #1166, #453, #854 ) ) ;
#55 = EDGE_CURVE ( 'NONE', #121, #151, #35, .T. ) ;
#56 = CARTESIAN_POINT ( 'NONE',  ( 3.697099999999999831, 0.1500000000000000222, -1.362000000000000099 ) ) ;
#57 = EDGE_CURVE ( 'NONE', #642, #974, #686, .T. ) ;
#58 = CARTESIAN_POINT ( 'NONE',  ( 0.3557000000000002382, 0.000000000000000000, -1.362000000000000322 ) ) ;
#59 = EDGE_LOOP ( 'NONE', ( #958, #1080, #512, #994, #757, #118 ) ) ;
#60 = DIRECTION ( 'NONE',  ( 0.000000000000000000, 1.214370551948907933E-16, 1.000000000000000000 ) ) ;
#61 = ORIENTED_EDGE ( 'NONE', *, *, #1149, .F. ) ;
#62 = CARTESIAN_POINT ( 'NONE',  ( 0.1981999999999999595, 0.1500000000000000222, -1.204500000000000348 ) ) ;
#63 = APPROVAL ( #1033, 'UNSPECIFIED' ) ;
#64 = CIRCLE ( 'NONE', #733, 0.3614178643972082439 ) ;
#65 = DIRECTION ( 'NONE',  ( -1.000000000000000000, 0.000000000000000000, 0.000000000000000000 ) ) ;
#66 = VERTEX_POINT ( 'NONE', #602 ) ;
#67 = CYLINDRICAL_SURFACE ( 'NONE', #541, 0.1406000000000000028 ) ;
#68 = EDGE_LOOP ( 'NONE', ( #129, #1009, #894, #20, #336, #944, #444, #483, #795 ) ) ;
#69 = VECTOR ( 'NONE', #817, 39.37007874015748143 ) ;
#70 = CARTESIAN_POINT ( 'NONE',  ( 3.354600000000000470, 0.1500000000000001887, -0.1250000000000000000 ) ) ;
#71 = VECTOR ( 'NONE', #83, 39.37007874015748143 ) ;
#72 = VERTEX_POINT ( 'NONE', #954 ) ;
#73 = CARTESIAN_POINT ( 'NONE',  ( 0.1981999999999989048, 0.8646723828161393399, 0.1250000000000000000 ) ) ;
#74 = AXIS2_PLACEMENT_3D ( 'NONE', #652, #1007, #741 ) ;
#75 = ADVANCED_FACE ( 'NONE', ( #137 ), #507, .T. ) ;
#76 = ORIENTED_EDGE ( 'NONE', *, *, #411, .F. ) ;
#77 = CARTESIAN_POINT ( 'NONE',  ( 3.223150898267721942, 0.1499999999999999944, -1.168000002677170857 ) ) ;
#78 = AXIS2_PLACEMENT_3D ( 'NONE', #518, #1170, #60 ) ;
#79 = VERTEX_POINT ( 'NONE', #692 ) ;
#80 = LOCAL_TIME ( 21, 31, 11.00000000000000000, #113 ) ;
#81 = EDGE_LOOP ( 'NONE', ( #937, #628, #701, #684 ) ) ;
#82 = AXIS2_PLACEMENT_3D ( 'NONE', #962, #122, #846 ) ;
#83 = DIRECTION ( 'NONE',  ( -9.106159978880879367E-16, 1.000000000000000000, -0.000000000000000000 ) ) ;
#84 = AXIS2_PLACEMENT_3D ( 'NONE', #306, #740, #461 ) ;
#85 = FACE_OUTER_BOUND ( 'NONE', #594, .T. ) ;
#86 = DIRECTION ( 'NONE',  ( 0.000000000000000000, 1.214370551948906701E-16, 1.000000000000000000 ) ) ;
#87 = ORIENTED_EDGE ( 'NONE', *, *, #250, .T. ) ;
#88 = LINE ( 'NONE', #1097, #959 ) ;
#89 = CARTESIAN_POINT ( 'NONE',  ( 3.373498573566605430, 0.1500000000000001332, -0.7092042835521136235 ) ) ;
#90 = EDGE_LOOP ( 'NONE', ( #788, #266, #1159, #753 ) ) ;
#91 = DIRECTION ( 'NONE',  ( 0.000000000000000000, -1.000000000000000000, 1.242251007628252106E-16 ) ) ;
#92 = EDGE_CURVE ( 'NONE', #874, #402, #224, .T. ) ;
#93 = CARTESIAN_POINT ( 'NONE',  ( 3.223150898267721942, 0.1500000000000000777, -0.9145000026771710200 ) ) ;
#94 = EDGE_CURVE ( 'NONE', #1179, #79, #331, .T. ) ;
#95 = LINE ( 'NONE', #756, #737 ) ;
#96 = ORIENTED_EDGE ( 'NONE', *, *, #505, .F. ) ;
#97 = CARTESIAN_POINT ( 'NONE',  ( 2.305954304611272487, 2.565061936357496464, -0.1250000000000000000 ) ) ;
#98 = DIRECTION ( 'NONE',  ( -1.000000000000000000, 0.000000000000000000, 0.000000000000000000 ) ) ;
#99 = EDGE_CURVE ( 'NONE', #319, #1078, #344, .T. ) ;
#100 = CARTESIAN_POINT ( 'NONE',  ( 3.223150898267721942, -1.191263505159599148E-16, -0.7739000026771709617 ) ) ;
#101 = VECTOR ( 'NONE', #325, 39.37007874015748143 ) ;
#102 = ORIENTED_EDGE ( 'NONE', *, *, #489, .T. ) ;
#103 = CARTESIAN_POINT ( 'NONE',  ( 0.1981999999999989048, 0.8646723828161393399, -0.1250000000000000000 ) ) ;
#104 = CARTESIAN_POINT ( 'NONE',  ( 1.252368723696675623, 0.6485739743829481707, 0.1250000000000000000 ) ) ;
#105 = CARTESIAN_POINT ( 'NONE',  ( 1.454277664564902706, 0.9483332983461802979, 0.000000000000000000 ) ) ;
#106 = CARTESIAN_POINT ( 'NONE',  ( 1.776110493848743976, 1.426134781135692364, 0.000000000000000000 ) ) ;
#107 = DIRECTION ( 'NONE',  ( -0.000000000000000000, -1.000000000000000000, -0.000000000000000000 ) ) ;
#108 = ORIENTED_EDGE ( 'NONE', *, *, #438, .T. ) ;
#109 = EDGE_CURVE ( 'NONE', #888, #566, #1148, .T. ) ;
#110 = CARTESIAN_POINT ( 'NONE',  ( 3.854600000000000026, 2.565061936357496464, 0.000000000000000000 ) ) ;
#111 = DIRECTION ( 'NONE',  ( -0.000000000000000000, -0.000000000000000000, -1.000000000000000000 ) ) ;
#112 = PLANE ( 'NONE',  #945 ) ;
#113 = COORDINATED_UNIVERSAL_TIME_OFFSET ( 8, 0, .BEHIND. ) ;
#114 = DIRECTION ( 'NONE',  ( 6.276959979136479370E-47, -6.893092141686598532E-32, 1.000000000000000000 ) ) ;
#115 = ORIENTED_EDGE ( 'NONE', *, *, #936, .T. ) ;
#116 = DIRECTION ( 'NONE',  ( 0.000000000000000000, -1.000000000000000000, 1.242251007628252106E-16 ) ) ;
#117 = EDGE_CURVE ( 'NONE', #637, #258, #1001, .T. ) ;
#118 = ORIENTED_EDGE ( 'NONE', *, *, #1060, .T. ) ;
#119 = CARTESIAN_POINT ( 'NONE',  ( 3.473893634924400065, 0.1802096353146950269, -0.9577154110680830001 ) ) ;
#120 = CARTESIAN_POINT ( 'NONE',  ( 5.120298621315516385, 0.1500000000000001887, -0.1250000000000000000 ) ) ;
#121 = VERTEX_POINT ( 'NONE', #720 ) ;
#122 = DIRECTION ( 'NONE',  ( -0.000000000000000000, 1.000000000000000000, -1.242251007628252106E-16 ) ) ;
#123 = AXIS2_PLACEMENT_3D ( 'NONE', #503, #866, #583 ) ;
#124 = AXIS2_PLACEMENT_3D ( 'NONE', #558, #1, #373 ) ;
#125 = VECTOR ( 'NONE', #47, 39.37007874015748143 ) ;
#126 = EDGE_LOOP ( 'NONE', ( #509, #699, #1171, #162 ) ) ;
#127 = PERSON_AND_ORGANIZATION ( #538, #989 ) ;
#128 = VECTOR ( 'NONE', #1162, 39.37007874015748143 ) ;
#129 = ORIENTED_EDGE ( 'NONE', *, *, #369, .T. ) ;
#130 = LINE ( 'NONE', #1134, #770 ) ;
#131 = CIRCLE ( 'NONE', #191, 0.2499999999999998057 ) ;
#132 = COORDINATED_UNIVERSAL_TIME_OFFSET ( 8, 0, .BEHIND. ) ;
#133 = EDGE_CURVE ( 'NONE', #309, #465, #1167, .T. ) ;
#134 = DIRECTION ( 'NONE',  ( 0.000000000000000000, -0.8900408142482573171, -0.4558808495345019196 ) ) ;
#135 = VERTEX_POINT ( 'NONE', #77 ) ;
#136 = VECTOR ( 'NONE', #385, 39.37007874015748143 ) ;
#137 = FACE_OUTER_BOUND ( 'NONE', #600, .T. ) ;
#138 = VECTOR ( 'NONE', #305, 39.37007874015748143 ) ;
#139 = AXIS2_PLACEMENT_3D ( 'NONE', #1077, #257, #65 ) ;
#140 = ORIENTED_EDGE ( 'NONE', *, *, #193, .F. ) ;
#141 = CARTESIAN_POINT ( 'NONE',  ( 2.097943323132557492, 1.903936263925223304, 0.1250000000000000000 ) ) ;
#142 = LINE ( 'NONE', #676, #278 ) ;
#143 = EDGE_CURVE ( 'NONE', #1078, #506, #358, .T. ) ;
#144 = ORIENTED_EDGE ( 'NONE', *, *, #167, .T. ) ;
#145 = LINE ( 'NONE', #632, #330 ) ;
#146 = ORIENTED_EDGE ( 'NONE', *, *, #1013, .T. ) ;
#147 = EDGE_CURVE ( 'NONE', #350, #896, #709, .T. ) ;
#148 = CARTESIAN_POINT ( 'NONE',  ( 2.456352264000777108, 2.203695587888485186, 0.1250000000000000000 ) ) ;
#149 = CARTESIAN_POINT ( 'NONE',  ( 3.454481323466790599, 0.1705425705216303822, -0.8086344689241936612 ) ) ;
#150 = DIRECTION ( 'NONE',  ( -1.000000000000000000, -8.672533313219883233E-16, 0.000000000000000000 ) ) ;
#151 = VERTEX_POINT ( 'NONE', #790 ) ;
#152 = CARTESIAN_POINT ( 'NONE',  ( 0.1982000000000000983, 0.1500000000000001887, -0.1250000000000000000 ) ) ;
#153 = VERTEX_POINT ( 'NONE', #261 ) ;
#154 = LINE ( 'NONE', #534, #885 ) ;
#155 = APPROVAL ( #242, 'UNSPECIFIED' ) ;
#156 = DIRECTION ( 'NONE',  ( -1.000000000000000000, 0.000000000000000000, 0.000000000000000000 ) ) ;
#157 = EDGE_LOOP ( 'NONE', ( #924, #704 ) ) ;
#158 = ORIENTED_EDGE ( 'NONE', *, *, #1152, .T. ) ;
#159 = CARTESIAN_POINT ( 'NONE',  ( 0.1982000000000000983, 1.804840907814190915E-16, 0.1250000000000000000 ) ) ;
#160 = ADVANCED_FACE ( 'NONE', ( #629 ), #246, .T. ) ;
#161 = CARTESIAN_POINT ( 'NONE',  ( 1.252368723696675623, 0.6485739743829481707, 0.000000000000000000 ) ) ;
#162 = ORIENTED_EDGE ( 'NONE', *, *, #55, .T. ) ;
#163 = CARTESIAN_POINT ( 'NONE',  ( 2.299852264000778579, 2.203695587888485186, -0.1250000000000000000 ) ) ;
#164 = EDGE_LOOP ( 'NONE', ( #96, #491, #1067, #845 ) ) ;
#165 = VECTOR ( 'NONE', #1000, 39.37007874015748143 ) ;
#166 = CARTESIAN_POINT ( 'NONE',  ( 3.354600000000000470, 0.1499999999999999944, -1.131256510431326134 ) ) ;
#167 = EDGE_CURVE ( 'NONE', #592, #439, #792, .T. ) ;
#168 = ORIENTED_EDGE ( 'NONE', *, *, #13, .F. ) ;
#169 = CARTESIAN_POINT ( 'NONE',  ( 3.854600000000000026, 2.565061936357496464, -0.1250000000000000000 ) ) ;
#170 = ORIENTED_EDGE ( 'NONE', *, *, #887, .F. ) ;
#171 = CIRCLE ( 'NONE', #745, 0.5760821356028134055 ) ;
#172 = CARTESIAN_POINT ( 'NONE',  ( 1.022363496692916263, -1.540584488504663824E-16, -1.055100002677173299 ) ) ;
#173 = DIRECTION ( 'NONE',  ( 0.000000000000000000, 1.242251007628252106E-16, 1.000000000000000000 ) ) ;
#174 = APPROVAL_PERSON_ORGANIZATION ( #961, #155, #612 ) ;
#175 = ORIENTED_EDGE ( 'NONE', *, *, #1117, .F. ) ;
#176 = DIRECTION ( 'NONE',  ( -1.000000000000000000, 0.000000000000000000, 0.000000000000000000 ) ) ;
#177 = CIRCLE ( 'NONE', #1058, 0.3614178643971866500 ) ;
#178 = CARTESIAN_POINT ( 'NONE',  ( 1.938434399603570224, 2.203695587888485186, -0.1250000000000000000 ) ) ;
#179 = DIRECTION ( 'NONE',  ( 0.000000000000000000, 0.7547095802227719030, 0.6560590289905073869 ) ) ;
#180 = AXIS2_PLACEMENT_3D ( 'NONE', #382, #658, #1011 ) ;
#181 = EDGE_CURVE ( 'NONE', #121, #348, #1156, .T. ) ;
#182 = EDGE_LOOP ( 'NONE', ( #777, #1127, #722, #1037, #146 ) ) ;
#183 = CARTESIAN_POINT ( 'NONE',  ( 5.120298621315516385, 0.1500000000000001887, -0.1250000000000000000 ) ) ;
#184 = EDGE_CURVE ( 'NONE', #253, #1004, #220, .T. ) ;
#185 = CARTESIAN_POINT ( 'NONE',  ( 3.354600000000000470, 0.1500000000000001887, -0.1250000000000000000 ) ) ;
#186 = AXIS2_PLACEMENT_3D ( 'NONE', #883, #809, #620 ) ;
#187 = CARTESIAN_POINT ( 'NONE',  ( 0.000000000000000000, 2.565061936357496464, -0.1250000000000000000 ) ) ;
#188 = CARTESIAN_POINT ( 'NONE',  ( 3.223150898267721942, 0.1500000000000000777, -0.6610000026771711834 ) ) ;
#189 = PERSON_AND_ORGANIZATION ( #538, #989 ) ;
#190 = VERTEX_POINT ( 'NONE', #625 ) ;
#191 = AXIS2_PLACEMENT_3D ( 'NONE', #211, #1034, #765 ) ;
#192 = DIRECTION ( 'NONE',  ( -1.000000000000000000, 0.000000000000000000, 0.000000000000000000 ) ) ;
#193 = EDGE_CURVE ( 'NONE', #314, #781, #404, .T. ) ;
#194 = FACE_OUTER_BOUND ( 'NONE', #164, .T. ) ;
#195 = CARTESIAN_POINT ( 'NONE',  ( 1.022363496692916263, -1.191263505159599394E-16, -0.7739000026771732932 ) ) ;
#196 = DIRECTION ( 'NONE',  ( 0.000000000000000000, 1.214370551948907933E-16, 1.000000000000000000 ) ) ;
#197 = ORIENTED_EDGE ( 'NONE', *, *, #865, .F. ) ;
#198 = DIRECTION ( 'NONE',  ( 0.000000000000000000, -0.000000000000000000, 1.000000000000000000 ) ) ;
#199 = AXIS2_PLACEMENT_3D ( 'NONE', #573, #111, #723 ) ;
#200 = DIRECTION ( 'NONE',  ( -1.000000000000000000, 0.000000000000000000, 0.000000000000000000 ) ) ;
#201 = CARTESIAN_POINT ( 'NONE',  ( 5.120298621315516385, -0.1180000000000000909, -1.362000000000000322 ) ) ;
#202 = PERSON_AND_ORGANIZATION_ROLE ( 'design_supplier' ) ;
#203 = ADVANCED_FACE ( 'NONE', ( #1071 ), #981, .F. ) ;
#204 = CARTESIAN_POINT ( 'NONE',  ( 0.1982000000000000983, 0.1500000000000000500, -1.204500000000000348 ) ) ;
#205 = CARTESIAN_POINT ( 'NONE',  ( 1.408868723696675707, 0.6485739743829481707, 0.000000000000000000 ) ) ;
#206 = EDGE_LOOP ( 'NONE', ( #296, #1140, #631, #1110 ) ) ;
#207 = DIRECTION ( 'NONE',  ( -1.000000000000000000, 0.000000000000000000, 0.000000000000000000 ) ) ;
#208 = CARTESIAN_POINT ( 'NONE',  ( 1.252368723696675623, 0.6485739743829481707, 0.1250000000000000000 ) ) ;
#209 = DIRECTION ( 'NONE',  ( -0.000000000000000000, 1.000000000000000000, -1.242251007628252106E-16 ) ) ;
#210 = APPROVAL_ROLE ( '' ) ;
#211 = CARTESIAN_POINT ( 'NONE',  ( 3.354600000000000470, 0.4000000000000001887, -0.1250000000000000000 ) ) ;
#212 = ORIENTED_EDGE ( 'NONE', *, *, #181, .T. ) ;
#213 = DIRECTION ( 'NONE',  ( -9.106159978880879367E-16, 1.000000000000000000, 0.000000000000000000 ) ) ;
#214 = DIRECTION ( 'NONE',  ( 0.000000000000000000, 1.242251007628252352E-16, 1.000000000000000000 ) ) ;
#215 = CARTESIAN_POINT ( 'NONE',  ( 0.000000000000000000, 0.000000000000000000, 0.000000000000000000 ) ) ;
#216 = APPROVAL_DATE_TIME ( #1130, #63 ) ;
#217 = LINE ( 'NONE', #923, #288 ) ;
#218 = ORIENTED_EDGE ( 'NONE', *, *, #1149, .T. ) ;
#219 = ORIENTED_EDGE ( 'NONE', *, *, #976, .F. ) ;
#220 =( BOUNDED_CURVE ( )  B_SPLINE_CURVE ( 3, ( #56, #797, #897, #425 ),
 .UNSPECIFIED., .F., .F. ) 
 B_SPLINE_CURVE_WITH_KNOTS ( ( 4, 4 ),
 ( 3.141592653589793116, 4.712388980384689674 ),
 .UNSPECIFIED. ) 
 CURVE ( )  GEOMETRIC_REPRESENTATION_ITEM ( )  RATIONAL_B_SPLINE_CURVE ( ( 1.000000000000000000, 0.8047378541243649375, 0.8047378541243649375, 1.000000000000000000 ) ) 
 REPRESENTATION_ITEM ( '' )  );
#221 = DIRECTION ( 'NONE',  ( 0.000000000000000000, -0.000000000000000000, -1.000000000000000000 ) ) ;
#222 = VERTEX_POINT ( 'NONE', #454 ) ;
#223 = ADVANCED_FACE ( 'NONE', ( #702, #872, #975 ), #713, .F. ) ;
#224 = CIRCLE ( 'NONE', #375, 0.1406000000000000028 ) ;
#225 = VECTOR ( 'NONE', #53, 39.37007874015748143 ) ;
#226 = VERTEX_POINT ( 'NONE', #166 ) ;
#227 = EDGE_CURVE ( 'NONE', #1004, #439, #154, .T. ) ;
#228 = DIRECTION ( 'NONE',  ( 1.000000000000000000, 0.000000000000000000, 0.000000000000000000 ) ) ;
#229 = CALENDAR_DATE ( 2024, 10, 4 ) ;
#230 = VECTOR ( 'NONE', #1114, 39.37007874015748143 ) ;
#231 = DIRECTION ( 'NONE',  ( -0.000000000000000000, -0.000000000000000000, -1.000000000000000000 ) ) ;
#232 = AXIS2_PLACEMENT_3D ( 'NONE', #1064, #251, #971 ) ;
#233 = ORIENTED_EDGE ( 'NONE', *, *, #476, .T. ) ;
#234 = DIRECTION ( 'NONE',  ( -1.000000000000000000, 0.000000000000000000, 0.000000000000000000 ) ) ;
#235 = CONICAL_SURFACE ( 'NONE', #1050, 0.2534999999999998921, 0.7155849933176759992 ) ;
#236 = ADVANCED_FACE ( 'NONE', ( #527 ), #449, .T. ) ;
#237 = CARTESIAN_POINT ( 'NONE',  ( 3.473080887844310016, 0.1798526018550632433, -0.8707351715341192788 ) ) ;
#238 = ORIENTED_EDGE ( 'NONE', *, *, #697, .F. ) ;
#239 = AXIS2_PLACEMENT_3D ( 'NONE', #565, #811, #481 ) ;
#240 = CARTESIAN_POINT ( 'NONE',  ( 3.223150898267721942, 0.1500000000000000777, -0.6610000026771711834 ) ) ;
#241 = CC_DESIGN_APPROVAL ( #63, ( #947 ) ) ;
#242 = APPROVAL_STATUS ( 'not_yet_approved' ) ;
#243 = AXIS2_PLACEMENT_3D ( 'NONE', #868, #213, #150 ) ;
#244 = EDGE_CURVE ( 'NONE', #222, #422, #847, .T. ) ;
#245 = EDGE_LOOP ( 'NONE', ( #419, #1074 ) ) ;
#246 = PLANE ( 'NONE',  #284 ) ;
#247 = CARTESIAN_POINT ( 'NONE',  ( 3.412918730794232580, 0.1567760907421432981, -0.7460737958936171088 ) ) ;
#248 = EDGE_LOOP ( 'NONE', ( #768, #616 ) ) ;
#249 = FACE_OUTER_BOUND ( 'NONE', #6, .T. ) ;
#250 = EDGE_CURVE ( 'NONE', #309, #66, #88, .T. ) ;
#251 = DIRECTION ( 'NONE',  ( 0.000000000000000000, 0.000000000000000000, -1.000000000000000000 ) ) ;
#252 = CYLINDRICAL_SURFACE ( 'NONE', #490, 0.3614178643972082439 ) ;
#253 = VERTEX_POINT ( 'NONE', #8 ) ;
#254 = DIRECTION ( 'NONE',  ( -0.000000000000000000, -0.000000000000000000, -1.000000000000000000 ) ) ;
#255 = ORIENTED_EDGE ( 'NONE', *, *, #167, .F. ) ;
#256 = DIRECTION ( 'NONE',  ( -0.000000000000000000, -1.242251007628252106E-16, -1.000000000000000000 ) ) ;
#257 = DIRECTION ( 'NONE',  ( 0.000000000000000000, 0.000000000000000000, 1.000000000000000000 ) ) ;
#258 = VERTEX_POINT ( 'NONE', #1086 ) ;
#259 = FACE_OUTER_BOUND ( 'NONE', #984, .T. ) ;
#260 = ORIENTED_EDGE ( 'NONE', *, *, #539, .F. ) ;
#261 = CARTESIAN_POINT ( 'NONE',  ( 1.022363496692916263, 0.1500000000000000777, -0.6610000026771732928 ) ) ;
#262 = ADVANCED_FACE ( 'NONE', ( #361 ), #1019, .F. ) ;
#263 = DIRECTION ( 'NONE',  ( -1.000000000000000000, 0.000000000000000000, 0.000000000000000000 ) ) ;
#264 = ORIENTED_EDGE ( 'NONE', *, *, #828, .F. ) ;
#265 = DIRECTION ( 'NONE',  ( -0.000000000000000000, -0.000000000000000000, -1.000000000000000000 ) ) ;
#266 = ORIENTED_EDGE ( 'NONE', *, *, #92, .F. ) ;
#267 = CARTESIAN_POINT ( 'NONE',  ( 3.697099999999999831, 0.000000000000000000, -1.204500000000000348 ) ) ;
#268 = DIRECTION ( 'NONE',  ( -1.000000000000000000, -0.000000000000000000, 0.000000000000000000 ) ) ;
#269 = EDGE_LOOP ( 'NONE', ( #29, #977, #1145, #618 ) ) ;
#270 = CARTESIAN_POINT ( 'NONE',  ( 1.022363496692916263, 0.1500000000000002998, -0.9145000026771732404 ) ) ;
#271 = ADVANCED_FACE ( 'NONE', ( #290 ), #907, .F. ) ;
#272 = DIRECTION ( 'NONE',  ( -0.000000000000000000, -0.000000000000000000, 1.000000000000000000 ) ) ;
#273 = LOCAL_TIME ( 21, 31, 11.00000000000000000, #850 ) ;
#274 = EDGE_CURVE ( 'NONE', #258, #637, #43, .T. ) ;
#275 = DESIGN_CONTEXT ( 'detailed design', #556, 'design' ) ;
#276 = DIRECTION ( 'NONE',  ( -0.000000000000000000, -1.242251007628252106E-16, -1.000000000000000000 ) ) ;
#277 = CARTESIAN_POINT ( 'NONE',  ( 3.501046609406726073, 0.1499999999999999667, -1.362000000000000322 ) ) ;
#278 = VECTOR ( 'NONE', #511, 39.37007874015748143 ) ;
#279 = VECTOR ( 'NONE', #525, 39.37007874015748143 ) ;
#280 = VECTOR ( 'NONE', #1101, 39.37007874015748143 ) ;
#281 = ORIENTED_EDGE ( 'NONE', *, *, #816, .T. ) ;
#282 = EDGE_CURVE ( 'NONE', #1023, #1043, #451, .T. ) ;
#283 = DIRECTION ( 'NONE',  ( -0.000000000000000000, 1.000000000000000000, -1.242251007628252106E-16 ) ) ;
#284 = AXIS2_PLACEMENT_3D ( 'NONE', #159, #611, #352 ) ;
#285 = LINE ( 'NONE', #187, #230 ) ;
#286 = CARTESIAN_POINT ( 'NONE',  ( 5.120298621315516385, 0.1500000000000001887, -0.1250000000000000000 ) ) ;
#287 = ORIENTED_EDGE ( 'NONE', *, *, #563, .T. ) ;
#288 = VECTOR ( 'NONE', #114, 39.37007874015748143 ) ;
#289 = ADVANCED_FACE ( 'NONE', ( #656, #484, #925 ), #1010, .F. ) ;
#290 = FACE_OUTER_BOUND ( 'NONE', #452, .T. ) ;
#291 = LINE ( 'NONE', #991, #644 ) ;
#292 = ADVANCED_FACE ( 'NONE', ( #551 ), #1113, .F. ) ;
#293 = CARTESIAN_POINT ( 'NONE',  ( 3.854600000000000026, 0.000000000000000000, 0.000000000000000000 ) ) ;
#294 = DIRECTION ( 'NONE',  ( 0.000000000000000000, 1.000000000000000000, 0.000000000000000000 ) ) ;
#295 = CARTESIAN_POINT ( 'NONE',  ( 3.354600000000000470, 0.1500000000000001887, -0.1250000000000000000 ) ) ;
#296 = ORIENTED_EDGE ( 'NONE', *, *, #848, .F. ) ;
#297 = DIRECTION ( 'NONE',  ( 0.000000000000000000, 0.000000000000000000, -1.000000000000000000 ) ) ;
#298 = CIRCLE ( 'NONE', #82, 0.2534999999999998921 ) ;
#299 = AXIS2_PLACEMENT_3D ( 'NONE', #716, #878, #793 ) ;
#300 = CARTESIAN_POINT ( 'NONE',  ( 1.454277664564902706, 0.9483332983461802979, -0.1250000000000000000 ) ) ;
#301 = CC_DESIGN_PERSON_AND_ORGANIZATION_ASSIGNMENT ( #689, #202, ( #543 ) ) ;
#302 = CARTESIAN_POINT ( 'NONE',  ( 1.022363496692916263, 0.1500000000000000500, -0.9145000026771732404 ) ) ;
#303 = LINE ( 'NONE', #599, #1105 ) ;
#304 = ORIENTED_EDGE ( 'NONE', *, *, #23, .F. ) ;
#305 = DIRECTION ( 'NONE',  ( -0.000000000000000000, -0.000000000000000000, -1.000000000000000000 ) ) ;
#306 = CARTESIAN_POINT ( 'NONE',  ( 1.252368723696675623, 0.6485739743829481707, 0.1250000000000000000 ) ) ;
#307 = DIRECTION ( 'NONE',  ( -0.000000000000000000, -0.000000000000000000, -1.000000000000000000 ) ) ;
#308 = DIRECTION ( 'NONE',  ( 0.000000000000000000, -1.000000000000000000, 0.000000000000000000 ) ) ;
#309 = VERTEX_POINT ( 'NONE', #567 ) ;
#310 = CARTESIAN_POINT ( 'NONE',  ( 2.299852264000778579, 2.203695587888485186, -0.1250000000000000000 ) ) ;
#311 = ORIENTED_EDGE ( 'NONE', *, *, #887, .T. ) ;
#312 = LINE ( 'NONE', #418, #645 ) ;
#313 = ADVANCED_FACE ( 'NONE', ( #557 ), #901, .F. ) ;
#314 = VERTEX_POINT ( 'NONE', #820 ) ;
#315 = EDGE_CURVE ( 'NONE', #66, #222, #1012, .T. ) ;
#316 = ORIENTED_EDGE ( 'NONE', *, *, #597, .F. ) ;
#317 = CARTESIAN_POINT ( 'NONE',  ( 1.408868723696675707, 0.6485739743829481707, 0.1250000000000000000 ) ) ;
#318 = DIRECTION ( 'NONE',  ( 0.000000000000000000, 1.214370551948906701E-16, 1.000000000000000000 ) ) ;
#319 = VERTEX_POINT ( 'NONE', #762 ) ;
#320 = AXIS2_PLACEMENT_3D ( 'NONE', #498, #849, #322 ) ;
#321 = EDGE_CURVE ( 'NONE', #1142, #808, #533, .T. ) ;
#322 = DIRECTION ( 'NONE',  ( -1.000000000000000000, 0.000000000000000000, 0.000000000000000000 ) ) ;
#323 = DIRECTION ( 'NONE',  ( -0.000000000000000000, -0.000000000000000000, 1.000000000000000000 ) ) ;
#324 = ORIENTED_EDGE ( 'NONE', *, *, #327, .F. ) ;
#325 = DIRECTION ( 'NONE',  ( -0.000000000000000000, -1.242251007628252106E-16, -1.000000000000000000 ) ) ;
#326 = DATE_TIME_ROLE ( 'classification_date' ) ;
#327 = EDGE_CURVE ( 'NONE', #135, #34, #298, .T. ) ;
#328 = UNCERTAINTY_MEASURE_WITH_UNIT (LENGTH_MEASURE( 1.000000000000000082E-05 ), #1027, 'distance_accuracy_value', 'NONE');
#329 = ORIENTED_EDGE ( 'NONE', *, *, #274, .F. ) ;
#330 = VECTOR ( 'NONE', #623, 39.37007874015748143 ) ;
#331 = LINE ( 'NONE', #1075, #1038 ) ;
#332 = ADVANCED_FACE ( 'NONE', ( #497 ), #758, .T. ) ;
#333 = CIRCLE ( 'NONE', #299, 0.1406000000000001415 ) ;
#334 = EDGE_LOOP ( 'NONE', ( #378, #694, #561, #965 ) ) ;
#335 = DIRECTION ( 'NONE',  ( -0.000000000000000000, -0.000000000000000000, -1.000000000000000000 ) ) ;
#336 = ORIENTED_EDGE ( 'NONE', *, *, #995, .F. ) ;
#337 = DIRECTION ( 'NONE',  ( 9.106159978880879367E-16, -1.000000000000000000, 0.000000000000000000 ) ) ;
#338 = AXIS2_PLACEMENT_3D ( 'NONE', #163, #979, #1073 ) ;
#339 = CIRCLE ( 'NONE', #74, 0.1406000000000001415 ) ;
#340 = FACE_BOUND ( 'NONE', #40, .T. ) ;
#341 = ORIENTED_EDGE ( 'NONE', *, *, #1026, .F. ) ;
#342 =( BOUNDED_CURVE ( )  B_SPLINE_CURVE ( 3, ( #564, #277, #399, #10 ),
 .UNSPECIFIED., .F., .T. ) 
 B_SPLINE_CURVE_WITH_KNOTS ( ( 4, 4 ),
 ( 3.141592653589793116, 4.712388980384689674 ),
 .UNSPECIFIED. ) 
 CURVE ( )  GEOMETRIC_REPRESENTATION_ITEM ( )  RATIONAL_B_SPLINE_CURVE ( ( 1.000000000000000000, 0.8047378541243649375, 0.8047378541243649375, 1.000000000000000000 ) ) 
 REPRESENTATION_ITEM ( '' )  );
#343 = CARTESIAN_POINT ( 'NONE',  ( 1.022363496692916263, 0.1500000000000003553, -0.6490000026771732822 ) ) ;
#344 = CIRCLE ( 'NONE', #649, 0.3614178643972082439 ) ;
#345 = ORIENTED_EDGE ( 'NONE', *, *, #5, .F. ) ;
#346 = CARTESIAN_POINT ( 'NONE',  ( 1.022363496692916263, 0.1500000000000002998, -0.9145000026771732404 ) ) ;
#347 = CIRCLE ( 'NONE', #14, 0.1565000000000000835 ) ;
#348 = VERTEX_POINT ( 'NONE', #58 ) ;
#349 = CARTESIAN_POINT ( 'NONE',  ( 2.143352264000780050, 2.203695587888485186, 0.000000000000000000 ) ) ;
#350 = VERTEX_POINT ( 'NONE', #776 ) ;
#351 = ADVANCED_FACE ( 'NONE', ( #581 ), #665, .T. ) ;
#352 = DIRECTION ( 'NONE',  ( 9.106159978880879367E-16, -1.000000000000000000, 0.000000000000000000 ) ) ;
#353 = CARTESIAN_POINT ( 'NONE',  ( 1.022363496692916263, 0.1500000000000000500, -0.9145000026771732404 ) ) ;
#354 = AXIS2_PLACEMENT_3D ( 'NONE', #208, #380, #192 ) ;
#355 = VERTEX_POINT ( 'NONE', #110 ) ;
#356 = DIRECTION ( 'NONE',  ( 0.000000000000000000, 1.347065085633266536E-16, 1.000000000000000000 ) ) ;
#357 = ORIENTED_EDGE ( 'NONE', *, *, #133, .F. ) ;
#358 = LINE ( 'NONE', #442, #829 ) ;
#359 = FACE_OUTER_BOUND ( 'NONE', #90, .T. ) ;
#360 = ORIENTED_EDGE ( 'NONE', *, *, #244, .T. ) ;
#361 = FACE_OUTER_BOUND ( 'NONE', #31, .T. ) ;
#362 = EDGE_CURVE ( 'NONE', #781, #190, #898, .T. ) ;
#363 = EDGE_CURVE ( 'NONE', #808, #506, #24, .T. ) ;
#364 = CYLINDRICAL_SURFACE ( 'NONE', #239, 0.2500000000000000000 ) ;
#365 = ORIENTED_EDGE ( 'NONE', *, *, #143, .T. ) ;
#366 = DIRECTION ( 'NONE',  ( -0.000000000000000000, 1.000000000000000000, -1.242251007628252106E-16 ) ) ;
#367 = DIRECTION ( 'NONE',  ( -0.000000000000000000, -0.000000000000000000, -1.000000000000000000 ) ) ;
#368 = CARTESIAN_POINT ( 'NONE',  ( 2.456352264000777108, 2.203695587888485186, -0.1250000000000000000 ) ) ;
#369 = EDGE_CURVE ( 'NONE', #1024, #371, #177, .T. ) ;
#370 = DIRECTION ( 'NONE',  ( -0.000000000000000000, 1.000000000000000000, -1.242251007628252106E-16 ) ) ;
#371 = VERTEX_POINT ( 'NONE', #463 ) ;
#372 = DIRECTION ( 'NONE',  ( 0.000000000000000000, 1.347065085633266536E-16, 1.000000000000000000 ) ) ;
#373 = DIRECTION ( 'NONE',  ( -1.000000000000000000, 0.000000000000000000, 0.000000000000000000 ) ) ;
#374 = DIRECTION ( 'NONE',  ( -0.000000000000000000, 1.000000000000000000, -1.242251007628252106E-16 ) ) ;
#375 = AXIS2_PLACEMENT_3D ( 'NONE', #1053, #672, #214 ) ;
#376 = DIRECTION ( 'NONE',  ( 0.000000000000000000, -1.000000000000000000, 1.242251007628252106E-16 ) ) ;
#377 = CIRCLE ( 'NONE', #996, 0.1406000000000001415 ) ;
#378 = ORIENTED_EDGE ( 'NONE', *, *, #369, .F. ) ;
#379 = ADVANCED_FACE ( 'NONE', ( #523, #340, #621 ), #806, .F. ) ;
#380 = DIRECTION ( 'NONE',  ( -0.000000000000000000, -0.000000000000000000, -1.000000000000000000 ) ) ;
#381 = AXIS2_PLACEMENT_3D ( 'NONE', #1032, #1139, #603 ) ;
#382 = CARTESIAN_POINT ( 'NONE',  ( 0.1981999999999989048, 0.8646723828161393399, 0.000000000000000000 ) ) ;
#383 = AXIS2_PLACEMENT_3D ( 'NONE', #803, #813, #297 ) ;
#384 = LINE ( 'NONE', #659, #440 ) ;
#385 = DIRECTION ( 'NONE',  ( 0.000000000000000000, 1.242251007628252106E-16, 1.000000000000000000 ) ) ;
#386 = ORIENTED_EDGE ( 'NONE', *, *, #605, .F. ) ;
#387 = AXIS2_PLACEMENT_3D ( 'NONE', #493, #308, #221 ) ;
#388 = DIRECTION ( 'NONE',  ( -1.000000000000000000, 0.000000000000000000, 0.000000000000000000 ) ) ;
#389 = ADVANCED_FACE ( 'NONE', ( #1173 ), #840, .F. ) ;
#390 = FACE_OUTER_BOUND ( 'NONE', #860, .T. ) ;
#391 = LINE ( 'NONE', #748, #532 ) ;
#392 = CARTESIAN_POINT ( 'NONE',  ( 3.604600000000000026, 0.4000000000000001887, -4.969004030513010887E-17 ) ) ;
#393 = LINE ( 'NONE', #578, #601 ) ;
#394 = EDGE_LOOP ( 'NONE', ( #197, #441, #1124, #1122, #624, #1061, #823 ) ) ;
#395 = APPROVAL_PERSON_ORGANIZATION ( #596, #63, #210 ) ;
#396 = AXIS2_PLACEMENT_3D ( 'NONE', #429, #1018, #207 ) ;
#397 = AXIS2_PLACEMENT_3D ( 'NONE', #310, #1030, #156 ) ;
#398 = CARTESIAN_POINT ( 'NONE',  ( 0.1982000000000000983, 5.488484495316622790E-23, 0.000000000000000000 ) ) ;
#399 = CARTESIAN_POINT ( 'NONE',  ( 3.604600000000000026, 0.2535533905932736976, -1.308959727104523685 ) ) ;
#400 = CALENDAR_DATE ( 2024, 10, 4 ) ;
#401 = CARTESIAN_POINT ( 'NONE',  ( 3.223150898267721942, 0.1500000000000000500, -0.9145000026771710200 ) ) ;
#402 = VERTEX_POINT ( 'NONE', #172 ) ;
#403 = EDGE_CURVE ( 'NONE', #151, #253, #1087, .T. ) ;
#404 = LINE ( 'NONE', #62, #71 ) ;
#405 = CARTESIAN_POINT ( 'NONE',  ( 3.438858117995208019, 0.1645588852098781307, -1.048098853276087539 ) ) ;
#406 = ADVANCED_FACE ( 'NONE', ( #85 ), #252, .T. ) ;
#407 = FACE_BOUND ( 'NONE', #691, .T. ) ;
#408 = ORIENTED_EDGE ( 'NONE', *, *, #614, .F. ) ;
#409 = CARTESIAN_POINT ( 'NONE',  ( 3.476667391130348062, 0.1818267835344760386, -0.9362115493706141267 ) ) ;
#410 = PERSON_AND_ORGANIZATION_ROLE ( 'creator' ) ;
#411 = EDGE_CURVE ( 'NONE', #72, #501, #333, .T. ) ;
#412 = ORIENTED_EDGE ( 'NONE', *, *, #1076, .F. ) ;
#413 = DIRECTION ( 'NONE',  ( -1.000000000000000000, -0.000000000000000000, 0.000000000000000000 ) ) ;
#414 = PERSON_AND_ORGANIZATION ( #538, #989 ) ;
#415 = ORIENTED_EDGE ( 'NONE', *, *, #403, .F. ) ;
#416 = ADVANCED_FACE ( 'NONE', ( #810 ), #1158, .T. ) ;
#417 = LINE ( 'NONE', #779, #101 ) ;
#418 = CARTESIAN_POINT ( 'NONE',  ( 1.095868723696675540, 0.6485739743829481707, 0.1250000000000000000 ) ) ;
#419 = ORIENTED_EDGE ( 'NONE', *, *, #814, .F. ) ;
#420 = EDGE_LOOP ( 'NONE', ( #304, #1155, #108, #968 ) ) ;
#421 = PRODUCT ( 'Caliper Mount Front Right Updated STEP', 'Caliper Mount Front Right Updated STEP', '', ( #457 ) ) ;
#422 = VERTEX_POINT ( 'NONE', #300 ) ;
#423 = DIRECTION ( 'NONE',  ( 0.000000000000000000, -1.242251007628252106E-16, -1.000000000000000000 ) ) ;
#424 = ORIENTED_EDGE ( 'NONE', *, *, #995, .T. ) ;
#425 = CARTESIAN_POINT ( 'NONE',  ( 3.854600000000000026, 0.4574957598838364503, -1.204500000000000348 ) ) ;
#426 = CC_DESIGN_APPROVAL ( #588, ( #543 ) ) ;
#427 = CALENDAR_DATE ( 2024, 10, 4 ) ;
#428 = CARTESIAN_POINT ( 'NONE',  ( 3.419995205899831969, 0.1586112062800413280, -0.7544049422183746190 ) ) ;
#429 = CARTESIAN_POINT ( 'NONE',  ( 2.299852264000778579, 2.203695587888485186, 0.1250000000000000000 ) ) ;
#430 = VERTEX_POINT ( 'NONE', #830 ) ;
#431 = CARTESIAN_POINT ( 'NONE',  ( 1.776110493848743976, 1.426134781135692364, 0.1250000000000000000 ) ) ;
#432 = ORIENTED_EDGE ( 'NONE', *, *, #1082, .T. ) ;
#433 = VECTOR ( 'NONE', #1128, 39.37007874015748143 ) ;
#434 = DIRECTION ( 'NONE',  ( -0.000000000000000000, -1.000000000000000000, -0.000000000000000000 ) ) ;
#435 = AXIS2_PLACEMENT_3D ( 'NONE', #880, #711, #1083 ) ;
#436 = AXIS2_PLACEMENT_3D ( 'NONE', #468, #374, #575 ) ;
#437 = ADVANCED_FACE ( 'NONE', ( #1112 ), #467, .T. ) ;
#438 = EDGE_CURVE ( 'NONE', #79, #153, #547, .T. ) ;
#439 = VERTEX_POINT ( 'NONE', #1098 ) ;
#440 = VECTOR ( 'NONE', #673, 39.37007874015748143 ) ;
#441 = ORIENTED_EDGE ( 'NONE', *, *, #109, .T. ) ;
#442 = CARTESIAN_POINT ( 'NONE',  ( 1.938434399603570224, 2.203695587888485186, 0.1250000000000000000 ) ) ;
#443 = AXIS2_PLACEMENT_3D ( 'NONE', #120, #487, #752 ) ;
#444 = ORIENTED_EDGE ( 'NONE', *, *, #99, .T. ) ;
#445 = CARTESIAN_POINT ( 'NONE',  ( 3.604600000000000026, 0.1500000000000001055, -1.362000000000000322 ) ) ;
#446 = EDGE_CURVE ( 'NONE', #874, #587, #552, .T. ) ;
#447 = EDGE_LOOP ( 'NONE', ( #255, #963, #681, #1153, #931 ) ) ;
#448 = AXIS2_PLACEMENT_3D ( 'NONE', #475, #272, #4 ) ;
#449 = PLANE ( 'NONE',  #383 ) ;
#450 = AXIS2_PLACEMENT_3D ( 'NONE', #1003, #1084, #548 ) ;
#451 = CIRCLE ( 'NONE', #199, 0.1565000000000000835 ) ;
#452 = EDGE_LOOP ( 'NONE', ( #233, #839, #324, #1085, #1072, #786 ) ) ;
#453 = ORIENTED_EDGE ( 'NONE', *, *, #227, .F. ) ;
#454 = CARTESIAN_POINT ( 'NONE',  ( 0.8983134668821127766, 0.7211532264278484039, -0.1250000000000000000 ) ) ;
#455 = ADVANCED_FACE ( 'NONE', ( #1006 ), #821, .F. ) ;
#456 = DIRECTION ( 'NONE',  ( -0.000000000000000000, 1.000000000000000000, -1.242251007628252106E-16 ) ) ;
#457 = MECHANICAL_CONTEXT ( 'NONE', #472, 'mechanical' ) ;
#458 = ORIENTED_EDGE ( 'NONE', *, *, #1049, .F. ) ;
#459 = DIRECTION ( 'NONE',  ( -0.000000000000000000, -0.000000000000000000, -1.000000000000000000 ) ) ;
#460 = ADVANCED_FACE ( 'NONE', ( #194 ), #815, .F. ) ;
#461 = DIRECTION ( 'NONE',  ( -1.000000000000000000, 0.000000000000000000, 0.000000000000000000 ) ) ;
#462 = DIRECTION ( 'NONE',  ( 1.000000000000000000, 0.000000000000000000, 0.000000000000000000 ) ) ;
#463 = CARTESIAN_POINT ( 'NONE',  ( 0.8983134668821122215, 0.7211532264278485149, 0.000000000000000000 ) ) ;
#464 = FACE_OUTER_BOUND ( 'NONE', #1116, .T. ) ;
#465 = VERTEX_POINT ( 'NONE', #398 ) ;
#466 = DIRECTION ( 'NONE',  ( 0.000000000000000000, 0.000000000000000000, 1.000000000000000000 ) ) ;
#467 = CYLINDRICAL_SURFACE ( 'NONE', #664, 0.1575000000000000289 ) ;
#468 = CARTESIAN_POINT ( 'NONE',  ( 3.223150898267721942, 0.1500000000000002998, -0.9145000026771710200 ) ) ;
#469 = MANIFOLD_SOLID_BREP ( 'Cut-Extrude6', #731 ) ;
#470 = DIRECTION ( 'NONE',  ( 0.000000000000000000, -1.229846785657139814E-16, -1.000000000000000000 ) ) ;
#471 = VERTEX_POINT ( 'NONE', #912 ) ;
#472 = APPLICATION_CONTEXT ( 'configuration controlled 3d designs of mechanical parts and assemblies' ) ;
#473 = CYLINDRICAL_SURFACE ( 'NONE', #30, 0.1564999999999984459 ) ;
#474 = FACE_OUTER_BOUND ( 'NONE', #126, .T. ) ;
#475 = CARTESIAN_POINT ( 'NONE',  ( 2.299852264000778579, 2.203695587888485186, 0.000000000000000000 ) ) ;
#476 = EDGE_CURVE ( 'NONE', #876, #671, #1020, .T. ) ;
#477 = ORIENTED_EDGE ( 'NONE', *, *, #23, .T. ) ;
#478 = DIRECTION ( 'NONE',  ( 0.000000000000000000, 0.000000000000000000, 1.000000000000000000 ) ) ;
#479 = DIRECTION ( 'NONE',  ( 0.000000000000000000, 1.347065085633266536E-16, 1.000000000000000000 ) ) ;
#480 = SECURITY_CLASSIFICATION_LEVEL ( 'unclassified' ) ;
#481 = DIRECTION ( 'NONE',  ( 0.000000000000000000, -1.000000000000000000, 1.242251007628252106E-16 ) ) ;
#482 = DIRECTION ( 'NONE',  ( 0.000000000000000000, 0.000000000000000000, 1.000000000000000000 ) ) ;
#483 = ORIENTED_EDGE ( 'NONE', *, *, #580, .T. ) ;
#484 = FACE_BOUND ( 'NONE', #517, .T. ) ;
#485 = DIRECTION ( 'NONE',  ( -0.000000000000000000, 1.000000000000000000, -1.242251007628252106E-16 ) ) ;
#486 = PERSON_AND_ORGANIZATION_ROLE ( 'creator' ) ;
#487 = DIRECTION ( 'NONE',  ( 0.000000000000000000, -1.000000000000000000, 1.242251007628252106E-16 ) ) ;
#488 = ORIENTED_EDGE ( 'NONE', *, *, #729, .F. ) ;
#489 = EDGE_CURVE ( 'NONE', #371, #222, #727, .T. ) ;
#490 = AXIS2_PLACEMENT_3D ( 'NONE', #529, #972, #263 ) ;
#491 = ORIENTED_EDGE ( 'NONE', *, *, #914, .T. ) ;
#492 = EDGE_CURVE ( 'NONE', #350, #540, #1096, .T. ) ;
#493 = CARTESIAN_POINT ( 'NONE',  ( 0.000000000000000000, 2.565061936357496464, 0.1250000000000000000 ) ) ;
#494 = ORIENTED_EDGE ( 'NONE', *, *, #848, .T. ) ;
#495 = CIRCLE ( 'NONE', #338, 0.1564999999999984459 ) ;
#496 = AXIS2_PLACEMENT_3D ( 'NONE', #636, #370, #86 ) ;
#497 = FACE_OUTER_BOUND ( 'NONE', #572, .T. ) ;
#498 = CARTESIAN_POINT ( 'NONE',  ( 2.299852264000778579, 2.203695587888485186, 0.1250000000000000000 ) ) ;
#499 = EDGE_CURVE ( 'NONE', #587, #153, #291, .T. ) ;
#500 = AXIS2_PLACEMENT_3D ( 'NONE', #346, #542, #1081 ) ;
#501 = VERTEX_POINT ( 'NONE', #755 ) ;
#502 = VECTOR ( 'NONE', #1042, 39.37007874015748143 ) ;
#503 = CARTESIAN_POINT ( 'NONE',  ( 1.022363496692916263, 0.02012340682474840839, -0.9145000026771732404 ) ) ;
#504 = DIRECTION ( 'NONE',  ( -1.000000000000000000, 0.000000000000000000, 0.000000000000000000 ) ) ;
#505 = EDGE_CURVE ( 'NONE', #471, #766, #377, .T. ) ;
#506 = VERTEX_POINT ( 'NONE', #178 ) ;
#507 = PLANE ( 'NONE',  #590 ) ;
#508 = CARTESIAN_POINT ( 'NONE',  ( 3.462803386195668853, 0.1745431239510178145, -0.9999761779450094812 ) ) ;
#509 = ORIENTED_EDGE ( 'NONE', *, *, #706, .F. ) ;
#510 = EDGE_CURVE ( 'NONE', #1132, #761, #1041, .T. ) ;
#511 = DIRECTION ( 'NONE',  ( 8.034405899049456264E-17, 0.7547095802227716810, -0.6560590289905076089 ) ) ;
#512 = ORIENTED_EDGE ( 'NONE', *, *, #687, .T. ) ;
#513 = CARTESIAN_POINT ( 'NONE',  ( 3.223150898267721942, 0.1500000000000000500, -0.9145000026771710200 ) ) ;
#514 = ORIENTED_EDGE ( 'NONE', *, *, #1082, .F. ) ;
#515 = CARTESIAN_POINT ( 'NONE',  ( 2.299852264000778579, 2.203695587888485186, 0.000000000000000000 ) ) ;
#516 = CARTESIAN_POINT ( 'NONE',  ( 3.462744343730310703, 0.1745163158597326236, -0.8289406015131189909 ) ) ;
#517 = EDGE_LOOP ( 'NONE', ( #1102, #916 ) ) ;
#518 = CARTESIAN_POINT ( 'NONE',  ( 1.022363496692916263, 0.02012340682474840839, -0.9145000026771732404 ) ) ;
#519 = VERTEX_POINT ( 'NONE', #97 ) ;
#520 = ADVANCED_FACE ( 'NONE', ( #390 ), #473, .F. ) ;
#521 = CARTESIAN_POINT ( 'NONE',  ( 0.3557000000000002382, -0.1179999999999999660, -1.362000000000000322 ) ) ;
#522 = EDGE_CURVE ( 'NONE', #371, #309, #787, .T. ) ;
#523 = FACE_BOUND ( 'NONE', #988, .T. ) ;
#524 = ORIENTED_EDGE ( 'NONE', *, *, #577, .F. ) ;
#525 = DIRECTION ( 'NONE',  ( 0.000000000000000000, -0.8900408142482573171, -0.4558808495345019196 ) ) ;
#526 = ORIENTED_EDGE ( 'NONE', *, *, #647, .T. ) ;
#527 = FACE_OUTER_BOUND ( 'NONE', #707, .T. ) ;
#528 = ADVANCED_FACE ( 'NONE', ( #259 ), #718, .F. ) ;
#529 = CARTESIAN_POINT ( 'NONE',  ( 2.299852264000778579, 2.203695587888485186, 0.1250000000000000000 ) ) ;
#530 = ORIENTED_EDGE ( 'NONE', *, *, #363, .F. ) ;
#531 = DIRECTION ( 'NONE',  ( -0.000000000000000000, -0.000000000000000000, 1.000000000000000000 ) ) ;
#532 = VECTOR ( 'NONE', #559, 39.37007874015748143 ) ;
#533 = LINE ( 'NONE', #141, #138 ) ;
#534 = CARTESIAN_POINT ( 'NONE',  ( 3.854600000000000026, 0.000000000000000000, -1.204500000000000348 ) ) ;
#535 = CIRCLE ( 'NONE', #1144, 0.2534999999999998921 ) ;
#536 = EDGE_LOOP ( 'NONE', ( #935, #341, #801, #655 ) ) ;
#537 = DIRECTION ( 'NONE',  ( -1.000000000000000000, 0.000000000000000000, 0.000000000000000000 ) ) ;
#538 = PERSON ( 'UNSPECIFIED', 'UNSPECIFIED', 'UNSPECIFIED', ('UNSPECIFIED'), ('UNSPECIFIED'), ('UNSPECIFIED') ) ;
#539 = EDGE_CURVE ( 'NONE', #153, #79, #685, .T. ) ;
#540 = VERTEX_POINT ( 'NONE', #349 ) ;
#541 = AXIS2_PLACEMENT_3D ( 'NONE', #782, #1146, #1062 ) ;
#542 = DIRECTION ( 'NONE',  ( -0.000000000000000000, 1.000000000000000000, -1.242251007628252106E-16 ) ) ;
#543 = PRODUCT_DEFINITION_FORMATION_WITH_SPECIFIED_SOURCE ( 'ANY', '', #421, .NOT_KNOWN. ) ;
#544 = DIRECTION ( 'NONE',  ( 0.000000000000000000, 1.000000000000000000, 0.000000000000000000 ) ) ;
#545 = AXIS2_PLACEMENT_3D ( 'NONE', #183, #91, #1176 ) ;
#546 = FACE_OUTER_BOUND ( 'NONE', #536, .T. ) ;
#547 = CIRCLE ( 'NONE', #27, 0.2534999999999998921 ) ;
#548 = DIRECTION ( 'NONE',  ( 1.000000000000000000, 0.000000000000000000, 0.000000000000000000 ) ) ;
#549 = ORIENTED_EDGE ( 'NONE', *, *, #936, .F. ) ;
#550 = EDGE_CURVE ( 'NONE', #974, #946, #705, .T. ) ;
#551 = FACE_OUTER_BOUND ( 'NONE', #59, .T. ) ;
#552 = LINE ( 'NONE', #903, #1168 ) ;
#553 = FACE_OUTER_BOUND ( 'NONE', #680, .T. ) ;
#554 =( NAMED_UNIT ( * ) SI_UNIT ( $, .STERADIAN. ) SOLID_ANGLE_UNIT ( ) );
#555 = ORIENTED_EDGE ( 'NONE', *, *, #814, .T. ) ;
#556 = APPLICATION_CONTEXT ( 'configuration controlled 3d designs of mechanical parts and assemblies' ) ;
#557 = FACE_OUTER_BOUND ( 'NONE', #54, .T. ) ;
#558 = CARTESIAN_POINT ( 'NONE',  ( 1.252368723696675623, 0.6485739743829481707, 0.000000000000000000 ) ) ;
#559 = DIRECTION ( 'NONE',  ( -1.000000000000000000, -0.000000000000000000, 0.000000000000000000 ) ) ;
#560 = AXIS2_PLACEMENT_3D ( 'NONE', #679, #1131, #318 ) ;
#561 = ORIENTED_EDGE ( 'NONE', *, *, #244, .F. ) ;
#562 = CARTESIAN_POINT ( 'NONE',  ( 3.223150898267721942, -1.365923996832131609E-16, -0.9145000026771710200 ) ) ;
#563 = EDGE_CURVE ( 'NONE', #896, #980, #593, .T. ) ;
#564 = CARTESIAN_POINT ( 'NONE',  ( 3.354600000000000470, 0.1500000000000000222, -1.362000000000000099 ) ) ;
#565 = CARTESIAN_POINT ( 'NONE',  ( 3.354600000000000470, 0.4000000000000001887, -4.969004030513010887E-17 ) ) ;
#566 = VERTEX_POINT ( 'NONE', #700 ) ;
#567 = CARTESIAN_POINT ( 'NONE',  ( 0.1981999999999999595, 0.1500000000000003553, 0.000000000000000000 ) ) ;
#568 = DIRECTION ( 'NONE',  ( 0.000000000000000000, 1.000000000000000000, 0.000000000000000000 ) ) ;
#569 = CARTESIAN_POINT ( 'NONE',  ( 3.854600000000000026, 0.4574957598838364503, -1.204500000000000348 ) ) ;
#570 = LINE ( 'NONE', #392, #136 ) ;
#571 = DIRECTION ( 'NONE',  ( 0.000000000000000000, 1.347065085633266536E-16, 1.000000000000000000 ) ) ;
#572 = EDGE_LOOP ( 'NONE', ( #1147, #799, #882, #115, #212 ) ) ;
#573 = CARTESIAN_POINT ( 'NONE',  ( 1.252368723696675623, 0.6485739743829481707, -0.1250000000000000000 ) ) ;
#574 = DIRECTION ( 'NONE',  ( -0.000000000000000000, -0.000000000000000000, 1.000000000000000000 ) ) ;
#575 = DIRECTION ( 'NONE',  ( 0.000000000000000000, -1.286180787977522486E-16, -1.000000000000000000 ) ) ;
#576 = PERSON_AND_ORGANIZATION ( #538, #989 ) ;
#577 = EDGE_CURVE ( 'NONE', #980, #896, #495, .T. ) ;
#578 = CARTESIAN_POINT ( 'NONE',  ( 1.022363496692916263, 0.1500000000000000500, -1.055100002677173299 ) ) ;
#579 = ORIENTED_EDGE ( 'NONE', *, *, #117, .F. ) ;
#580 = EDGE_CURVE ( 'NONE', #1078, #1142, #64, .T. ) ;
#581 = FACE_OUTER_BOUND ( 'NONE', #269, .T. ) ;
#582 = B_SPLINE_CURVE_WITH_KNOTS ( 'NONE', 3,
 ( #1089, #89, #818, #247, #428, #613, #967, #149, #516, #37, #237, #1047, #1039, #409, #119, #508, #764, #405, #677, #1125, #955, #769, #856, #1129 ),
 .UNSPECIFIED., .F., .F.,
 ( 4, 2, 2, 2, 2, 2, 2, 2, 2, 2, 2, 4 ),
 ( 0.000000000000000000, 0.001655454709765058355, 0.002483182064647573763, 0.003310909419530088955, 0.004966364129295090281, 0.005794091484177595931, 0.006621818839060101582, 0.008277273548825124158, 0.009932728258590145867, 0.01076045561347266193, 0.01158818296835517798, 0.01324363767812020837 ),
 .UNSPECIFIED. ) ;
#583 = DIRECTION ( 'NONE',  ( 0.000000000000000000, 1.214370551948907933E-16, 1.000000000000000000 ) ) ;
#584 = DIRECTION ( 'NONE',  ( 0.000000000000000000, 0.000000000000000000, 1.000000000000000000 ) ) ;
#585 = DATE_TIME_ROLE ( 'creation_date' ) ;
#586 = CARTESIAN_POINT ( 'NONE',  ( 3.223150898267721942, 0.1500000000000000500, -0.9145000026771710200 ) ) ;
#587 = VERTEX_POINT ( 'NONE', #807 ) ;
#588 = APPROVAL ( #42, 'UNSPECIFIED' ) ;
#589 = ORIENTED_EDGE ( 'NONE', *, *, #729, .T. ) ;
#590 = AXIS2_PLACEMENT_3D ( 'NONE', #862, #773, #1137 ) ;
#591 = CARTESIAN_POINT ( 'NONE',  ( 0.3557000000000002382, 0.000000000000000000, -1.204500000000000348 ) ) ;
#592 = VERTEX_POINT ( 'NONE', #889 ) ;
#593 = CIRCLE ( 'NONE', #435, 0.1564999999999984459 ) ;
#594 = EDGE_LOOP ( 'NONE', ( #982, #365, #530, #633 ) ) ;
#595 = AXIS2_PLACEMENT_3D ( 'NONE', #825, #584, #98 ) ;
#596 = PERSON_AND_ORGANIZATION ( #538, #989 ) ;
#597 = EDGE_CURVE ( 'NONE', #355, #642, #964, .T. ) ;
#598 = VECTOR ( 'NONE', #337, 39.37007874015748143 ) ;
#599 = CARTESIAN_POINT ( 'NONE',  ( 3.854600000000000026, 0.1500000000000001055, -1.362000000000000322 ) ) ;
#600 = EDGE_LOOP ( 'NONE', ( #1164, #311, #906, #12, #626, #730 ) ) ;
#601 = VECTOR ( 'NONE', #833, 39.37007874015748143 ) ;
#602 = CARTESIAN_POINT ( 'NONE',  ( 0.1982000000000000983, 0.1500000000000001887, -0.1250000000000000000 ) ) ;
#603 = DIRECTION ( 'NONE',  ( -1.000000000000000000, 0.000000000000000000, 0.000000000000000000 ) ) ;
#604 = CIRCLE ( 'NONE', #78, 0.1406000000000000028 ) ;
#605 = EDGE_CURVE ( 'NONE', #808, #422, #881, .T. ) ;
#606 = ORIENTED_EDGE ( 'NONE', *, *, #802, .T. ) ;
#607 = CC_DESIGN_SECURITY_CLASSIFICATION ( #1055, ( #543 ) ) ;
#608 = VECTOR ( 'NONE', #276, 39.37007874015748143 ) ;
#609 = ORIENTED_EDGE ( 'NONE', *, *, #282, .F. ) ;
#610 = CARTESIAN_POINT ( 'NONE',  ( 2.299852264000778579, 2.203695587888485186, 0.000000000000000000 ) ) ;
#611 = DIRECTION ( 'NONE',  ( -1.000000000000000000, -9.106159978880879367E-16, 0.000000000000000000 ) ) ;
#612 = APPROVAL_ROLE ( '' ) ;
#613 = CARTESIAN_POINT ( 'NONE',  ( 3.432857764142450030, 0.1624693597876622764, -0.7716674425395412262 ) ) ;
#614 = EDGE_CURVE ( 'NONE', #1024, #422, #721, .T. ) ;
#615 = ORIENTED_EDGE ( 'NONE', *, *, #778, .T. ) ;
#616 = ORIENTED_EDGE ( 'NONE', *, *, #117, .T. ) ;
#617 = CYLINDRICAL_SURFACE ( 'NONE', #1163, 0.5760821356028134055 ) ;
#618 = ORIENTED_EDGE ( 'NONE', *, *, #816, .F. ) ;
#619 = EDGE_CURVE ( 'NONE', #319, #519, #145, .T. ) ;
#620 = DIRECTION ( 'NONE',  ( 0.000000000000000000, -1.347065085633267029E-16, -1.000000000000000000 ) ) ;
#621 = FACE_OUTER_BOUND ( 'NONE', #834, .T. ) ;
#622 = ORIENTED_EDGE ( 'NONE', *, *, #109, .F. ) ;
#623 = DIRECTION ( 'NONE',  ( -0.000000000000000000, -0.000000000000000000, -1.000000000000000000 ) ) ;
#624 = ORIENTED_EDGE ( 'NONE', *, *, #647, .F. ) ;
#625 = CARTESIAN_POINT ( 'NONE',  ( 0.3556999999999996831, 0.1500000000000000222, -1.362000000000000099 ) ) ;
#626 = ORIENTED_EDGE ( 'NONE', *, *, #1133, .T. ) ;
#627 = DIRECTION ( 'NONE',  ( -1.000000000000000000, 0.000000000000000000, 0.000000000000000000 ) ) ;
#628 = ORIENTED_EDGE ( 'NONE', *, *, #650, .F. ) ;
#629 = FACE_OUTER_BOUND ( 'NONE', #783, .T. ) ;
#630 = ADVANCED_FACE ( 'NONE', ( #983 ), #1052, .F. ) ;
#631 = ORIENTED_EDGE ( 'NONE', *, *, #828, .T. ) ;
#632 = CARTESIAN_POINT ( 'NONE',  ( 2.305954304611272487, 2.565061936357496464, 0.1250000000000000000 ) ) ;
#633 = ORIENTED_EDGE ( 'NONE', *, *, #321, .F. ) ;
#634 = DIRECTION ( 'NONE',  ( -0.000000000000000000, -1.000000000000000000, -0.000000000000000000 ) ) ;
#635 = DIRECTION ( 'NONE',  ( -1.000000000000000000, 0.000000000000000000, 0.000000000000000000 ) ) ;
#636 = CARTESIAN_POINT ( 'NONE',  ( 3.223150898267721942, 0.1500000000000000777, -0.9145000026771710200 ) ) ;
#637 = VERTEX_POINT ( 'NONE', #343 ) ;
#638 = VECTOR ( 'NONE', #294, 39.37007874015748143 ) ;
#639 = CARTESIAN_POINT ( 'NONE',  ( 0.000000000000000000, 0.000000000000000000, 0.1250000000000000000 ) ) ;
#640 = LOCAL_TIME ( 21, 31, 11.00000000000000000, #132 ) ;
#641 = LINE ( 'NONE', #188, #953 ) ;
#642 = VERTEX_POINT ( 'NONE', #169 ) ;
#643 = CARTESIAN_POINT ( 'NONE',  ( 2.299852264000778579, 2.203695587888485186, 0.000000000000000000 ) ) ;
#644 = VECTOR ( 'NONE', #926, 39.37007874015748143 ) ;
#645 = VECTOR ( 'NONE', #863, 39.37007874015748143 ) ;
#646 = CARTESIAN_POINT ( 'NONE',  ( 3.854600000000000026, 0.000000000000000000, 0.000000000000000000 ) ) ;
#647 = EDGE_CURVE ( 'NONE', #66, #781, #1154, .T. ) ;
#648 = ORIENTED_EDGE ( 'NONE', *, *, #1076, .T. ) ;
#649 = AXIS2_PLACEMENT_3D ( 'NONE', #515, #892, #784 ) ;
#650 = EDGE_CURVE ( 'NONE', #587, #1179, #604, .T. ) ;
#651 = DIRECTION ( 'NONE',  ( 0.000000000000000000, 1.347065085633266536E-16, 1.000000000000000000 ) ) ;
#652 = CARTESIAN_POINT ( 'NONE',  ( 3.223150898267721942, -1.365923996832131609E-16, -0.9145000026771710200 ) ) ;
#653 = CIRCLE ( 'NONE', #36, 0.2534999999999998921 ) ;
#654 = CARTESIAN_POINT ( 'NONE',  ( 5.120298621315516385, 0.1500000000000000222, -1.362000000000000099 ) ) ;
#655 = ORIENTED_EDGE ( 'NONE', *, *, #1070, .T. ) ;
#656 = FACE_BOUND ( 'NONE', #794, .T. ) ;
#657 = ADVANCED_FACE ( 'NONE', ( #359 ), #67, .F. ) ;
#658 = DIRECTION ( 'NONE',  ( 0.000000000000000000, 0.000000000000000000, -1.000000000000000000 ) ) ;
#659 = CARTESIAN_POINT ( 'NONE',  ( 0.3557000000000002382, -0.1179999999999999660, -1.362000000000000322 ) ) ;
#660 = AXIS2_PLACEMENT_3D ( 'NONE', #270, #1103, #739 ) ;
#661 = CARTESIAN_POINT ( 'NONE',  ( 1.022363496692916263, -1.365923996832131609E-16, -0.9145000026771732404 ) ) ;
#662 = DIMENSIONAL_EXPONENTS ( 1.000000000000000000, 0.000000000000000000, 0.000000000000000000, 0.000000000000000000, 0.000000000000000000, 0.000000000000000000, 0.000000000000000000 ) ;
#663 = ORIENTED_EDGE ( 'NONE', *, *, #1088, .T. ) ;
#664 = AXIS2_PLACEMENT_3D ( 'NONE', #909, #568, #15 ) ;
#665 = CYLINDRICAL_SURFACE ( 'NONE', #396, 0.3614178643972082439 ) ;
#666 = CARTESIAN_POINT ( 'NONE',  ( 1.252368723696675623, 0.6485739743829481707, -0.1250000000000000000 ) ) ;
#667 = CARTESIAN_POINT ( 'NONE',  ( 0.8983134668821127766, 0.7211532264278484039, 0.1250000000000000000 ) ) ;
#668 = CARTESIAN_POINT ( 'NONE',  ( 1.408868723696675707, 0.6485739743829481707, -0.1250000000000000000 ) ) ;
#669 = ADVANCED_FACE ( 'NONE', ( #249 ), #617, .F. ) ;
#670 = PLANE ( 'NONE',  #443 ) ;
#671 = VERTEX_POINT ( 'NONE', #1178 ) ;
#672 = DIRECTION ( 'NONE',  ( -0.000000000000000000, 1.000000000000000000, -1.242251007628252106E-16 ) ) ;
#673 = DIRECTION ( 'NONE',  ( 9.106159978880879367E-16, -1.000000000000000000, 0.000000000000000000 ) ) ;
#674 = EDGE_CURVE ( 'NONE', #1024, #1142, #171, .T. ) ;
#675 = EDGE_LOOP ( 'NONE', ( #76, #712, #736, #1056 ) ) ;
#676 = CARTESIAN_POINT ( 'NONE',  ( 3.223150898267721942, 0.1499999999999999944, -1.168000002677170857 ) ) ;
#677 = CARTESIAN_POINT ( 'NONE',  ( 3.432932193006003718, 0.1624943663387710124, -1.057221767767261067 ) ) ;
#678 = APPLICATION_PROTOCOL_DEFINITION ( 'international standard', 'config_control_design', 1994, #556 ) ;
#679 = CARTESIAN_POINT ( 'NONE',  ( 3.223150898267721942, 0.02012340682474840839, -0.9145000026771710200 ) ) ;
#680 = EDGE_LOOP ( 'NONE', ( #929, #663, #477, #710 ) ) ;
#681 = ORIENTED_EDGE ( 'NONE', *, *, #403, .T. ) ;
#682 = CARTESIAN_POINT ( 'NONE',  ( 0.3557000000000002382, 0.000000000000000000, -1.362000000000000322 ) ) ;
#683 = LINE ( 'NONE', #1126, #502 ) ;
#684 = ORIENTED_EDGE ( 'NONE', *, *, #539, .T. ) ;
#685 = CIRCLE ( 'NONE', #842, 0.2534999999999998921 ) ;
#686 = LINE ( 'NONE', #1046, #978 ) ;
#687 = EDGE_CURVE ( 'NONE', #501, #34, #641, .T. ) ;
#688 = VECTOR ( 'NONE', #462, 39.37007874015748143 ) ;
#689 = PERSON_AND_ORGANIZATION ( #538, #989 ) ;
#690 = VECTOR ( 'NONE', #256, 39.37007874015748143 ) ;
#691 = EDGE_LOOP ( 'NONE', ( #329, #579 ) ) ;
#692 = CARTESIAN_POINT ( 'NONE',  ( 1.022363496692916263, 0.1499999999999999944, -1.168000002677173077 ) ) ;
#693 = VECTOR ( 'NONE', #265, 39.37007874015748143 ) ;
#694 = ORIENTED_EDGE ( 'NONE', *, *, #614, .T. ) ;
#695 = AXIS2_PLACEMENT_3D ( 'NONE', #930, #116, #1123 ) ;
#696 = CARTESIAN_POINT ( 'NONE',  ( 0.1982000000000000983, 1.804840907814190915E-16, 0.000000000000000000 ) ) ;
#697 = EDGE_CURVE ( 'NONE', #253, #566, #1174, .T. ) ;
#698 = ADVANCED_FACE ( 'NONE', ( #464 ), #364, .F. ) ;
#699 = ORIENTED_EDGE ( 'NONE', *, *, #851, .F. ) ;
#700 = CARTESIAN_POINT ( 'NONE',  ( 3.354600000000000470, 0.1500000000000000222, -1.362000000000000099 ) ) ;
#701 = ORIENTED_EDGE ( 'NONE', *, *, #499, .T. ) ;
#702 = FACE_OUTER_BOUND ( 'NONE', #68, .T. ) ;
#703 = CARTESIAN_POINT ( 'NONE',  ( 3.697099999999999831, -0.1180000000000000909, -1.362000000000000322 ) ) ;
#704 = ORIENTED_EDGE ( 'NONE', *, *, #492, .F. ) ;
#705 = LINE ( 'NONE', #445, #279 ) ;
#706 = EDGE_CURVE ( 'NONE', #592, #151, #751, .T. ) ;
#707 = EDGE_LOOP ( 'NONE', ( #1161, #589, #615 ) ) ;
#708 = CIRCLE ( 'NONE', #1005, 0.1406000000000000028 ) ;
#709 = LINE ( 'NONE', #148, #128 ) ;
#710 = ORIENTED_EDGE ( 'NONE', *, *, #446, .F. ) ;
#711 = DIRECTION ( 'NONE',  ( -0.000000000000000000, -0.000000000000000000, -1.000000000000000000 ) ) ;
#712 = ORIENTED_EDGE ( 'NONE', *, *, #2, .T. ) ;
#713 = PLANE ( 'NONE',  #232 ) ;
#714 = ADVANCED_FACE ( 'NONE', ( #735, #826 ), #724, .F. ) ;
#715 = AXIS2_PLACEMENT_3D ( 'NONE', #917, #997, #466 ) ;
#716 = CARTESIAN_POINT ( 'NONE',  ( 3.223150898267721942, 0.02012340682474840839, -0.9145000026771710200 ) ) ;
#717 = ORIENTED_EDGE ( 'NONE', *, *, #785, .F. ) ;
#718 = CYLINDRICAL_SURFACE ( 'NONE', #941, 0.7146723828161395398 ) ;
#719 = EDGE_LOOP ( 'NONE', ( #549, #168, #238, #415, #855 ) ) ;
#720 = CARTESIAN_POINT ( 'NONE',  ( 0.3557000000000001272, 0.0001102362204724180114, -1.362000000000000322 ) ) ;
#721 = LINE ( 'NONE', #969, #693 ) ;
#722 = ORIENTED_EDGE ( 'NONE', *, *, #597, .T. ) ;
#723 = DIRECTION ( 'NONE',  ( -1.000000000000000000, 0.000000000000000000, 0.000000000000000000 ) ) ;
#724 = PLANE ( 'NONE',  #1141 ) ;
#725 = APPLICATION_PROTOCOL_DEFINITION ( 'international standard', 'config_control_design', 1994, #472 ) ;
#726 = EDGE_LOOP ( 'NONE', ( #606, #458 ) ) ;
#727 = LINE ( 'NONE', #667, #899 ) ;
#728 = LINE ( 'NONE', #927, #942 ) ;
#729 = EDGE_CURVE ( 'NONE', #946, #430, #570, .T. ) ;
#730 = ORIENTED_EDGE ( 'NONE', *, *, #184, .F. ) ;
#731 = CLOSED_SHELL ( 'NONE', ( #389, #747, #630, #460, #262, #46, #406, #698, #1066, #271, #313, #289, #528, #416, #669, #351, #1120, #160, #520, #455, #858, #379, #873, #714, #75, #236, #332, #437, #223, #780, #292, #657, #1029, #203 ) ) ;
#732 = DIRECTION ( 'NONE',  ( 0.000000000000000000, 1.214370551948906701E-16, 1.000000000000000000 ) ) ;
#733 = AXIS2_PLACEMENT_3D ( 'NONE', #610, #531, #875 ) ;
#734 = LINE ( 'NONE', #215, #69 ) ;
#735 = FACE_BOUND ( 'NONE', #1051, .T. ) ;
#736 = ORIENTED_EDGE ( 'NONE', *, *, #327, .T. ) ;
#737 = VECTOR ( 'NONE', #307, 39.37007874015748143 ) ;
#738 = PRODUCT_RELATED_PRODUCT_CATEGORY ( 'detail', '', ( #421 ) ) ;
#739 = DIRECTION ( 'NONE',  ( 0.000000000000000000, -1.286180787977525198E-16, -1.000000000000000000 ) ) ;
#740 = DIRECTION ( 'NONE',  ( -0.000000000000000000, -0.000000000000000000, -1.000000000000000000 ) ) ;
#741 = DIRECTION ( 'NONE',  ( 0.000000000000000000, 1.242251007628252106E-16, 1.000000000000000000 ) ) ;
#742 = AXIS2_PLACEMENT_3D ( 'NONE', #591, #107, #482 ) ;
#743 = LINE ( 'NONE', #1108, #280 ) ;
#744 = ORIENTED_EDGE ( 'NONE', *, *, #851, .T. ) ;
#745 = AXIS2_PLACEMENT_3D ( 'NONE', #106, #1002, #910 ) ;
#746 = DIRECTION ( 'NONE',  ( -0.000000000000000000, -0.000000000000000000, -1.000000000000000000 ) ) ;
#747 = ADVANCED_FACE ( 'NONE', ( #553 ), #905, .F. ) ;
#748 = CARTESIAN_POINT ( 'NONE',  ( 5.120298621315516385, 0.1500000000000001887, -0.1250000000000000000 ) ) ;
#749 = PERSON_AND_ORGANIZATION_ROLE ( 'classification_officer' ) ;
#750 =( GEOMETRIC_REPRESENTATION_CONTEXT ( 3 ) GLOBAL_UNCERTAINTY_ASSIGNED_CONTEXT ( ( #328 ) ) GLOBAL_UNIT_ASSIGNED_CONTEXT ( ( #1027, #853, #554 ) ) REPRESENTATION_CONTEXT ( 'NONE', 'WORKASPACE' ) );
#751 = LINE ( 'NONE', #921, #638 ) ;
#752 = DIRECTION ( 'NONE',  ( 0.000000000000000000, 1.242251007628252106E-16, 1.000000000000000000 ) ) ;
#753 = ORIENTED_EDGE ( 'NONE', *, *, #650, .T. ) ;
#754 = AXIS2_PLACEMENT_3D ( 'NONE', #93, #1106, #732 ) ;
#755 = CARTESIAN_POINT ( 'NONE',  ( 3.223150898267721942, 0.02012340682474842574, -0.7739000026771709617 ) ) ;
#756 = CARTESIAN_POINT ( 'NONE',  ( 2.143352264000780050, 2.203695587888485186, 0.1250000000000000000 ) ) ;
#757 = ORIENTED_EDGE ( 'NONE', *, *, #1049, .T. ) ;
#758 = CYLINDRICAL_SURFACE ( 'NONE', #243, 0.1575000000000000011 ) ;
#759 = CARTESIAN_POINT ( 'NONE',  ( 2.097943323132557492, 1.903936263925223304, -0.1250000000000000000 ) ) ;
#760 = CARTESIAN_POINT ( 'NONE',  ( 2.097943323132557492, 1.903936263925223304, 0.000000000000000000 ) ) ;
#761 = VERTEX_POINT ( 'NONE', #915 ) ;
#762 = CARTESIAN_POINT ( 'NONE',  ( 2.305954304611272487, 2.565061936357496464, 0.000000000000000000 ) ) ;
#763 = CARTESIAN_POINT ( 'NONE',  ( 5.120298621315516385, 0.0001102362204724180114, -1.362000000000000322 ) ) ;
#764 = CARTESIAN_POINT ( 'NONE',  ( 3.454690338016084272, 0.1706319111936758504, -1.019931344965277820 ) ) ;
#765 = DIRECTION ( 'NONE',  ( 1.000000000000000000, 0.000000000000000000, 0.000000000000000000 ) ) ;
#766 = VERTEX_POINT ( 'NONE', #100 ) ;
#767 = EDGE_CURVE ( 'NONE', #540, #350, #18, .T. ) ;
#768 = ORIENTED_EDGE ( 'NONE', *, *, #274, .T. ) ;
#769 = CARTESIAN_POINT ( 'NONE',  ( 3.390768570869303833, 0.1521601700089220688, -1.105889197179808381 ) ) ;
#770 = VECTOR ( 'NONE', #413, 39.37007874015748143 ) ;
#771 = DIRECTION ( 'NONE',  ( 0.000000000000000000, 1.347065085633266536E-16, 1.000000000000000000 ) ) ;
#772 = ORIENTED_EDGE ( 'NONE', *, *, #902, .T. ) ;
#773 = DIRECTION ( 'NONE',  ( 0.000000000000000000, 0.4558808495345019196, -0.8900408142482573171 ) ) ;
#774 = LINE ( 'NONE', #682, #11 ) ;
#775 = DATE_AND_TIME ( #427, #21 ) ;
#776 = CARTESIAN_POINT ( 'NONE',  ( 2.456352264000777108, 2.203695587888485186, 0.000000000000000000 ) ) ;
#777 = ORIENTED_EDGE ( 'NONE', *, *, #619, .F. ) ;
#778 = EDGE_CURVE ( 'NONE', #430, #974, #743, .T. ) ;
#779 = CARTESIAN_POINT ( 'NONE',  ( 3.354600000000000470, 0.1500000000000001887, -0.1250000000000000000 ) ) ;
#780 = ADVANCED_FACE ( 'NONE', ( #546 ), #1015, .F. ) ;
#781 = VERTEX_POINT ( 'NONE', #204 ) ;
#782 = CARTESIAN_POINT ( 'NONE',  ( 1.022363496692916263, 0.1500000000000000777, -0.9145000026771732404 ) ) ;
#783 = EDGE_LOOP ( 'NONE', ( #357, #87, #526, #140, #218 ) ) ;
#784 = DIRECTION ( 'NONE',  ( -1.000000000000000000, 1.511739326012887256E-15, 0.000000000000000000 ) ) ;
#785 = EDGE_CURVE ( 'NONE', #900, #439, #832, .T. ) ;
#786 = ORIENTED_EDGE ( 'NONE', *, *, #865, .T. ) ;
#787 = CIRCLE ( 'NONE', #180, 0.7146723828161395398 ) ;
#788 = ORIENTED_EDGE ( 'NONE', *, *, #1088, .F. ) ;
#789 = VECTOR ( 'NONE', #485, 39.37007874015748143 ) ;
#790 = CARTESIAN_POINT ( 'NONE',  ( 3.697099999999999831, 0.0001102362204724180114, -1.362000000000000322 ) ) ;
#791 = CALENDAR_DATE ( 2024, 10, 4 ) ;
#792 = CIRCLE ( 'NONE', #1100, 0.1575000000000000289 ) ;
#793 = DIRECTION ( 'NONE',  ( 0.000000000000000000, 1.214370551948906701E-16, 1.000000000000000000 ) ) ;
#794 = EDGE_LOOP ( 'NONE', ( #841, #812 ) ) ;
#795 = ORIENTED_EDGE ( 'NONE', *, *, #674, .F. ) ;
#796 = CIRCLE ( 'NONE', #852, 0.2534999999999998921 ) ;
#797 = CARTESIAN_POINT ( 'NONE',  ( 3.789361363926237569, 0.1500000000000001332, -1.362000000000000322 ) ) ;
#798 = AXIS2_PLACEMENT_3D ( 'NONE', #513, #870, #1068 ) ;
#799 = ORIENTED_EDGE ( 'NONE', *, *, #193, .T. ) ;
#800 = CARTESIAN_POINT ( 'NONE',  ( 1.776110493848743976, 1.426134781135692364, -0.1250000000000000000 ) ) ;
#801 = ORIENTED_EDGE ( 'NONE', *, *, #938, .T. ) ;
#802 = EDGE_CURVE ( 'NONE', #671, #226, #582, .T. ) ;
#803 = CARTESIAN_POINT ( 'NONE',  ( 3.604600000000000026, 0.000000000000000000, 0.000000000000000000 ) ) ;
#804 = AXIS2_PLACEMENT_3D ( 'NONE', #103, #478, #388 ) ;
#805 = AXIS2_PLACEMENT_3D ( 'NONE', #353, #1065, #904 ) ;
#806 = PLANE ( 'NONE',  #139 ) ;
#807 = CARTESIAN_POINT ( 'NONE',  ( 1.022363496692916263, 0.02012340682474842574, -0.7739000026771732932 ) ) ;
#808 = VERTEX_POINT ( 'NONE', #759 ) ;
#809 = DIRECTION ( 'NONE',  ( 0.000000000000000000, -1.000000000000000000, 1.242251007628251859E-16 ) ) ;
#810 = FACE_OUTER_BOUND ( 'NONE', #334, .T. ) ;
#811 = DIRECTION ( 'NONE',  ( 0.000000000000000000, 1.242251007628252106E-16, 1.000000000000000000 ) ) ;
#812 = ORIENTED_EDGE ( 'NONE', *, *, #1104, .T. ) ;
#813 = DIRECTION ( 'NONE',  ( -1.000000000000000000, 0.000000000000000000, 0.000000000000000000 ) ) ;
#814 = EDGE_CURVE ( 'NONE', #761, #1132, #884, .T. ) ;
#815 = CYLINDRICAL_SURFACE ( 'NONE', #754, 0.1406000000000001415 ) ;
#816 = EDGE_CURVE ( 'NONE', #506, #519, #843, .T. ) ;
#817 = DIRECTION ( 'NONE',  ( -1.000000000000000000, 0.000000000000000000, 0.000000000000000000 ) ) ;
#818 = CARTESIAN_POINT ( 'NONE',  ( 3.390366703982811369, 0.1520957433388790692, -0.7227475740295044027 ) ) ;
#819 = ORIENTED_EDGE ( 'NONE', *, *, #250, .F. ) ;
#820 = CARTESIAN_POINT ( 'NONE',  ( 0.1982000000000000983, 0.000000000000000000, -1.204500000000000792 ) ) ;
#821 = CYLINDRICAL_SURFACE ( 'NONE', #84, 0.1565000000000000835 ) ;
#822 = CARTESIAN_POINT ( 'NONE',  ( 1.095868723696675540, 0.6485739743829481707, -0.1250000000000000000 ) ) ;
#823 = ORIENTED_EDGE ( 'NONE', *, *, #5, .T. ) ;
#824 = CARTESIAN_POINT ( 'NONE',  ( 2.299852264000778579, 2.203695587888485186, 0.1250000000000000000 ) ) ;
#825 = CARTESIAN_POINT ( 'NONE',  ( 5.120298621315516385, -0.1180000000000000909, -1.362000000000000322 ) ) ;
#826 = FACE_OUTER_BOUND ( 'NONE', #248, .T. ) ;
#827 = ORIENTED_EDGE ( 'NONE', *, *, #577, .T. ) ;
#828 = EDGE_CURVE ( 'NONE', #761, #1023, #312, .T. ) ;
#829 = VECTOR ( 'NONE', #1059, 39.37007874015748143 ) ;
#830 = CARTESIAN_POINT ( 'NONE',  ( 3.604600000000000026, 0.4000000000000000777, -0.1249999999999997363 ) ) ;
#831 = PLANE ( 'NONE',  #595 ) ;
#832 = LINE ( 'NONE', #986, #1044 ) ;
#833 = DIRECTION ( 'NONE',  ( -0.000000000000000000, 1.000000000000000000, -1.242251007628252106E-16 ) ) ;
#834 = EDGE_LOOP ( 'NONE', ( #890, #648, #772, #871, #360, #386, #1090, #281, #1035 ) ) ;
#835 = VECTOR ( 'NONE', #268, 39.37007874015748143 ) ;
#836 = DIRECTION ( 'NONE',  ( -0.000000000000000000, 1.000000000000000000, -1.242251007628252106E-16 ) ) ;
#837 = CARTESIAN_POINT ( 'NONE',  ( 3.604600000000000026, 0.4000000000000000777, -1.233949453823770748 ) ) ;
#838 = CARTESIAN_POINT ( 'NONE',  ( 1.022363496692916263, 0.02012340682474839104, -1.055100002677173299 ) ) ;
#839 = ORIENTED_EDGE ( 'NONE', *, *, #1169, .F. ) ;
#840 = CONICAL_SURFACE ( 'NONE', #805, 0.2534999999999998921, 0.7155849933176759992 ) ;
#841 = ORIENTED_EDGE ( 'NONE', *, *, #92, .T. ) ;
#842 = AXIS2_PLACEMENT_3D ( 'NONE', #895, #1160, #356 ) ;
#843 = CIRCLE ( 'NONE', #381, 0.3614178643972082439 ) ;
#844 = DIRECTION ( 'NONE',  ( -0.000000000000000000, 1.000000000000000000, -1.242251007628252106E-16 ) ) ;
#845 = ORIENTED_EDGE ( 'NONE', *, *, #938, .F. ) ;
#846 = DIRECTION ( 'NONE',  ( 0.000000000000000000, 1.347065085633266536E-16, 1.000000000000000000 ) ) ;
#847 = CIRCLE ( 'NONE', #1045, 0.3614178643971866500 ) ;
#848 = EDGE_CURVE ( 'NONE', #1132, #1043, #940, .T. ) ;
#849 = DIRECTION ( 'NONE',  ( -0.000000000000000000, -0.000000000000000000, -1.000000000000000000 ) ) ;
#850 = COORDINATED_UNIVERSAL_TIME_OFFSET ( 8, 0, .BEHIND. ) ;
#851 = EDGE_CURVE ( 'NONE', #348, #592, #774, .T. ) ;
#852 = AXIS2_PLACEMENT_3D ( 'NONE', #586, #33, #771 ) ;
#853 =( NAMED_UNIT ( * ) PLANE_ANGLE_UNIT ( ) SI_UNIT ( $, .RADIAN. ) );
#854 = ORIENTED_EDGE ( 'NONE', *, *, #1133, .F. ) ;
#855 = ORIENTED_EDGE ( 'NONE', *, *, #55, .F. ) ;
#856 = CARTESIAN_POINT ( 'NONE',  ( 3.373492877495665621, 0.1500000000000001055, -1.119799176108704941 ) ) ;
#857 = CALENDAR_DATE ( 2024, 10, 4 ) ;
#858 = ADVANCED_FACE ( 'NONE', ( #474 ), #831, .F. ) ;
#859 = CARTESIAN_POINT ( 'NONE',  ( 3.223150898267721942, 0.1500000000000000500, -0.9145000026771710200 ) ) ;
#860 = EDGE_LOOP ( 'NONE', ( #864, #869, #1063, #827 ) ) ;
#861 = AXIS2_PLACEMENT_3D ( 'NONE', #1092, #366, #372 ) ;
#862 = CARTESIAN_POINT ( 'NONE',  ( 3.604600000000000026, 0.1500000000000001055, -1.362000000000000322 ) ) ;
#863 = DIRECTION ( 'NONE',  ( -0.000000000000000000, -0.000000000000000000, -1.000000000000000000 ) ) ;
#864 = ORIENTED_EDGE ( 'NONE', *, *, #147, .F. ) ;
#865 = EDGE_CURVE ( 'NONE', #888, #876, #1151, .T. ) ;
#866 = DIRECTION ( 'NONE',  ( -0.000000000000000000, 1.000000000000000000, -1.242251007628252106E-16 ) ) ;
#867 = DATE_AND_TIME ( #791, #1091 ) ;
#868 = CARTESIAN_POINT ( 'NONE',  ( 0.3557000000000002382, -0.1180000000000044347, -1.204500000000000348 ) ) ;
#869 = ORIENTED_EDGE ( 'NONE', *, *, #492, .T. ) ;
#870 = DIRECTION ( 'NONE',  ( -0.000000000000000000, 1.000000000000000000, -1.242251007628252106E-16 ) ) ;
#871 = ORIENTED_EDGE ( 'NONE', *, *, #315, .T. ) ;
#872 = FACE_BOUND ( 'NONE', #245, .T. ) ;
#873 = ADVANCED_FACE ( 'NONE', ( #1119 ), #112, .F. ) ;
#874 = VERTEX_POINT ( 'NONE', #195 ) ;
#875 = DIRECTION ( 'NONE',  ( -1.000000000000000000, 0.000000000000000000, 0.000000000000000000 ) ) ;
#876 = VERTEX_POINT ( 'NONE', #932 ) ;
#877 = DIRECTION ( 'NONE',  ( 8.034405899049459962E-17, 0.7547095802227712369, -0.6560590289905079420 ) ) ;
#878 = DIRECTION ( 'NONE',  ( -0.000000000000000000, 1.000000000000000000, -1.242251007628252106E-16 ) ) ;
#879 = EDGE_LOOP ( 'NONE', ( #1069, #52, #287, #219 ) ) ;
#880 = CARTESIAN_POINT ( 'NONE',  ( 2.299852264000778579, 2.203695587888485186, -0.1250000000000000000 ) ) ;
#881 = CIRCLE ( 'NONE', #7, 0.5760821356028134055 ) ;
#882 = ORIENTED_EDGE ( 'NONE', *, *, #362, .T. ) ;
#883 = CARTESIAN_POINT ( 'NONE',  ( 3.223150898267721942, 0.2500000000000000555, -0.9145000026771710200 ) ) ;
#884 = CIRCLE ( 'NONE', #998, 0.1565000000000000835 ) ;
#885 = VECTOR ( 'NONE', #434, 39.37007874015748143 ) ;
#886 = DIRECTION ( 'NONE',  ( -0.000000000000000000, -0.000000000000000000, 1.000000000000000000 ) ) ;
#887 = EDGE_CURVE ( 'NONE', #566, #946, #342, .T. ) ;
#888 = VERTEX_POINT ( 'NONE', #16 ) ;
#889 = CARTESIAN_POINT ( 'NONE',  ( 3.697099999999999831, 1.092739197465705287E-15, -1.362000000000000322 ) ) ;
#890 = ORIENTED_EDGE ( 'NONE', *, *, #778, .F. ) ;
#891 = CIRCLE ( 'NONE', #560, 0.1406000000000001415 ) ;
#892 = DIRECTION ( 'NONE',  ( -0.000000000000000000, -0.000000000000000000, 1.000000000000000000 ) ) ;
#893 = AXIS2_PLACEMENT_3D ( 'NONE', #1008, #456, #196 ) ;
#894 = ORIENTED_EDGE ( 'NONE', *, *, #133, .T. ) ;
#895 = CARTESIAN_POINT ( 'NONE',  ( 1.022363496692916263, 0.1500000000000000500, -0.9145000026771732404 ) ) ;
#896 = VERTEX_POINT ( 'NONE', #368 ) ;
#897 = CARTESIAN_POINT ( 'NONE',  ( 3.854600000000000026, 0.2773689141161057581, -1.296761363926237864 ) ) ;
#898 = CIRCLE ( 'NONE', #695, 0.1575000000000000289 ) ;
#899 = VECTOR ( 'NONE', #1093, 39.37007874015748143 ) ;
#900 = VERTEX_POINT ( 'NONE', #293 ) ;
#901 = PLANE ( 'NONE',  #715 ) ;
#902 = EDGE_CURVE ( 'NONE', #1095, #66, #391, .T. ) ;
#903 = CARTESIAN_POINT ( 'NONE',  ( 1.022363496692916263, 0.1500000000000000777, -0.7739000026771732932 ) ) ;
#904 = DIRECTION ( 'NONE',  ( 0.000000000000000000, 1.347065085633266536E-16, 1.000000000000000000 ) ) ;
#905 = CYLINDRICAL_SURFACE ( 'NONE', #893, 0.1406000000000000028 ) ;
#906 = ORIENTED_EDGE ( 'NONE', *, *, #550, .F. ) ;
#907 = PLANE ( 'NONE',  #545 ) ;
#908 = CC_DESIGN_DATE_AND_TIME_ASSIGNMENT ( #26, #585, ( #947 ) ) ;
#909 = CARTESIAN_POINT ( 'NONE',  ( 3.697099999999999831, -0.1180000000000000909, -1.204500000000000348 ) ) ;
#910 = DIRECTION ( 'NONE',  ( -1.000000000000000000, 0.000000000000000000, 0.000000000000000000 ) ) ;
#911 = ORIENTED_EDGE ( 'NONE', *, *, #563, .F. ) ;
#912 = CARTESIAN_POINT ( 'NONE',  ( 3.223150898267721942, -1.540584488504664317E-16, -1.055100002677171078 ) ) ;
#913 = LINE ( 'NONE', #1099, #688 ) ;
#914 = EDGE_CURVE ( 'NONE', #471, #72, #1014, .T. ) ;
#915 = CARTESIAN_POINT ( 'NONE',  ( 1.095868723696675540, 0.6485739743829481707, 0.000000000000000000 ) ) ;
#916 = ORIENTED_EDGE ( 'NONE', *, *, #505, .T. ) ;
#917 = CARTESIAN_POINT ( 'NONE',  ( 3.854600000000000026, 0.000000000000000000, 0.1250000000000000000 ) ) ;
#918 = CARTESIAN_POINT ( 'NONE',  ( 1.022363496692916263, 0.1500000000000000500, -0.9145000026771732404 ) ) ;
#919 = DIRECTION ( 'NONE',  ( -0.000000000000000000, 1.000000000000000000, -1.242251007628252106E-16 ) ) ;
#920 = APPROVAL_ROLE ( '' ) ;
#921 = CARTESIAN_POINT ( 'NONE',  ( 3.697099999999999831, -0.1180000000000000909, -1.362000000000000322 ) ) ;
#922 = CC_DESIGN_PERSON_AND_ORGANIZATION_ASSIGNMENT ( #414, #410, ( #543 ) ) ;
#923 = CARTESIAN_POINT ( 'NONE',  ( 0.1982000000000000983, 1.804840907814190422E-16, -0.1250000000000000000 ) ) ;
#924 = ORIENTED_EDGE ( 'NONE', *, *, #767, .F. ) ;
#925 = FACE_OUTER_BOUND ( 'NONE', #952, .T. ) ;
#926 = DIRECTION ( 'NONE',  ( 0.000000000000000000, 0.7547095802227715700, 0.6560590289905078309 ) ) ;
#927 = CARTESIAN_POINT ( 'NONE',  ( 3.223150898267721942, 0.1500000000000000777, -0.7739000026771709617 ) ) ;
#928 = PLANE ( 'NONE',  #387 ) ;
#929 = ORIENTED_EDGE ( 'NONE', *, *, #1104, .F. ) ;
#930 = CARTESIAN_POINT ( 'NONE',  ( 0.3556999999999999607, 0.1500000000000000500, -1.204500000000000348 ) ) ;
#931 = ORIENTED_EDGE ( 'NONE', *, *, #227, .T. ) ;
#932 = CARTESIAN_POINT ( 'NONE',  ( 3.354600000000000470, 0.1500000000000003553, -0.6838240749045111366 ) ) ;
#933 = APPROVAL_PERSON_ORGANIZATION ( #127, #588, #920 ) ;
#934 = FACE_OUTER_BOUND ( 'NONE', #394, .T. ) ;
#935 = ORIENTED_EDGE ( 'NONE', *, *, #914, .F. ) ;
#936 = EDGE_CURVE ( 'NONE', #190, #121, #384, .T. ) ;
#937 = ORIENTED_EDGE ( 'NONE', *, *, #94, .F. ) ;
#938 = EDGE_CURVE ( 'NONE', #766, #501, #728, .T. ) ;
#939 = CIRCLE ( 'NONE', #123, 0.1406000000000000028 ) ;
#940 = LINE ( 'NONE', #317, #125 ) ;
#941 = AXIS2_PLACEMENT_3D ( 'NONE', #73, #335, #627 ) ;
#942 = VECTOR ( 'NONE', #209, 39.37007874015748143 ) ;
#943 = LENGTH_MEASURE_WITH_UNIT ( LENGTH_MEASURE( 0.02539999999999999897 ), #1121 );
#944 = ORIENTED_EDGE ( 'NONE', *, *, #987, .F. ) ;
#945 = AXIS2_PLACEMENT_3D ( 'NONE', #201, #1094, #3 ) ;
#946 = VERTEX_POINT ( 'NONE', #837 ) ;
#947 = PRODUCT_DEFINITION ( 'UNKNOWN', '', #543, #275 ) ;
#948 = CARTESIAN_POINT ( 'NONE',  ( 1.252368723696675623, 0.6485739743829481707, 0.000000000000000000 ) ) ;
#949 = DATE_AND_TIME ( #400, #273 ) ;
#950 = CIRCLE ( 'NONE', #742, 0.1575000000000000289 ) ;
#951 = CARTESIAN_POINT ( 'NONE',  ( 1.938434399603570224, 2.203695587888485186, 0.000000000000000000 ) ) ;
#952 = EDGE_LOOP ( 'NONE', ( #1175, #61, #158, #744, #144, #717 ) ) ;
#953 = VECTOR ( 'NONE', #179, 39.37007874015748143 ) ;
#954 = CARTESIAN_POINT ( 'NONE',  ( 3.223150898267721942, 0.02012340682474839104, -1.055100002677171078 ) ) ;
#955 = CARTESIAN_POINT ( 'NONE',  ( 3.413169446890682135, 0.1568379005619848776, -1.082639872025307870 ) ) ;
#956 = SHAPE_DEFINITION_REPRESENTATION ( #39, #48 ) ;
#957 = EDGE_CURVE ( 'NONE', #900, #465, #734, .T. ) ;
#958 = ORIENTED_EDGE ( 'NONE', *, *, #2, .F. ) ;
#959 = VECTOR ( 'NONE', #459, 39.37007874015748143 ) ;
#960 = AXIS2_PLACEMENT_3D ( 'NONE', #104, #367, #22 ) ;
#961 = PERSON_AND_ORGANIZATION ( #538, #989 ) ;
#962 = CARTESIAN_POINT ( 'NONE',  ( 3.223150898267721942, 0.1500000000000000500, -0.9145000026771710200 ) ) ;
#963 = ORIENTED_EDGE ( 'NONE', *, *, #706, .T. ) ;
#964 = LINE ( 'NONE', #1079, #225 ) ;
#965 = ORIENTED_EDGE ( 'NONE', *, *, #489, .F. ) ;
#966 = DIRECTION ( 'NONE',  ( 9.106159978880879367E-16, -1.000000000000000000, 0.000000000000000000 ) ) ;
#967 = CARTESIAN_POINT ( 'NONE',  ( 3.438694427481732152, 0.1645007962930780943, -0.7806418922435290897 ) ) ;
#968 = ORIENTED_EDGE ( 'NONE', *, *, #499, .F. ) ;
#969 = CARTESIAN_POINT ( 'NONE',  ( 1.454277664564902706, 0.9483332983461802979, 0.1250000000000000000 ) ) ;
#970 = ORIENTED_EDGE ( 'NONE', *, *, #802, .F. ) ;
#971 = DIRECTION ( 'NONE',  ( -1.000000000000000000, 0.000000000000000000, -0.000000000000000000 ) ) ;
#972 = DIRECTION ( 'NONE',  ( -0.000000000000000000, -0.000000000000000000, -1.000000000000000000 ) ) ;
#973 = ORIENTED_EDGE ( 'NONE', *, *, #522, .F. ) ;
#974 = VERTEX_POINT ( 'NONE', #25 ) ;
#975 = FACE_BOUND ( 'NONE', #157, .T. ) ;
#976 = EDGE_CURVE ( 'NONE', #540, #980, #95, .T. ) ;
#977 = ORIENTED_EDGE ( 'NONE', *, *, #99, .F. ) ;
#978 = VECTOR ( 'NONE', #234, 39.37007874015748143 ) ;
#979 = DIRECTION ( 'NONE',  ( -0.000000000000000000, -0.000000000000000000, -1.000000000000000000 ) ) ;
#980 = VERTEX_POINT ( 'NONE', #1025 ) ;
#981 = CYLINDRICAL_SURFACE ( 'NONE', #186, 0.2534999999999997811 ) ;
#982 = ORIENTED_EDGE ( 'NONE', *, *, #580, .F. ) ;
#983 = FACE_OUTER_BOUND ( 'NONE', #675, .T. ) ;
#984 = EDGE_LOOP ( 'NONE', ( #973, #102, #1028, #819 ) ) ;
#985 = DIRECTION ( 'NONE',  ( 0.000000000000000000, 0.000000000000000000, 1.000000000000000000 ) ) ;
#986 = CARTESIAN_POINT ( 'NONE',  ( 3.854600000000000026, 2.453544337385996026E-17, -0.1250000000000000000 ) ) ;
#987 = EDGE_CURVE ( 'NONE', #319, #355, #913, .T. ) ;
#988 = EDGE_LOOP ( 'NONE', ( #524, #911 ) ) ;
#989 = ORGANIZATION ( 'UNSPECIFIED', 'UNSPECIFIED', '' ) ;
#990 = DIRECTION ( 'NONE',  ( 0.000000000000000000, 1.000000000000000000, 0.000000000000000000 ) ) ;
#991 = CARTESIAN_POINT ( 'NONE',  ( 1.022363496692916263, 0.1500000000000000777, -0.6610000026771732928 ) ) ;
#992 = VECTOR ( 'NONE', #544, 39.37007874015748143 ) ;
#993 = DIRECTION ( 'NONE',  ( -1.000000000000000000, 0.000000000000000000, 0.000000000000000000 ) ) ;
#994 = ORIENTED_EDGE ( 'NONE', *, *, #1169, .T. ) ;
#995 = EDGE_CURVE ( 'NONE', #355, #900, #1177, .T. ) ;
#996 = AXIS2_PLACEMENT_3D ( 'NONE', #562, #999, #1118 ) ;
#997 = DIRECTION ( 'NONE',  ( -1.000000000000000000, 0.000000000000000000, 0.000000000000000000 ) ) ;
#998 = AXIS2_PLACEMENT_3D ( 'NONE', #948, #323, #1135 ) ;
#999 = DIRECTION ( 'NONE',  ( -0.000000000000000000, 1.000000000000000000, -1.242251007628252106E-16 ) ) ;
#1000 = DIRECTION ( 'NONE',  ( 0.000000000000000000, -1.000000000000000000, 0.000000000000000000 ) ) ;
#1001 = CIRCLE ( 'NONE', #500, 0.2654999999999999583 ) ;
#1002 = DIRECTION ( 'NONE',  ( -0.000000000000000000, -0.000000000000000000, 1.000000000000000000 ) ) ;
#1003 = CARTESIAN_POINT ( 'NONE',  ( 0.000000000000000000, 0.000000000000000000, 0.000000000000000000 ) ) ;
#1004 = VERTEX_POINT ( 'NONE', #569 ) ;
#1005 = AXIS2_PLACEMENT_3D ( 'NONE', #661, #844, #28 ) ;
#1006 = FACE_OUTER_BOUND ( 'NONE', #206, .T. ) ;
#1007 = DIRECTION ( 'NONE',  ( -0.000000000000000000, 1.000000000000000000, -1.242251007628252106E-16 ) ) ;
#1008 = CARTESIAN_POINT ( 'NONE',  ( 1.022363496692916263, 0.1500000000000000777, -0.9145000026771732404 ) ) ;
#1009 = ORIENTED_EDGE ( 'NONE', *, *, #522, .T. ) ;
#1010 = PLANE ( 'NONE',  #1057 ) ;
#1011 = DIRECTION ( 'NONE',  ( -1.000000000000000000, 0.000000000000000000, 0.000000000000000000 ) ) ;
#1012 = CIRCLE ( 'NONE', #804, 0.7146723828161395398 ) ;
#1013 = EDGE_CURVE ( 'NONE', #974, #519, #285, .T. ) ;
#1014 = LINE ( 'NONE', #1021, #789 ) ;
#1015 = CYLINDRICAL_SURFACE ( 'NONE', #496, 0.1406000000000001415 ) ;
#1016 = FACE_OUTER_BOUND ( 'NONE', #182, .T. ) ;
#1017 = ORIENTED_EDGE ( 'NONE', *, *, #674, .T. ) ;
#1018 = DIRECTION ( 'NONE',  ( -0.000000000000000000, -0.000000000000000000, -1.000000000000000000 ) ) ;
#1019 = CYLINDRICAL_SURFACE ( 'NONE', #354, 0.1565000000000000835 ) ;
#1020 = LINE ( 'NONE', #185, #608 ) ;
#1021 = CARTESIAN_POINT ( 'NONE',  ( 3.223150898267721942, 0.1500000000000000500, -1.055100002677171078 ) ) ;
#1022 = DIRECTION ( 'NONE',  ( -0.000000000000000000, 1.000000000000000000, -1.242251007628252106E-16 ) ) ;
#1023 = VERTEX_POINT ( 'NONE', #822 ) ;
#1024 = VERTEX_POINT ( 'NONE', #105 ) ;
#1025 = CARTESIAN_POINT ( 'NONE',  ( 2.143352264000780050, 2.203695587888485186, -0.1250000000000000000 ) ) ;
#1026 = EDGE_CURVE ( 'NONE', #766, #471, #339, .T. ) ;
#1027 =( CONVERSION_BASED_UNIT ( 'INCH', #943 ) LENGTH_UNIT ( ) NAMED_UNIT ( #662 ) );
#1028 = ORIENTED_EDGE ( 'NONE', *, *, #315, .F. ) ;
#1029 = ADVANCED_FACE ( 'NONE', ( #1107 ), #235, .F. ) ;
#1030 = DIRECTION ( 'NONE',  ( -0.000000000000000000, -0.000000000000000000, -1.000000000000000000 ) ) ;
#1031 = FACE_OUTER_BOUND ( 'NONE', #879, .T. ) ;
#1032 = CARTESIAN_POINT ( 'NONE',  ( 2.299852264000778579, 2.203695587888485186, -0.1250000000000000000 ) ) ;
#1033 = APPROVAL_STATUS ( 'not_yet_approved' ) ;
#1034 = DIRECTION ( 'NONE',  ( -0.000000000000000000, -0.000000000000000000, -1.000000000000000000 ) ) ;
#1035 = ORIENTED_EDGE ( 'NONE', *, *, #1013, .F. ) ;
#1036 = CC_DESIGN_DATE_AND_TIME_ASSIGNMENT ( #867, #326, ( #1055 ) ) ;
#1037 = ORIENTED_EDGE ( 'NONE', *, *, #57, .T. ) ;
#1038 = VECTOR ( 'NONE', #877, 39.37007874015748854 ) ;
#1039 = CARTESIAN_POINT ( 'NONE',  ( 3.476642543087963055, 0.1818128835914159525, -0.9033566477234229453 ) ) ;
#1040 = PERSON_AND_ORGANIZATION_ROLE ( 'design_owner' ) ;
#1041 = CIRCLE ( 'NONE', #124, 0.1565000000000000835 ) ;
#1042 = DIRECTION ( 'NONE',  ( -0.000000000000000000, -1.242251007628252106E-16, -1.000000000000000000 ) ) ;
#1043 = VERTEX_POINT ( 'NONE', #668 ) ;
#1044 = VECTOR ( 'NONE', #470, 39.37007874015748143 ) ;
#1045 = AXIS2_PLACEMENT_3D ( 'NONE', #666, #1172, #176 ) ;
#1046 = CARTESIAN_POINT ( 'NONE',  ( 0.000000000000000000, 2.565061936357496464, -0.1250000000000000000 ) ) ;
#1047 = CARTESIAN_POINT ( 'NONE',  ( 3.475909478085986937, 0.1813985173406488238, -0.8922860326810890808 ) ) ;
#1048 = COORDINATED_UNIVERSAL_TIME_OFFSET ( 8, 0, .BEHIND. ) ;
#1049 = EDGE_CURVE ( 'NONE', #671, #226, #796, .T. ) ;
#1050 = AXIS2_PLACEMENT_3D ( 'NONE', #302, #919, #479 ) ;
#1051 = EDGE_LOOP ( 'NONE', ( #260, #45 ) ) ;
#1052 = CONICAL_SURFACE ( 'NONE', #798, 0.2534999999999998921, 0.7155849933176754440 ) ;
#1053 = CARTESIAN_POINT ( 'NONE',  ( 1.022363496692916263, -1.365923996832131609E-16, -0.9145000026771732404 ) ) ;
#1054 = CC_DESIGN_PERSON_AND_ORGANIZATION_ASSIGNMENT ( #17, #749, ( #1055 ) ) ;
#1055 = SECURITY_CLASSIFICATION ( '', '', #480 ) ;
#1056 = ORIENTED_EDGE ( 'NONE', *, *, #687, .F. ) ;
#1057 = AXIS2_PLACEMENT_3D ( 'NONE', #639, #990, #198 ) ;
#1058 = AXIS2_PLACEMENT_3D ( 'NONE', #161, #886, #635 ) ;
#1059 = DIRECTION ( 'NONE',  ( -0.000000000000000000, -0.000000000000000000, -1.000000000000000000 ) ) ;
#1060 = EDGE_CURVE ( 'NONE', #226, #135, #653, .T. ) ;
#1061 = ORIENTED_EDGE ( 'NONE', *, *, #902, .F. ) ;
#1062 = DIRECTION ( 'NONE',  ( 0.000000000000000000, 1.214370551948907933E-16, 1.000000000000000000 ) ) ;
#1063 = ORIENTED_EDGE ( 'NONE', *, *, #976, .T. ) ;
#1064 = CARTESIAN_POINT ( 'NONE',  ( 0.000000000000000000, 0.000000000000000000, 0.000000000000000000 ) ) ;
#1065 = DIRECTION ( 'NONE',  ( -0.000000000000000000, 1.000000000000000000, -1.242251007628252106E-16 ) ) ;
#1066 = ADVANCED_FACE ( 'NONE', ( #407, #934 ), #670, .F. ) ;
#1067 = ORIENTED_EDGE ( 'NONE', *, *, #411, .T. ) ;
#1068 = DIRECTION ( 'NONE',  ( 0.000000000000000000, 1.347065085633266536E-16, 1.000000000000000000 ) ) ;
#1069 = ORIENTED_EDGE ( 'NONE', *, *, #767, .T. ) ;
#1070 = EDGE_CURVE ( 'NONE', #501, #72, #891, .T. ) ;
#1071 = FACE_OUTER_BOUND ( 'NONE', #726, .T. ) ;
#1072 = ORIENTED_EDGE ( 'NONE', *, *, #1117, .T. ) ;
#1073 = DIRECTION ( 'NONE',  ( -1.000000000000000000, 0.000000000000000000, 0.000000000000000000 ) ) ;
#1074 = ORIENTED_EDGE ( 'NONE', *, *, #510, .F. ) ;
#1075 = CARTESIAN_POINT ( 'NONE',  ( 1.022363496692916263, 0.1499999999999999944, -1.168000002677173077 ) ) ;
#1076 = EDGE_CURVE ( 'NONE', #430, #1095, #131, .T. ) ;
#1077 = CARTESIAN_POINT ( 'NONE',  ( 0.000000000000000000, 0.000000000000000000, -0.1250000000000000000 ) ) ;
#1078 = VERTEX_POINT ( 'NONE', #951 ) ;
#1079 = CARTESIAN_POINT ( 'NONE',  ( 3.854600000000000026, 2.565061936357496464, 0.1250000000000000000 ) ) ;
#1080 = ORIENTED_EDGE ( 'NONE', *, *, #1070, .F. ) ;
#1081 = DIRECTION ( 'NONE',  ( 0.000000000000000000, -1.286180787977525198E-16, -1.000000000000000000 ) ) ;
#1082 = EDGE_CURVE ( 'NONE', #1043, #1023, #347, .T. ) ;
#1083 = DIRECTION ( 'NONE',  ( -1.000000000000000000, 0.000000000000000000, 0.000000000000000000 ) ) ;
#1084 = DIRECTION ( 'NONE',  ( 0.000000000000000000, 0.000000000000000000, 1.000000000000000000 ) ) ;
#1085 = ORIENTED_EDGE ( 'NONE', *, *, #1060, .F. ) ;
#1086 = CARTESIAN_POINT ( 'NONE',  ( 1.022363496692916263, 0.1500000000000002720, -1.180000002677173088 ) ) ;
#1087 = LINE ( 'NONE', #703, #992 ) ;
#1088 = EDGE_CURVE ( 'NONE', #402, #1179, #393, .T. ) ;
#1089 = CARTESIAN_POINT ( 'NONE',  ( 3.354600000000000470, 0.1500000000000001055, -0.6977434949230161276 ) ) ;
#1090 = ORIENTED_EDGE ( 'NONE', *, *, #363, .T. ) ;
#1091 = LOCAL_TIME ( 21, 31, 11.00000000000000000, #51 ) ;
#1092 = CARTESIAN_POINT ( 'NONE',  ( 3.223150898267721942, 0.1500000000000000500, -0.9145000026771710200 ) ) ;
#1093 = DIRECTION ( 'NONE',  ( -0.000000000000000000, -0.000000000000000000, -1.000000000000000000 ) ) ;
#1094 = DIRECTION ( 'NONE',  ( 0.000000000000000000, 0.000000000000000000, 1.000000000000000000 ) ) ;
#1095 = VERTEX_POINT ( 'NONE', #295 ) ;
#1096 = CIRCLE ( 'NONE', #1150, 0.1564999999999984459 ) ;
#1097 = CARTESIAN_POINT ( 'NONE',  ( 0.1981999999999999595, 0.1500000000000003553, 0.1250000000000000000 ) ) ;
#1098 = CARTESIAN_POINT ( 'NONE',  ( 3.854600000000000026, 0.000000000000000000, -1.204500000000000570 ) ) ;
#1099 = CARTESIAN_POINT ( 'NONE',  ( 0.000000000000000000, 2.565061936357496464, 0.000000000000000000 ) ) ;
#1100 = AXIS2_PLACEMENT_3D ( 'NONE', #267, #634, #985 ) ;
#1101 = DIRECTION ( 'NONE',  ( 0.000000000000000000, 1.000000000000000000, -1.201869173444923422E-16 ) ) ;
#1102 = ORIENTED_EDGE ( 'NONE', *, *, #1026, .T. ) ;
#1103 = DIRECTION ( 'NONE',  ( -0.000000000000000000, 1.000000000000000000, -1.242251007628252106E-16 ) ) ;
#1104 = EDGE_CURVE ( 'NONE', #402, #874, #708, .T. ) ;
#1105 = VECTOR ( 'NONE', #134, 39.37007874015748143 ) ;
#1106 = DIRECTION ( 'NONE',  ( -0.000000000000000000, 1.000000000000000000, -1.242251007628252106E-16 ) ) ;
#1107 = FACE_OUTER_BOUND ( 'NONE', #81, .T. ) ;
#1108 = CARTESIAN_POINT ( 'NONE',  ( 3.604600000000000026, 2.565061936357496464, -0.1250000000000000000 ) ) ;
#1109 = VECTOR ( 'NONE', #423, 39.37007874015748143 ) ;
#1110 = ORIENTED_EDGE ( 'NONE', *, *, #282, .T. ) ;
#1111 = CC_DESIGN_APPROVAL ( #155, ( #1055 ) ) ;
#1112 = FACE_OUTER_BOUND ( 'NONE', #447, .T. ) ;
#1113 = CONICAL_SURFACE ( 'NONE', #861, 0.2534999999999998921, 0.7155849933176754440 ) ;
#1114 = DIRECTION ( 'NONE',  ( -1.000000000000000000, 0.000000000000000000, 0.000000000000000000 ) ) ;
#1115 = CARTESIAN_POINT ( 'NONE',  ( 1.252368723696675623, 0.6485739743829481707, -0.1250000000000000000 ) ) ;
#1116 = EDGE_LOOP ( 'NONE', ( #970, #49, #345, #412, #488, #170, #622, #175 ) ) ;
#1117 = EDGE_CURVE ( 'NONE', #226, #888, #683, .T. ) ;
#1118 = DIRECTION ( 'NONE',  ( 0.000000000000000000, 1.242251007628252106E-16, 1.000000000000000000 ) ) ;
#1119 = FACE_OUTER_BOUND ( 'NONE', #719, .T. ) ;
#1120 = ADVANCED_FACE ( 'NONE', ( #1016 ), #928, .F. ) ;
#1121 =( LENGTH_UNIT ( ) NAMED_UNIT ( * ) SI_UNIT ( $, .METRE. ) );
#1122 = ORIENTED_EDGE ( 'NONE', *, *, #362, .F. ) ;
#1123 = DIRECTION ( 'NONE',  ( 0.000000000000000000, 1.084066664152485158E-16, 1.000000000000000000 ) ) ;
#1124 = ORIENTED_EDGE ( 'NONE', *, *, #13, .T. ) ;
#1125 = CARTESIAN_POINT ( 'NONE',  ( 3.420103125165077973, 0.1586409333056658100, -1.074460979708050878 ) ) ;
#1126 = CARTESIAN_POINT ( 'NONE',  ( 3.354600000000000470, 0.1500000000000001887, -0.1250000000000000000 ) ) ;
#1127 = ORIENTED_EDGE ( 'NONE', *, *, #987, .T. ) ;
#1128 = DIRECTION ( 'NONE',  ( 1.000000000000000000, 0.000000000000000000, 0.000000000000000000 ) ) ;
#1129 = CARTESIAN_POINT ( 'NONE',  ( 3.354600000000000470, 0.1499999999999999944, -1.131256510431326134 ) ) ;
#1130 = DATE_AND_TIME ( #857, #80 ) ;
#1131 = DIRECTION ( 'NONE',  ( -0.000000000000000000, 1.000000000000000000, -1.242251007628252106E-16 ) ) ;
#1132 = VERTEX_POINT ( 'NONE', #205 ) ;
#1133 = EDGE_CURVE ( 'NONE', #642, #1004, #303, .T. ) ;
#1134 = CARTESIAN_POINT ( 'NONE',  ( 5.120298621315516385, 0.1500000000000000222, -1.362000000000000099 ) ) ;
#1135 = DIRECTION ( 'NONE',  ( -1.000000000000000000, 0.000000000000000000, 0.000000000000000000 ) ) ;
#1136 = ORIENTED_EDGE ( 'NONE', *, *, #321, .T. ) ;
#1137 = DIRECTION ( 'NONE',  ( 0.000000000000000000, -0.8900408142482573171, -0.4558808495345019196 ) ) ;
#1138 = CC_DESIGN_PERSON_AND_ORGANIZATION_ASSIGNMENT ( #189, #1040, ( #421 ) ) ;
#1139 = DIRECTION ( 'NONE',  ( -0.000000000000000000, -0.000000000000000000, -1.000000000000000000 ) ) ;
#1140 = ORIENTED_EDGE ( 'NONE', *, *, #510, .T. ) ;
#1141 = AXIS2_PLACEMENT_3D ( 'NONE', #286, #376, #173 ) ;
#1142 = VERTEX_POINT ( 'NONE', #760 ) ;
#1143 = APPROVAL_DATE_TIME ( #775, #155 ) ;
#1144 = AXIS2_PLACEMENT_3D ( 'NONE', #401, #19, #44 ) ;
#1145 = ORIENTED_EDGE ( 'NONE', *, *, #619, .T. ) ;
#1146 = DIRECTION ( 'NONE',  ( -0.000000000000000000, 1.000000000000000000, -1.242251007628252106E-16 ) ) ;
#1147 = ORIENTED_EDGE ( 'NONE', *, *, #1152, .F. ) ;
#1148 = LINE ( 'NONE', #70, #690 ) ;
#1149 = EDGE_CURVE ( 'NONE', #314, #465, #217, .T. ) ;
#1150 = AXIS2_PLACEMENT_3D ( 'NONE', #643, #574, #200 ) ;
#1151 = CIRCLE ( 'NONE', #436, 0.2655000000000005134 ) ;
#1152 = EDGE_CURVE ( 'NONE', #314, #348, #950, .T. ) ;
#1153 = ORIENTED_EDGE ( 'NONE', *, *, #184, .T. ) ;
#1154 = LINE ( 'NONE', #152, #1109 ) ;
#1155 = ORIENTED_EDGE ( 'NONE', *, *, #94, .T. ) ;
#1156 = LINE ( 'NONE', #521, #598 ) ;
#1157 = VECTOR ( 'NONE', #966, 39.37007874015748143 ) ;
#1158 = CYLINDRICAL_SURFACE ( 'NONE', #960, 0.3614178643971866500 ) ;
#1159 = ORIENTED_EDGE ( 'NONE', *, *, #446, .T. ) ;
#1160 = DIRECTION ( 'NONE',  ( -0.000000000000000000, 1.000000000000000000, -1.242251007628252106E-16 ) ) ;
#1161 = ORIENTED_EDGE ( 'NONE', *, *, #550, .T. ) ;
#1162 = DIRECTION ( 'NONE',  ( -0.000000000000000000, -0.000000000000000000, -1.000000000000000000 ) ) ;
#1163 = AXIS2_PLACEMENT_3D ( 'NONE', #431, #254, #993 ) ;
#1164 = ORIENTED_EDGE ( 'NONE', *, *, #697, .T. ) ;
#1165 = DIRECTION ( 'NONE',  ( -0.000000000000000000, -0.000000000000000000, -1.000000000000000000 ) ) ;
#1166 = ORIENTED_EDGE ( 'NONE', *, *, #785, .T. ) ;
#1167 = LINE ( 'NONE', #696, #1157 ) ;
#1168 = VECTOR ( 'NONE', #283, 39.37007874015748143 ) ;
#1169 = EDGE_CURVE ( 'NONE', #34, #671, #535, .T. ) ;
#1170 = DIRECTION ( 'NONE',  ( -0.000000000000000000, 1.000000000000000000, -1.242251007628252106E-16 ) ) ;
#1171 = ORIENTED_EDGE ( 'NONE', *, *, #181, .F. ) ;
#1172 = DIRECTION ( 'NONE',  ( -0.000000000000000000, -0.000000000000000000, -1.000000000000000000 ) ) ;
#1173 = FACE_OUTER_BOUND ( 'NONE', #420, .T. ) ;
#1174 = LINE ( 'NONE', #654, #835 ) ;
#1175 = ORIENTED_EDGE ( 'NONE', *, *, #957, .T. ) ;
#1176 = DIRECTION ( 'NONE',  ( 0.000000000000000000, 1.242251007628252106E-16, 1.000000000000000000 ) ) ;
#1177 = LINE ( 'NONE', #646, #165 ) ;
#1178 = CARTESIAN_POINT ( 'NONE',  ( 3.354600000000000470, 0.1500000000000001055, -0.6977434949230161276 ) ) ;
#1179 = VERTEX_POINT ( 'NONE', #838 ) ;
ENDSEC;
END-ISO-10303-21;
